<svg xmlns="http://www.w3.org/2000/svg" xmlns:xlink="http://www.w3.org/1999/xlink" viewBox="0 0 160.13 64.73"><defs><style>.cls-1{fill:url(#linear-gradient);}.cls-2{fill:url(#linear-gradient-2);}.cls-3{fill:url(#linear-gradient-3);}.cls-4{fill:url(#linear-gradient-4);}</style><linearGradient id="linear-gradient" x1="76.81" y1="5.07" x2="84.1" y2="5.07" gradientUnits="userSpaceOnUse"><stop offset="0" stop-color="#f6abb0"/><stop offset="0.65" stop-color="#df5591"/><stop offset="1" stop-color="#d22780"/></linearGradient><linearGradient id="linear-gradient-2" y1="31.15" x2="42.62" y2="31.15" gradientUnits="userSpaceOnUse"><stop offset="0" stop-color="#f7b502"/><stop offset="0.08" stop-color="#f8ba0e"/><stop offset="0.3" stop-color="#fac62a"/><stop offset="0.52" stop-color="#fcce3d"/><stop offset="0.75" stop-color="#fdd349"/><stop offset="0.98" stop-color="#fdd54d"/></linearGradient><linearGradient id="linear-gradient-3" x1="117.51" y1="31.15" x2="160.13" y2="31.15" xlink:href="#linear-gradient-2"/><linearGradient id="linear-gradient-4" x1="79.39" y1="34.22" x2="81.53" y2="34.22" xlink:href="#linear-gradient-2"/></defs><title>Asset 13</title><g id="Layer_2" data-name="Layer 2"><g id="OBJECTS"><path class="cls-1" d="M84.1,5.07a3.65,3.65,0,1,1-3.64-3.64A3.64,3.64,0,0,1,84.1,5.07Z"/><path class="cls-2" d="M1.07,62.3H1A1.07,1.07,0,0,1,0,61.11c.21-1.81.45-3.61.72-5.34a1.07,1.07,0,1,1,2.11.32c-.26,1.71-.5,3.49-.71,5.27A1.06,1.06,0,0,1,1.07,62.3ZM2.72,51.73l-.21,0a1.07,1.07,0,0,1-.84-1.26c.35-1.78.75-3.56,1.17-5.27a1.08,1.08,0,0,1,1.3-.78,1.06,1.06,0,0,1,.78,1.3c-.42,1.68-.81,3.42-1.16,5.17A1.06,1.06,0,0,1,2.72,51.73Zm2.6-10.38a1.1,1.1,0,0,1-.31,0A1.08,1.08,0,0,1,4.3,40c.54-1.76,1.14-3.49,1.76-5.13a1.07,1.07,0,0,1,2,.76c-.61,1.6-1.18,3.28-1.72,5A1.06,1.06,0,0,1,5.32,41.35Zm3.81-10a1,1,0,0,1-.45-.1,1.07,1.07,0,0,1-.52-1.42c.77-1.67,1.61-3.3,2.48-4.84a1.07,1.07,0,0,1,1.86,1.05c-.84,1.5-1.65,3.07-2.4,4.69A1.06,1.06,0,0,1,9.13,31.36Zm5.27-9.3a1.07,1.07,0,0,1-.88-1.68c1-1.51,2.16-3,3.31-4.33a1.07,1.07,0,1,1,1.63,1.38c-1.1,1.31-2.17,2.71-3.18,4.17A1.07,1.07,0,0,1,14.4,22.06Zm6.91-8.15a1.08,1.08,0,0,1-.78-.33,1.06,1.06,0,0,1,0-1.51,48.26,48.26,0,0,1,4.14-3.56,1.07,1.07,0,0,1,1.5.19,1.08,1.08,0,0,1-.2,1.51,47.34,47.34,0,0,0-4,3.4A1.08,1.08,0,0,1,21.31,13.91ZM29.77,7.4a1.07,1.07,0,0,1-.55-2A51.32,51.32,0,0,1,34,2.84a1.05,1.05,0,0,1,1.42.51,1.07,1.07,0,0,1-.51,1.42,48.38,48.38,0,0,0-4.61,2.48A1.12,1.12,0,0,1,29.77,7.4Zm9.66-4.55A1.07,1.07,0,0,1,39.07.77C39.78.51,40.5.28,41.23.05a1.07,1.07,0,0,1,.64,2c-.7.22-1.4.45-2.08.69A.92.92,0,0,1,39.43,2.85Z"/><path class="cls-3" d="M159.06,62.3a1.08,1.08,0,0,1-1.07-.94c-.2-1.78-.44-3.56-.71-5.27a1.07,1.07,0,1,1,2.12-.32c.27,1.73.51,3.53.72,5.34a1.07,1.07,0,0,1-.94,1.19Zm-1.65-10.57a1.07,1.07,0,0,1-1-.86c-.35-1.75-.74-3.49-1.16-5.17a1.07,1.07,0,1,1,2.08-.52c.43,1.71.83,3.49,1.18,5.27a1.07,1.07,0,0,1-.84,1.26Zm-2.6-10.38a1.07,1.07,0,0,1-1-.75c-.53-1.72-1.11-3.4-1.71-5a1.07,1.07,0,0,1,2-.76c.62,1.64,1.21,3.37,1.76,5.13a1.08,1.08,0,0,1-.71,1.34A1.1,1.1,0,0,1,154.81,41.35Zm-3.81-10a1.09,1.09,0,0,1-1-.62c-.75-1.62-1.55-3.19-2.4-4.69A1.07,1.07,0,0,1,149.49,25c.87,1.54,1.7,3.17,2.48,4.84a1.07,1.07,0,0,1-.52,1.42A1,1,0,0,1,151,31.36Zm-5.27-9.3a1.06,1.06,0,0,1-.88-.46c-1-1.46-2.08-2.86-3.19-4.17a1.07,1.07,0,1,1,1.64-1.38c1.15,1.36,2.26,2.82,3.31,4.33a1.07,1.07,0,0,1-.28,1.49A1,1,0,0,1,145.73,22.06Zm-6.91-8.15a1.06,1.06,0,0,1-.74-.3,47.47,47.47,0,0,0-4-3.4,1.08,1.08,0,0,1-.19-1.51,1.07,1.07,0,0,1,1.5-.19,49.84,49.84,0,0,1,4.14,3.56,1.07,1.07,0,0,1-.74,1.84ZM130.35,7.4a1.08,1.08,0,0,1-.55-.15,48.38,48.38,0,0,0-4.61-2.48,1.07,1.07,0,0,1,.91-1.93,51.32,51.32,0,0,1,4.81,2.58,1.07,1.07,0,0,1-.56,2ZM120.7,2.85a.92.92,0,0,1-.36-.07c-.69-.24-1.38-.47-2.08-.69a1.07,1.07,0,0,1,.64-2c.73.23,1.44.46,2.15.72a1.06,1.06,0,0,1,.65,1.36A1.06,1.06,0,0,1,120.7,2.85Z"/><path class="cls-4" d="M80.46,64.73a1.06,1.06,0,0,1-1.07-1.07V58.31a1.07,1.07,0,1,1,2.14,0v5.35A1.07,1.07,0,0,1,80.46,64.73Zm0-10.71A1.06,1.06,0,0,1,79.39,53V47.6a1.07,1.07,0,0,1,2.14,0V53A1.07,1.07,0,0,1,80.46,54Zm0-10.7a1.06,1.06,0,0,1-1.07-1.07V36.89a1.07,1.07,0,0,1,2.14,0v5.36A1.07,1.07,0,0,1,80.46,43.32Zm0-10.71a1.06,1.06,0,0,1-1.07-1.07V26.19a1.07,1.07,0,0,1,2.14,0v5.35A1.07,1.07,0,0,1,80.46,32.61Zm0-10.7a1.06,1.06,0,0,1-1.07-1.07V15.48a1.07,1.07,0,0,1,2.14,0v5.36A1.07,1.07,0,0,1,80.46,21.91Zm0-10.71a1.06,1.06,0,0,1-1.07-1.07V4.78a1.07,1.07,0,0,1,2.14,0v5.35A1.07,1.07,0,0,1,80.46,11.2Z"/></g></g></svg>