<svg xmlns="http://www.w3.org/2000/svg" xmlns:xlink="http://www.w3.org/1999/xlink" viewBox="0 0 98.28 120.63"><defs><style>.cls-1{fill:#f6abb0;}.cls-2{fill:#410784;}.cls-3{fill:#f7b8b7;}.cls-4{fill:url(#linear-gradient);}</style><linearGradient id="linear-gradient" x1="73.34" y1="31.74" x2="36.34" y2="-49.54" gradientUnits="userSpaceOnUse"><stop offset="0" stop-color="#f7b502"/><stop offset="0.08" stop-color="#f8ba0e"/><stop offset="0.3" stop-color="#fac62a"/><stop offset="0.52" stop-color="#fcce3d"/><stop offset="0.75" stop-color="#fdd349"/><stop offset="0.98" stop-color="#fdd54d"/></linearGradient></defs><title>Asset 8</title><g id="Layer_2" data-name="Layer 2"><g id="OBJECTS"><path class="cls-1" d="M81.38,34C78.44,52,73.5,55,65.86,37.92c1-.37,1.71-.66,1.84-.75a3,3,0,0,0,1-2.59h0a4.29,4.29,0,0,0-.06-.53,5.75,5.75,0,0,0-1.3-3.13l6.87-3.51,1.35,3.91c.12.37.24.75.35,1.13s.18.66.26,1h0v0a1.42,1.42,0,0,0,1.43,1C78.72,34.4,80,34.22,81.38,34Z"/><path class="cls-2" d="M98.28,71.43c-.06,15.72-5.36,32.87-9,48.64-15.63,1.87-27.92-.69-39.61-11.43,4.11-10,13.43-18.24,14.83-29.26s-4.7-21.07-7.61-31C55.68,44.07,57.71,42,61,40a42.34,42.34,0,0,1,4.84-2C73.5,55,78.44,52,81.38,34a21.86,21.86,0,0,1,5.31-.31c5.5.77,8.12,1.54,9,8.43C96.78,51.11,98.33,60.68,98.28,71.43Z"/><path class="cls-3" d="M81,17.38c0-2.16-1.13-4.76-2.88-4.53a3,3,0,0,0-1.56.84C74,8.11,68.22,2.53,63.85,3.1c-5.72.74-10,4.57-7.65,19.28.92,5.82,6.14,11,11.86,10.79,4.29-.18,8.15-5.68,9.4-10.88C79.17,21.37,81,20.12,81,17.38Z"/><path class="cls-2" d="M62.51,24.38h-.08c-.67.05-1.59,0-1.8-.56-.3-.84,1.23-2,1.9-2.51a.31.31,0,0,1,.44.08.3.3,0,0,1-.08.43c-.94.68-1.76,1.54-1.67,1.79,0,0,.13.21,1.17.14a.33.33,0,0,1,.34.3A.33.33,0,0,1,62.51,24.38Z"/><path class="cls-2" d="M64,27.94a4.4,4.4,0,0,1-.58.1.36.36,0,0,1-.06-.71c.18,0,4.45-.46,4.58-4.74a.35.35,0,0,1,.37-.35.36.36,0,0,1,.34.37A5.52,5.52,0,0,1,64,27.94Z"/><path class="cls-2" d="M69.42,15.34a.37.37,0,0,1-.38-.1,2.26,2.26,0,0,0-3.19-.32.35.35,0,0,1-.5,0,.36.36,0,0,1,.05-.51,2.94,2.94,0,0,1,4.16.39.35.35,0,0,1,0,.5A.46.46,0,0,1,69.42,15.34Z"/><path class="cls-2" d="M59.64,16.27a.31.31,0,0,1-.29.15A1.88,1.88,0,0,0,57.15,18a.3.3,0,1,1-.59-.09,2.48,2.48,0,0,1,2.86-2.05.3.3,0,0,1,.26.33A.21.21,0,0,1,59.64,16.27Z"/><path class="cls-2" d="M67.58,18.54c.22.81,0,1.56-.4,1.68S66.18,19.8,66,19s0-1.56.4-1.69S67.36,17.73,67.58,18.54Z"/><path class="cls-2" d="M60.19,20.39c.23.81.05,1.56-.4,1.69s-1-.43-1.22-1.24,0-1.56.41-1.68S60,19.58,60.19,20.39Z"/><path class="cls-4" d="M63.11.91C59.9,2.35,42.35,11.39,52,13.93a13.84,13.84,0,0,0,5.94.15c1.24-.22,5.27-1.58,8.66-2.75a9.18,9.18,0,0,1,9.18,1.88h0a16,16,0,0,0-1.27,5,1.15,1.15,0,0,0,2.25.36,41.54,41.54,0,0,0,1-8.7C78,4.92,71-2.62,63.11.91Z"/><path class="cls-2" d="M59.73,74.3A199.79,199.79,0,0,1,49.27,96.38l5.7,3.4A142.68,142.68,0,0,0,68.85,79.11a199.49,199.49,0,0,0,13.94-32,7.49,7.49,0,0,0,.78-6.37s0,0,0,0a.7.7,0,0,0,0-.14s0-.05-.06-.09a.37.37,0,0,0-.07-.18,6.21,6.21,0,0,0-4.53-3.35,8.54,8.54,0,0,0-2.42-.2,8.1,8.1,0,0,0-5.69,3h0a9,9,0,0,0-1.71,3.3,6.33,6.33,0,0,0-.18.79C68.36,46.6,67.41,51,65.8,56.62A172.46,172.46,0,0,1,59.73,74.3Z"/><path class="cls-3" d="M41.89,105.88,45,104.59a52.81,52.81,0,0,0-4.89,11.55A1.49,1.49,0,0,0,42,117.88c6.9-2.47,9.2-13.33,9.2-13.33s3.18-4.64,3.77-4.77l-5.7-3.4c-.74,1.47-1.85,3.84-3.86,4.58a16.85,16.85,0,0,0-4.74,3.25A1.06,1.06,0,0,0,41.89,105.88Z"/><path class="cls-2" d="M29.4,73.1A195.34,195.34,0,0,1,13.9,91.2l4.48,4.66A138.82,138.82,0,0,0,36.75,80,193.67,193.67,0,0,0,58.11,53.39c1.75-1.79-2.57-11.22-3.3-11.38a7.85,7.85,0,0,0-6.13,1.41h0a8.7,8.7,0,0,0-2.45,2.67,5.31,5.31,0,0,0-.38.69c-1.19,2.47-3.21,6.37-6.17,11.25A165.39,165.39,0,0,1,29.4,73.1Z"/><path class="cls-3" d="M4.51,98.24l3.23-.42a50.9,50.9,0,0,0-7.57,9.61,1.45,1.45,0,0,0,1.36,2.13C8.65,109,13.61,99.39,13.61,99.39s4.18-3.56,4.77-3.53L13.9,91.2c.27.28-2.74,3.13-4.82,3.31a16.73,16.73,0,0,0-5.29,1.85A1,1,0,0,0,4.51,98.24Z"/></g></g></svg>