<svg xmlns="http://www.w3.org/2000/svg" xmlns:xlink="http://www.w3.org/1999/xlink" viewBox="0 0 569.16 287.25"><defs><style>.cls-1{isolation:isolate;}.cls-2{fill:#f1f1f1;mix-blend-mode:multiply;}.cls-3{fill:url(#linear-gradient);}.cls-4{fill:url(#linear-gradient-2);}.cls-5{fill:#f6abb0;}.cls-6{fill:#41a9fd;}.cls-7{fill:#f7b8b7;}.cls-8{fill:#410784;}.cls-9{fill:url(#linear-gradient-3);}.cls-10{fill:url(#linear-gradient-4);}.cls-11{fill:#d22780;}.cls-12{fill:url(#linear-gradient-5);}</style><linearGradient id="linear-gradient" x1="10" y1="109.39" x2="48.68" y2="109.39" gradientUnits="userSpaceOnUse"><stop offset="0" stop-color="#410784"/><stop offset="0.22" stop-color="#450c85"/><stop offset="0.49" stop-color="#521b8a"/><stop offset="0.78" stop-color="#683390"/><stop offset="0.99" stop-color="#7c4a97"/></linearGradient><linearGradient id="linear-gradient-2" x1="33.41" y1="84.22" x2="56.65" y2="84.22" xlink:href="#linear-gradient"/><linearGradient id="linear-gradient-3" x1="22.28" y1="191.75" x2="61.24" y2="191.75" xlink:href="#linear-gradient"/><linearGradient id="linear-gradient-4" x1="30.36" y1="135.37" x2="68.82" y2="135.37" gradientUnits="userSpaceOnUse"><stop offset="0" stop-color="#f7b502"/><stop offset="0.08" stop-color="#f8ba0e"/><stop offset="0.3" stop-color="#fac62a"/><stop offset="0.52" stop-color="#fcce3d"/><stop offset="0.75" stop-color="#fdd349"/><stop offset="0.98" stop-color="#fdd54d"/></linearGradient><linearGradient id="linear-gradient-5" x1="17.96" y1="83.06" x2="44.99" y2="83.06" xlink:href="#linear-gradient"/></defs><title>Asset 11</title><g class="cls-1"><g id="Layer_2" data-name="Layer 2"><g id="OBJECTS"><ellipse class="cls-2" cx="37.89" cy="282.66" rx="37.89" ry="4.59"/><path class="cls-3" d="M48,91.14c-1.79-6.82-7-11.32-14-11.35a13.81,13.81,0,0,0-8.2,2.86,5.73,5.73,0,0,0-2.36,2.65,20.71,20.71,0,0,1-1.54,2.9l-.26-1.6c.12,1.81-1.75,4.48-2.61,5.91-1.88,3.13-3.76,6.2-5.49,9.42A28.25,28.25,0,0,0,10,114.78c-.15,3.07.51,6.48,2.74,8.78,2.65,2.72,6.32,3.9,9.32,6,1.55,1.11,3,2.07,3.24,4.14a5.49,5.49,0,0,1-.08,1.94c-.36,1.24-1.3,1.25-1.89,2.06,3.63,2.92,9.51.09,12.86-1.8,4.11-2.31,8.26-5.79,9.57-10.6,1.17-4.34,1.57-9.21,2.15-13.67.39-2.93.4-6,.52-8.92C48.6,98.81,49,95,48,91.14Z"/><path class="cls-4" d="M56.65,90.21c-5.11,0-7.84-3.58-9.89-7.2a54.38,54.38,0,0,1-1.54-7.38,6.74,6.74,0,0,0-8.34-5.38l-3.47.9A126.13,126.13,0,0,0,34.9,86.27c.84,4.12,2.54,9.63,7.74,10.54a90.13,90.13,0,0,0,11.08,1.6c-2.4-.87-4.27-3.76-5.53-5.66C50.83,91.75,54.3,92.13,56.65,90.21Z"/><path class="cls-5" d="M34.48,105.34l.58-.9a7.27,7.27,0,0,1,3.09-2.61l.61-.23c1.18-.39,2.42-.83,3.7-1.3l0,0c10.15-3.72,23.12-9.42,27.8-11.52l1.8-.81s.37-.71,1-2c2.53-5.17,9.19-19.36,10.37-27.86a57,57,0,0,1-.56-10.46c.89-2.18,1.85,0,2.85,4.34l1.69-7.56a2.58,2.58,0,0,1,4.69-.85c2.32,3.78-1,11.91-3.81,15.84-1,10.67-7.84,26.59-9.88,31.16a.78.78,0,0,1-.11.2h0a14.06,14.06,0,0,1-5,6.34c-4.48,3.09-12.36,8.49-18.22,12.14A67.52,67.52,0,0,1,44.16,115a11.31,11.31,0,0,1-5.6.37A6.57,6.57,0,0,1,34.48,105.34Z"/><path class="cls-6" d="M55.47,167.48l0-.07S55.48,167.48,55.47,167.48Z"/><path class="cls-5" d="M43.78,111c-8.68-.81-13.69-7-15.74-10.42l1.44-2.41a24.63,24.63,0,0,0,2.17-4.69l1.56-4.59,6.26,2.7a9.64,9.64,0,0,0,.23,7A5.08,5.08,0,0,0,42,101.18l0,0,2.44,1.14C50.54,110.27,43.78,111,43.78,111Z"/><path class="cls-7" d="M25.72,87.86c-1.14-1.58-1.63-4.09-.22-4.83a2.61,2.61,0,0,1,1.58-.18c-1-5.44.36-12.54,3.87-14.38,4.6-2.42,9.71-1.8,15.62,10.24,2.34,4.76,1.19,11.3-3.15,14.08-3.26,2.1-9,0-12.55-3.14C29.13,89.86,27.16,89.87,25.72,87.86Z"/><path class="cls-8" d="M43,83.44a.09.09,0,0,0,.07,0c.52-.31,1.19-.8,1-1.35-.22-.77-2-.85-2.7-.86a.29.29,0,0,0-.29.29.29.29,0,0,0,.28.28c1,0,2.1.22,2.16.44,0,0,0,.23-.78.72a.28.28,0,0,0-.1.39A.28.28,0,0,0,43,83.44Z"/><path class="cls-8" d="M43.74,86.82a4.45,4.45,0,0,0,.48-.23.33.33,0,0,0,.12-.44A.32.32,0,0,0,43.9,86c-.14.09-3.52,2-5.83-1.12a.32.32,0,0,0-.45-.06.33.33,0,0,0-.07.45A5,5,0,0,0,43.74,86.82Z"/><path class="cls-8" d="M33.83,80a.34.34,0,0,0,.23-.27,2,2,0,0,1,2.18-1.88.32.32,0,0,0,.34-.3.31.31,0,0,0-.29-.34,2.64,2.64,0,0,0-2.87,2.44.32.32,0,0,0,.41.35Z"/><path class="cls-8" d="M40.87,76a.28.28,0,0,0,.29,0,1.7,1.7,0,0,1,2.42,0,.27.27,0,1,0,.39-.37,2.23,2.23,0,0,0-3.17,0,.27.27,0,0,0,0,.38A.31.31,0,0,0,40.87,76Z"/><path class="cls-8" d="M35.85,81.39c.27.73.81,1.21,1.21,1.07s.52-.86.25-1.59-.8-1.22-1.2-1.08S35.59,80.65,35.85,81.39Z"/><path class="cls-8" d="M42.52,79.23c.26.74.8,1.22,1.2,1.07s.52-.85.26-1.59-.8-1.22-1.21-1.07S42.26,78.49,42.52,79.23Z"/><path class="cls-7" d="M61.23,202.72v.15c0,.31,0,.58,0,.88,0,.6-.17,2.31-.12,3.27a51.59,51.59,0,0,1-.08,6.13c-1.26,20.58-10.72,62.31-11.16,64.21v.06c-2-.19-3.76-.47-5.75-.62,0-.17.08-.34.11-.52,2.14-10.23,2.15-31.83,2-34.37s-.47-5.8,2-6.82c0,0-.88-10.23-2-22.1-.15-1.71-.32-3.47-.48-5.22-.34-3.68-.72-7.38-1.1-10.89-.48-3.76-1.6-12.3-2.1-14.76-.26,2.24-1.14,9-1.74,13.56h0c-.13,1-.27,2-.41,2.95,0,.22,0,.41-.08.6-.4,2.93-.82,5.87-1.25,8.76-.24,1.67-.49,3.32-.74,4.93-1.62,10.54-3.28,19.53-4.39,22.76-5.26,15.24-12.13,31.91-18.29,43.74l-1.84-1.1c-.93-.54-1.86-1.07-2.8-1.66l-.25-.16c6.24-9.11,8.43-41.85,14.15-41.15,0-.25,0-.53,0-.83,0-3.76-.66-12.21-1.34-21.76h0C23.3,208,23,203,22.7,198.2v-.08c0-.81-.1-1.63-.13-2.44h0c-.4-9.16-.82-21.25-.46-23.16.14-.72.29-1.44.45-2.17H61c0,.74.05,1.47,0,2.2v.24c0,1.45,0,2.87,0,4.3,0,7,.09,13.7.17,18.59v1.07C61.24,198.49,61.24,200.45,61.23,202.72Z"/><path class="cls-9" d="M61.23,202.72v.15c0,.31,0,.58,0,.88,0,.6-.17,2.31-.12,3.27a51.59,51.59,0,0,1-.08,6.13L46.55,213h-.29l-7.58-.07h-.29l-14.46-.16h0C23.59,208,23.26,203,23,198.2v-.08c0-.81-.1-1.63-.13-2.44h0c-.41-9.16-.82-21.25-.46-23.16.14-.72.29-1.44.45-2.17H61c0,.74.05,1.47,0,2.2v.24c0,1.45,0,2.87,0,4.3,0,7,.09,13.7.17,18.59v1.07C61.24,198.49,61.24,200.45,61.23,202.72Z"/><path class="cls-10" d="M27.78,156.81a46.57,46.57,0,0,0-5.2,13.55H61c-.48-9.21-4.77-19.22-7.16-27.87-.3-1.21-.59-2.41-.81-3.64A31.46,31.46,0,0,1,53.17,126l2.49-9.61A9.68,9.68,0,0,0,52.38,107a30.49,30.49,0,0,0-7-4.27l-.91-.42a.31.31,0,0,0,.09.07c2.35,1.76.54,5.51-2.34,5-6.83-1.28-10-8.37-14.2-6.76l-.59,1.78a27.51,27.51,0,0,0-1.29,7.32c-.09,1.57-.94.67-.26,4.71.37,2.16,7.29,16,9.07,24.42a12.55,12.55,0,0,1,.33,4.43,1.25,1.25,0,0,1,0,.19h0C34.34,148.64,30.39,152.44,27.78,156.81Z"/><path class="cls-8" d="M11,275.92c-3,7.52,2.87,7.72,17.63,7.86,2.05,0,3.51-2.14,0-3.26l-11.1-4.78s-5.39-.13-6.47-.07Z"/><path class="cls-8" d="M43.86,275.92c-3,7.52,2.86,7.72,17.63,7.86,2,0,3.51-2.14,0-3.26l-11.1-4.78s-5.39-.13-6.47-.07Z"/><path class="cls-11" d="M48.08,34.94c-.31-7,2.82-14.13,8-19.25C70.18,1.76,93.46-1,112.28.3c12.75.92,21.61,7.09,23.23,21q.08.68.12,1.32a24.41,24.41,0,0,1-14.52,23.76h0A59.65,59.65,0,0,1,106,50.9c-5.24.83-11.91,1.94-15.81,2.78C77.12,56.5,59.3,58.2,51.14,44.9A20.65,20.65,0,0,1,48.08,34.94Z"/><text/><path class="cls-7" d="M24.82,107l.56-.91a7.28,7.28,0,0,1,3-2.7l.61-.24c1.16-.42,2.39-.9,3.66-1.41,0,0,0,0,.05,0,10-4,22.85-10,27.47-12.27L62,88.56s.35-.73.93-2c2.38-5.24,8.64-19.6,9.6-28.14A56.64,56.64,0,0,1,71.64,48c.83-2.21,1.85,0,3,4.26l1.48-7.61a2.58,2.58,0,0,1,4.66-1c2.43,3.71-.67,11.92-3.37,15.93-.72,10.7-7.11,26.79-9,31.42a.67.67,0,0,1-.1.21h0a13.88,13.88,0,0,1-4.86,6.47c-4.38,3.22-12.12,8.83-17.87,12.64a68.58,68.58,0,0,1-10.76,6,11.38,11.38,0,0,1-5.58.52A6.58,6.58,0,0,1,24.82,107Z"/><path class="cls-12" d="M39,66C23.8,58.77,12.36,77,20.87,86.35c2.83,3.11-1.07,9.9,3.47,12.6,3.17,1.89,5.77,3.76,9.6,2.25-1.94-1.67-2.48-1.83-3-4.06,2.82,0,5.93,1.61,8.81.65C35,96,33.73,91.65,33.12,87.53c-.12-.75-.44-4.42-.7-7.52,1.13-2.72,3-5.09,5.19-6.07a9,9,0,0,1-1.71,3.77,26,26,0,0,0,6.33-3.42C46.89,70.06,45.52,69.14,39,66Z"/><text/></g></g></g></svg>