<svg xmlns="http://www.w3.org/2000/svg" xmlns:xlink="http://www.w3.org/1999/xlink" viewBox="0 0 209.74 136"><defs><style>.cls-1{fill:url(#linear-gradient);}.cls-2{fill:url(#linear-gradient-2);}.cls-3{fill:url(#linear-gradient-3);}</style><linearGradient id="linear-gradient" x1="71.65" y1="180.31" x2="71.65" y2="-7.32" gradientTransform="translate(30.32 -36.41) rotate(27.55)" gradientUnits="userSpaceOnUse"><stop offset="0" stop-color="#410784"/><stop offset="0.04" stop-color="#450b85"/><stop offset="0.27" stop-color="#5d278d"/><stop offset="0.51" stop-color="#6e3a93"/><stop offset="0.75" stop-color="#794696"/><stop offset="0.99" stop-color="#7c4a97"/></linearGradient><linearGradient id="linear-gradient-2" x1="152" y1="224.15" x2="152" y2="2.2" xlink:href="#linear-gradient"/><linearGradient id="linear-gradient-3" x1="27.03" y1="192.44" x2="27.03" y2="4.82" xlink:href="#linear-gradient"/></defs><title>Asset 12</title><g id="Layer_2" data-name="Layer 2"><g id="OBJECTS"><path class="cls-1" d="M50.92,65.34a33.76,33.76,0,0,0-5.71-1.08l-1.46-6.83L23.67,61.74l1.5,7a32.6,32.6,0,0,0-10.25,9.67l-7-2L2.34,96.2l7,2a32.74,32.74,0,0,0,2.89,12.09l-5.25,4.91,14,15,5.11-4.78A33.33,33.33,0,0,0,33,128.25a34.65,34.65,0,0,0,5.14,1L39.6,136l20.08-4.31-1.4-6.56A32.71,32.71,0,0,0,69,115.18L75.38,117,81,97.23l-6.37-1.81a32.66,32.66,0,0,0-3.11-12.59l4.89-4.57-14-15-5,4.69A33.35,33.35,0,0,0,50.92,65.34Zm5.53,35.58a15.36,15.36,0,1,1-10.57-19A15.36,15.36,0,0,1,56.45,100.92Z"/><path class="cls-2" d="M161,19.62a52.85,52.85,0,0,0-9.25-1.75L149.37,6.79l-32.54,7,2.44,11.36a53.11,53.11,0,0,0-16.62,15.68L91.39,37.6l-9.11,32,11.26,3.2a53.1,53.1,0,0,0,4.67,19.58l-8.49,8,22.74,24.3,8.29-7.75A53.19,53.19,0,0,0,132,121.54a55.85,55.85,0,0,0,8.33,1.67l2.34,10.88,32.53-7-2.27-10.62a53.08,53.08,0,0,0,17.4-16.13l10.32,2.93,9.11-32-10.32-2.94a52.73,52.73,0,0,0-5-20.4l7.93-7.41L179.56,16.25l-8.12,7.59A52.77,52.77,0,0,0,161,19.62Zm8.95,57.64a24.89,24.89,0,1,1-17.12-30.75A24.88,24.88,0,0,1,169.94,77.26Z"/><path class="cls-3" d="M34,5.53a22.57,22.57,0,0,0-4-.75L28.94,0l-14,3,1,4.9a23,23,0,0,0-7.16,6.76L3.93,13.29,0,27.09l4.86,1.38a22.91,22.91,0,0,0,2,8.45L3.21,40.35,13,50.83l3.57-3.35a22.41,22.41,0,0,0,4.85,2,23.77,23.77,0,0,0,3.59.72l1,4.69,14-3-1-4.58a22.77,22.77,0,0,0,7.5-7L51,41.62,55,27.82l-4.45-1.27a22.68,22.68,0,0,0-2.17-8.8l3.41-3.19L42,4.08l-3.5,3.27A23.25,23.25,0,0,0,34,5.53ZM38.21,28.3a10.76,10.76,0,1,1-5.82-10.42A10.77,10.77,0,0,1,38.21,28.3Z"/></g></g></svg>