<svg xmlns="http://www.w3.org/2000/svg" viewBox="0 0 444.9 348.12"><defs><style>.cls-1{opacity:0.1;}.cls-2{fill:#5e217f;}</style></defs><title>Asset 7</title><g id="Layer_2" data-name="Layer 2"><g id="BACKGROUND"><g class="cls-1"><path class="cls-2" d="M404.63,116.87a108.26,108.26,0,0,0-77.15-84.29c-23.24-6.6-47.74-5.21-71.42-2.13a414.43,414.43,0,0,1-68.76,3.41c-22.46-.8-45.22-1.47-67.13,3.54-21.6,4.94-43.54,16.31-55.83,35.43C51,93.58,55.31,121.15,66.08,142c8.48,16.4,19.23,32.48,17.53,51.82a264.42,264.42,0,0,1-3.89,27.6c-3.55,18.26-3.84,37.48,1,55.52,4.39,16.17,13,31.33,25.59,42.43,24.49,21.69,64,29.28,95.86,28.73,29.11-.5,58.13-14,76.58-36.68,11.43-14,18.31-31,28.25-46C323.84,240,350.7,233,373.33,214.86,402.09,191.79,411.65,152,404.63,116.87Z"/><path class="cls-2" d="M78.57,23.17a20.14,20.14,0,0,0-1-3.44L80.88,17l-8.06-9.8L69.4,10a20.31,20.31,0,0,0-8.21-2.88L60.3,2.75,47.87,5.26l.89,4.38a20.19,20.19,0,0,0-5.81,5l-4.18-1.49-4.25,12,4.08,1.45A19.6,19.6,0,0,0,39,31.18a21.14,21.14,0,0,0,.89,3.12L36.6,37l8.06,9.8,3.2-2.63a20.24,20.24,0,0,0,8.51,3.07l.81,4,12.43-2.51-.81-4a20,20,0,0,0,6-5.28l3.9,1.39,4.25-12-4-1.41A20.19,20.19,0,0,0,78.57,23.17ZM60.62,36.29A9.49,9.49,0,1,1,68,25.11,9.49,9.49,0,0,1,60.62,36.29Z"/><path class="cls-2" d="M109.23,12.24a11.67,11.67,0,0,0-.61-2.06l2-1.64-4.83-5.87-2.05,1.68a12.32,12.32,0,0,0-4.93-1.73L98.28,0,90.83,1.51l.53,2.62a12.16,12.16,0,0,0-3.49,3l-2.5-.88-2.55,7.16,2.45.87a11.87,11.87,0,0,0,.23,2.77A11.39,11.39,0,0,0,86,18.91l-2,1.62L88.9,26.4l1.92-1.57a12.05,12.05,0,0,0,5.1,1.84l.49,2.4,7.45-1.51-.49-2.4A12,12,0,0,0,107,22l2.34.83,2.55-7.16-2.4-.85A11.83,11.83,0,0,0,109.23,12.24ZM98.47,20.12a5.7,5.7,0,1,1,4.45-6.72A5.7,5.7,0,0,1,98.47,20.12Z"/><path class="cls-2" d="M54.35,72.07A11.67,11.67,0,0,0,53.74,70l2-1.65L50.9,62.49l-2,1.69a12.13,12.13,0,0,0-4.92-1.73l-.53-2.62-7.46,1.51L36.48,64A12.16,12.16,0,0,0,33,67l-2.5-.89-2.55,7.17,2.44.87a12.46,12.46,0,0,0,.24,2.77,12.8,12.8,0,0,0,.53,1.86l-2,1.62L34,86.23l1.92-1.58A12.05,12.05,0,0,0,41,86.49l.48,2.41L49,87.39,48.49,85a12.09,12.09,0,0,0,3.61-3.17l2.34.83L57,75.49l-2.39-.85A11.83,11.83,0,0,0,54.35,72.07ZM43.59,79.94A5.69,5.69,0,1,1,48,73.23,5.68,5.68,0,0,1,43.59,79.94Z"/><path class="cls-2" d="M360.12,277.21a17.81,17.81,0,0,0-3,.56l-2-3.09-9.09,6,2.09,3.17a17.27,17.27,0,0,0-3.2,6.75L341,291l1,10.83,3.82-.36a17.35,17.35,0,0,0,3.74,5.41L348,310.26l9.81,4.71,1.61-3.34a17.47,17.47,0,0,0,6.71-.4l2,3,9.09-6-2-3a17.23,17.23,0,0,0,3.39-7l3.5-.33-1-10.84-3.5.33a17.29,17.29,0,0,0-3.95-5.61l1.53-3.2L365.38,274l-1.57,3.28A16.82,16.82,0,0,0,360.12,277.21Zm9.57,16.5a8.14,8.14,0,1,1-8.87-7.34A8.14,8.14,0,0,1,369.69,293.71Z"/><path class="cls-2" d="M395.4,228.35a23.41,23.41,0,0,0-4.15.77l-2.79-4.24L376,233.08l2.86,4.34a23.76,23.76,0,0,0-4.39,9.25l-5.22.49L370.66,262l5.23-.49a23.66,23.66,0,0,0,5.13,7.41l-2.26,4.7,13.44,6.44,2.2-4.58a23.6,23.6,0,0,0,9.19-.54l2.75,4.17,12.44-8.2-2.67-4.07a23.69,23.69,0,0,0,4.64-9.56l4.78-.45L424.14,242l-4.79.45a23.42,23.42,0,0,0-5.42-7.69l2.11-4.38-13.44-6.45-2.16,4.49A22.91,22.91,0,0,0,395.4,228.35ZM408.5,251a11.15,11.15,0,1,1-12.15-10A11.14,11.14,0,0,1,408.5,251Z"/><path class="cls-2" d="M348.15,245.34a13.11,13.11,0,0,0-2.11.39l-1.43-2.16-6.35,4.19,1.46,2.21a12.26,12.26,0,0,0-2.24,4.72l-2.66.25.71,7.57,2.67-.25a12.17,12.17,0,0,0,2.61,3.78l-1.14,2.4,6.85,3.29,1.12-2.34a12.28,12.28,0,0,0,2.78.06,11.72,11.72,0,0,0,1.91-.34l1.4,2.13,6.35-4.18L358.72,265a12.21,12.21,0,0,0,2.37-4.88l2.44-.23-.71-7.57-2.44.23a12.13,12.13,0,0,0-2.77-3.92l1.07-2.24-6.85-3.29-1.1,2.29A12.33,12.33,0,0,0,348.15,245.34Zm6.69,11.53a5.7,5.7,0,1,1-6.2-5.13A5.7,5.7,0,0,1,354.84,256.87Z"/><path class="cls-2" d="M19.23,194.18a10.19,10.19,0,0,0,3.49,4.74,1,1,0,0,1-.25,1.77,10.16,10.16,0,0,0-4.68,3.57A1,1,0,0,1,16,204a10.19,10.19,0,0,0-3.49-4.74,1,1,0,0,1,.25-1.77,10.16,10.16,0,0,0,4.68-3.57A1,1,0,0,1,19.23,194.18Z"/><path class="cls-2" d="M7.14,170.54a10.11,10.11,0,0,0,3.49,4.73,1,1,0,0,1-.26,1.78,10.18,10.18,0,0,0-4.67,3.57,1,1,0,0,1-1.8-.26,10.28,10.28,0,0,0-3.5-4.74,1,1,0,0,1,.25-1.77,10.23,10.23,0,0,0,4.69-3.57A1,1,0,0,1,7.14,170.54Z"/><path class="cls-2" d="M15.3,147.21A10.19,10.19,0,0,0,18.79,152a1,1,0,0,1-.26,1.77,10.18,10.18,0,0,0-4.67,3.57,1,1,0,0,1-1.8-.26,10.28,10.28,0,0,0-3.5-4.74,1,1,0,0,1,.25-1.77A10.23,10.23,0,0,0,13.5,147,1,1,0,0,1,15.3,147.21Z"/><path class="cls-2" d="M441,160.75a10.24,10.24,0,0,0,3.48,4.74,1,1,0,0,1-.25,1.77,10.18,10.18,0,0,0-4.67,3.57,1,1,0,0,1-1.81-.26,10.11,10.11,0,0,0-3.49-4.73,1,1,0,0,1,.25-1.78,10.23,10.23,0,0,0,4.69-3.57A1,1,0,0,1,441,160.75Z"/><path class="cls-2" d="M415.61,178.79a10.11,10.11,0,0,0,3.49,4.73,1,1,0,0,1-.25,1.78,10.09,10.09,0,0,0-4.68,3.57,1,1,0,0,1-1.8-.26,10.14,10.14,0,0,0-3.5-4.74,1,1,0,0,1,.26-1.77,10.21,10.21,0,0,0,4.68-3.57A1,1,0,0,1,415.61,178.79Z"/><path class="cls-2" d="M425.86,136.52a10.07,10.07,0,0,0,3.48,4.74,1,1,0,0,1-.25,1.77,10.33,10.33,0,0,0-4.68,3.57,1,1,0,0,1-1.8-.25,10.14,10.14,0,0,0-3.49-4.74,1,1,0,0,1,.25-1.78,10.14,10.14,0,0,0,4.68-3.56A1,1,0,0,1,425.86,136.52Z"/></g></g></g></svg>