<svg xmlns="http://www.w3.org/2000/svg" xmlns:xlink="http://www.w3.org/1999/xlink" viewBox="0 0 124.06 211.37"><defs><style>.cls-1{fill:url(#radial-gradient);}.cls-2{fill:#f7b502;}.cls-3{fill:url(#linear-gradient);}.cls-4{fill:url(#linear-gradient-2);}.cls-5{fill:url(#linear-gradient-3);}.cls-6{fill:url(#linear-gradient-4);}</style><radialGradient id="radial-gradient" cx="62.69" cy="66.31" r="72.38" gradientUnits="userSpaceOnUse"><stop offset="0" stop-color="#fff"/><stop offset="0.14" stop-color="#fffefb"/><stop offset="0.27" stop-color="#fefcef"/><stop offset="0.4" stop-color="#fdf9dc"/><stop offset="0.53" stop-color="#fcf4c0"/><stop offset="0.66" stop-color="#fbed9d"/><stop offset="0.79" stop-color="#f9e571"/><stop offset="0.92" stop-color="#f6dc3e"/><stop offset="1" stop-color="#f5d61d"/></radialGradient><linearGradient id="linear-gradient" x1="62.09" y1="138.85" x2="62.09" y2="233.42" gradientUnits="userSpaceOnUse"><stop offset="0" stop-color="#d22780"/><stop offset="0.35" stop-color="#df5591"/><stop offset="1" stop-color="#f6abb0"/></linearGradient><linearGradient id="linear-gradient-2" x1="26.26" y1="156.78" x2="97.8" y2="156.78" gradientUnits="userSpaceOnUse"><stop offset="0" stop-color="#f6abb0"/><stop offset="0.65" stop-color="#df5591"/><stop offset="1" stop-color="#d22780"/></linearGradient><linearGradient id="linear-gradient-3" x1="26.26" y1="140.27" x2="97.8" y2="140.27" xlink:href="#linear-gradient-2"/><linearGradient id="linear-gradient-4" x1="26.26" y1="175.49" x2="97.8" y2="175.49" xlink:href="#linear-gradient-2"/></defs><title>Asset 12</title><g id="Layer_2" data-name="Layer 2"><g id="OBJECTS"><path class="cls-1" d="M124.06,62A62,62,0,1,0,23,110.2a21.24,21.24,0,0,1,7.74,16.51v5.69c0,17.3,14,30.44,31.32,30.44h0c17.3,0,31.32-13.14,31.32-30.44v-5.69a21.44,21.44,0,0,1,7.87-16.62A61.86,61.86,0,0,0,124.06,62Z"/><path class="cls-2" d="M73.26,154.77H70.91l0-77.25H52.47v76.06H50.1V77.52h-5a7.33,7.33,0,0,1,0-14.66h.32a7.22,7.22,0,0,1,7.08,7.33v5H70.89v-5A7.22,7.22,0,0,1,78,62.86h.39a7.33,7.33,0,0,1,0,14.66h-5.1Zm0-79.63h5.1a5,5,0,0,0,0-9.91H78a4.84,4.84,0,0,0-4.71,5ZM45.07,65.23a5,5,0,0,0,0,9.91h5v-5a4.84,4.84,0,0,0-4.71-5Z"/><path class="cls-3" d="M62.09,211.37h0A31.38,31.38,0,0,1,30.71,180V137.7H93.48V180A31.39,31.39,0,0,1,62.09,211.37Z"/><path class="cls-4" d="M93.82,160.76H30.24a4,4,0,0,1-4-4h0a4,4,0,0,1,4-4H93.82a4,4,0,0,1,4,4h0A4,4,0,0,1,93.82,160.76Z"/><path class="cls-5" d="M93.82,144.24H30.24a4,4,0,0,1-4-4h0a4,4,0,0,1,4-4H93.82a4,4,0,0,1,4,4h0A4,4,0,0,1,93.82,144.24Z"/><path class="cls-6" d="M93.82,179.47H30.24a4,4,0,0,1-4-4h0a4,4,0,0,1,4-4H93.82a4,4,0,0,1,4,4h0A4,4,0,0,1,93.82,179.47Z"/></g></g></svg>