<svg xmlns="http://www.w3.org/2000/svg" xmlns:xlink="http://www.w3.org/1999/xlink" viewBox="0 0 46.05 86.29"><defs><style>.cls-1{isolation:isolate;}.cls-2{fill:#f1f1f1;mix-blend-mode:multiply;}.cls-3{fill:url(#linear-gradient);}.cls-4{fill:#f7b502;}.cls-5{fill:url(#linear-gradient-2);}.cls-6{fill:url(#linear-gradient-3);}.cls-7{fill:url(#linear-gradient-4);}.cls-8{fill:url(#linear-gradient-5);}.cls-9{fill:url(#linear-gradient-6);}</style><linearGradient id="linear-gradient" x1="23.33" y1="56.04" x2="23.33" y2="15.83" gradientUnits="userSpaceOnUse"><stop offset="0" stop-color="#f5d61d"/><stop offset="0.08" stop-color="#f6dc3e"/><stop offset="0.2" stop-color="#f9e571"/><stop offset="0.33" stop-color="#fbed9d"/><stop offset="0.46" stop-color="#fcf4c0"/><stop offset="0.59" stop-color="#fdf9dc"/><stop offset="0.72" stop-color="#fefcef"/><stop offset="0.85" stop-color="#fffefb"/><stop offset="0.98" stop-color="#fff"/></linearGradient><linearGradient id="linear-gradient-2" y1="30.22" x2="46.05" y2="30.22" gradientUnits="userSpaceOnUse"><stop offset="0" stop-color="#f7b502"/><stop offset="0.08" stop-color="#f8ba0e"/><stop offset="0.3" stop-color="#fac62a"/><stop offset="0.52" stop-color="#fcce3d"/><stop offset="0.75" stop-color="#fdd349"/><stop offset="0.98" stop-color="#fdd54d"/></linearGradient><linearGradient id="linear-gradient-3" x1="11.35" y1="64.77" x2="34.65" y2="64.77" gradientUnits="userSpaceOnUse"><stop offset="0" stop-color="#d22780"/><stop offset="0.35" stop-color="#df5591"/><stop offset="1" stop-color="#f6abb0"/></linearGradient><linearGradient id="linear-gradient-4" x1="9.75" y1="62.44" x2="36.3" y2="62.44" gradientUnits="userSpaceOnUse"><stop offset="0" stop-color="#f6abb0"/><stop offset="0.65" stop-color="#df5591"/><stop offset="1" stop-color="#d22780"/></linearGradient><linearGradient id="linear-gradient-5" x1="9.75" y1="52.06" x2="36.3" y2="52.06" xlink:href="#linear-gradient-4"/><linearGradient id="linear-gradient-6" x1="9.75" y1="67.54" x2="36.3" y2="67.54" xlink:href="#linear-gradient-4"/></defs><title>Asset 9</title><g class="cls-1"><g id="Layer_2" data-name="Layer 2"><g id="OBJECTS"><ellipse class="cls-2" cx="23.01" cy="82.81" rx="22.89" ry="3.48"/><path class="cls-3" d="M44.61,24a21.54,21.54,0,0,1-8,16.67,7.37,7.37,0,0,0-2.7,5.75v2a10.37,10.37,0,0,1-3.44,7.77H15.6a2.68,2.68,0,0,1-.26-.23,10.36,10.36,0,0,1-3.19-7.54v-2a7.43,7.43,0,0,0-2.73-5.78A21.57,21.57,0,0,1,2.06,28.82c.62.31,1.25.62,1.85.89,7.94,3.55,14.66,3.35,19.28-3.46,0,0,10.54-12.81,18.78-8.16a8.65,8.65,0,0,1,2.26,1.81A20.76,20.76,0,0,1,44.61,24Z"/><path class="cls-4" d="M18.86,28.76H17a2.72,2.72,0,0,1,0-5.44h.15A2.68,2.68,0,0,1,19.74,26v1.84h6.83V26a2.68,2.68,0,0,1,2.63-2.72h.12a2.72,2.72,0,0,1,0,5.44H27.45V57h-.88V28.76H19.74V57.44h-.87Zm0-2.72a1.8,1.8,0,0,0-1.75-1.84H17a1.84,1.84,0,0,0,0,3.68h1.9ZM29.2,24.2A1.8,1.8,0,0,0,27.45,26v1.84h1.87a1.84,1.84,0,0,0,0-3.68Z"/><path class="cls-5" d="M45.65,18.76A23,23,0,0,0,0,23a21.79,21.79,0,0,0,.62,5.27A23,23,0,0,0,8.47,40.86,7.91,7.91,0,0,1,11.4,47v2.1a11,11,0,0,0,3.4,8.06l.28.25a12,12,0,0,0,15.89,0,11.08,11.08,0,0,0,3.68-8.31V47a7.9,7.9,0,0,1,2.88-6.14,23,23,0,0,0,8.52-17.8A22.15,22.15,0,0,0,45.65,18.76ZM36.38,40.32a7.55,7.55,0,0,0-2.64,5.81v2a10.53,10.53,0,0,1-5.4,9.31,11,11,0,0,1-10.62,0,9.81,9.81,0,0,1-2.26-1.69,10.65,10.65,0,0,1-3.14-7.62v-2a7.61,7.61,0,0,0-2.69-5.84A22.1,22.1,0,0,1,1.82,23.4c0-12.21,9.78-22.08,21.71-21.79a21.41,21.41,0,0,1,19.7,15.22,22.21,22.21,0,0,1-6.85,23.49Z"/><path class="cls-6" d="M23,78.45h0A11.65,11.65,0,0,0,34.65,66.8V51.1H11.35V66.8A11.66,11.66,0,0,0,23,78.45Z"/><path class="cls-7" d="M11.23,63.91h23.6a1.47,1.47,0,0,0,1.47-1.47h0A1.47,1.47,0,0,0,34.83,61H11.23a1.48,1.48,0,0,0-1.48,1.48h0A1.48,1.48,0,0,0,11.23,63.91Z"/><path class="cls-8" d="M11.23,53.53h23.6a1.47,1.47,0,0,0,1.47-1.47h0a1.47,1.47,0,0,0-1.47-1.48H11.23a1.48,1.48,0,0,0-1.48,1.48h0A1.48,1.48,0,0,0,11.23,53.53Z"/><path class="cls-9" d="M11.23,69h23.6a1.47,1.47,0,0,0,1.47-1.48h0a1.47,1.47,0,0,0-1.47-1.47H11.23a1.48,1.48,0,0,0-1.48,1.47h0A1.48,1.48,0,0,0,11.23,69Z"/></g></g></g></svg>