<svg xmlns="http://www.w3.org/2000/svg" xmlns:xlink="http://www.w3.org/1999/xlink" viewBox="0 0 596.24 404.63"><defs><style>.cls-1{isolation:isolate;}.cls-2{opacity:0.1;}.cls-3{fill:#5e217f;}.cls-4{fill:#fdd54d;}.cls-5{fill:url(#linear-gradient);}.cls-6{fill:url(#linear-gradient-2);}.cls-7{fill:url(#linear-gradient-3);}.cls-8{fill:url(#linear-gradient-4);}.cls-9{fill:#f1f1f1;mix-blend-mode:multiply;}.cls-10{fill:url(#linear-gradient-5);}.cls-11{fill:#f7b502;}.cls-12{fill:url(#linear-gradient-6);}.cls-13{fill:url(#linear-gradient-7);}.cls-14{fill:url(#linear-gradient-8);}.cls-15{fill:url(#linear-gradient-9);}.cls-16{fill:url(#linear-gradient-10);}.cls-17{fill:url(#linear-gradient-11);}.cls-18{fill:url(#linear-gradient-12);}.cls-19{fill:url(#linear-gradient-13);}.cls-20{fill:url(#linear-gradient-14);}.cls-21{fill:url(#linear-gradient-15);}.cls-22{fill:url(#linear-gradient-16);}.cls-23{fill:url(#linear-gradient-17);}.cls-24{fill:url(#linear-gradient-18);}.cls-25{fill:url(#linear-gradient-19);}.cls-26{fill:url(#linear-gradient-20);}.cls-27{fill:url(#linear-gradient-21);}.cls-28{fill:url(#linear-gradient-22);}.cls-29{fill:url(#linear-gradient-23);}.cls-30{fill:url(#linear-gradient-24);}.cls-31{fill:url(#linear-gradient-25);}.cls-32{fill:url(#linear-gradient-26);}.cls-33{fill:url(#linear-gradient-27);}.cls-34{fill:#f6abb0;}.cls-35{fill:#41a9fd;}.cls-36{fill:#f7b8b7;}.cls-37{fill:#410784;}.cls-38{fill:url(#linear-gradient-28);}.cls-39{fill:url(#linear-gradient-29);}.cls-40{fill:#d22780;}.cls-41{fill:url(#linear-gradient-30);}.cls-42{fill:#b56a70;}.cls-43{fill:url(#linear-gradient-31);}.cls-44{fill:url(#linear-gradient-32);}.cls-45{fill:url(#linear-gradient-33);}.cls-46{fill:url(#linear-gradient-34);}.cls-47{fill:url(#linear-gradient-35);}.cls-48{fill:url(#radial-gradient);}.cls-49{fill:url(#linear-gradient-36);}.cls-50{fill:url(#linear-gradient-37);}.cls-51{fill:url(#linear-gradient-38);}.cls-52{fill:url(#linear-gradient-39);}</style><linearGradient id="linear-gradient" x1="246.27" y1="295.09" x2="253.55" y2="295.09" gradientUnits="userSpaceOnUse"><stop offset="0" stop-color="#f6abb0"/><stop offset="0.65" stop-color="#df5591"/><stop offset="1" stop-color="#d22780"/></linearGradient><linearGradient id="linear-gradient-2" x1="169.46" y1="321.18" x2="212.08" y2="321.18" gradientUnits="userSpaceOnUse"><stop offset="0" stop-color="#f7b502"/><stop offset="0.08" stop-color="#f8ba0e"/><stop offset="0.3" stop-color="#fac62a"/><stop offset="0.52" stop-color="#fcce3d"/><stop offset="0.75" stop-color="#fdd349"/><stop offset="0.98" stop-color="#fdd54d"/></linearGradient><linearGradient id="linear-gradient-3" x1="286.96" y1="321.18" x2="329.58" y2="321.18" xlink:href="#linear-gradient-2"/><linearGradient id="linear-gradient-4" x1="248.84" y1="324.24" x2="250.98" y2="324.24" xlink:href="#linear-gradient-2"/><linearGradient id="linear-gradient-5" x1="169.44" y1="415.27" x2="169.44" y2="375.06" gradientUnits="userSpaceOnUse"><stop offset="0" stop-color="#f5d61d"/><stop offset="0.08" stop-color="#f6dc3e"/><stop offset="0.2" stop-color="#f9e571"/><stop offset="0.33" stop-color="#fbed9d"/><stop offset="0.46" stop-color="#fcf4c0"/><stop offset="0.59" stop-color="#fdf9dc"/><stop offset="0.72" stop-color="#fefcef"/><stop offset="0.85" stop-color="#fffefb"/><stop offset="0.98" stop-color="#fff"/></linearGradient><linearGradient id="linear-gradient-6" x1="146.1" y1="389.45" x2="192.15" y2="389.45" xlink:href="#linear-gradient-2"/><linearGradient id="linear-gradient-7" x1="157.46" y1="424.01" x2="180.75" y2="424.01" gradientUnits="userSpaceOnUse"><stop offset="0" stop-color="#d22780"/><stop offset="0.35" stop-color="#df5591"/><stop offset="1" stop-color="#f6abb0"/></linearGradient><linearGradient id="linear-gradient-8" x1="155.85" y1="421.67" x2="182.41" y2="421.67" xlink:href="#linear-gradient"/><linearGradient id="linear-gradient-9" x1="155.85" y1="411.29" x2="182.41" y2="411.29" xlink:href="#linear-gradient"/><linearGradient id="linear-gradient-10" x1="155.85" y1="426.78" x2="182.41" y2="426.78" xlink:href="#linear-gradient"/><linearGradient id="linear-gradient-11" x1="237.79" y1="373.62" x2="237.79" y2="186" gradientTransform="translate(138.58 -91.35) rotate(27.55)" gradientUnits="userSpaceOnUse"><stop offset="0" stop-color="#410784"/><stop offset="0.04" stop-color="#450b85"/><stop offset="0.27" stop-color="#5d278d"/><stop offset="0.51" stop-color="#6e3a93"/><stop offset="0.75" stop-color="#794696"/><stop offset="0.99" stop-color="#7c4a97"/></linearGradient><linearGradient id="linear-gradient-12" x1="318.14" y1="417.46" x2="318.14" y2="195.51" xlink:href="#linear-gradient-11"/><linearGradient id="linear-gradient-13" x1="193.18" y1="385.76" x2="193.18" y2="198.13" xlink:href="#linear-gradient-11"/><linearGradient id="linear-gradient-14" x1="250.22" y1="415.27" x2="250.22" y2="375.06" xlink:href="#linear-gradient-5"/><linearGradient id="linear-gradient-15" x1="226.89" y1="389.45" x2="272.94" y2="389.45" xlink:href="#linear-gradient-2"/><linearGradient id="linear-gradient-16" x1="238.24" y1="424.01" x2="261.54" y2="424.01" xlink:href="#linear-gradient-7"/><linearGradient id="linear-gradient-17" x1="236.64" y1="421.67" x2="263.19" y2="421.67" xlink:href="#linear-gradient"/><linearGradient id="linear-gradient-18" x1="236.64" y1="411.29" x2="263.19" y2="411.29" xlink:href="#linear-gradient"/><linearGradient id="linear-gradient-19" x1="236.64" y1="426.78" x2="263.19" y2="426.78" xlink:href="#linear-gradient"/><linearGradient id="linear-gradient-20" x1="328.25" y1="415.27" x2="328.25" y2="375.06" xlink:href="#linear-gradient-5"/><linearGradient id="linear-gradient-21" x1="304.92" y1="389.45" x2="350.96" y2="389.45" xlink:href="#linear-gradient-2"/><linearGradient id="linear-gradient-22" x1="316.27" y1="424.01" x2="339.57" y2="424.01" xlink:href="#linear-gradient-7"/><linearGradient id="linear-gradient-23" x1="314.67" y1="421.67" x2="341.22" y2="421.67" xlink:href="#linear-gradient"/><linearGradient id="linear-gradient-24" x1="314.67" y1="411.29" x2="341.22" y2="411.29" xlink:href="#linear-gradient"/><linearGradient id="linear-gradient-25" x1="314.67" y1="426.78" x2="341.22" y2="426.78" xlink:href="#linear-gradient"/><linearGradient id="linear-gradient-26" x1="89.29" y1="244.67" x2="112.52" y2="244.67" gradientUnits="userSpaceOnUse"><stop offset="0" stop-color="#410784"/><stop offset="0.22" stop-color="#450c85"/><stop offset="0.49" stop-color="#521b8a"/><stop offset="0.78" stop-color="#683390"/><stop offset="0.99" stop-color="#7c4a97"/></linearGradient><linearGradient id="linear-gradient-27" x1="65.87" y1="269.84" x2="104.55" y2="269.84" xlink:href="#linear-gradient-26"/><linearGradient id="linear-gradient-28" x1="78.15" y1="352.2" x2="117.11" y2="352.2" xlink:href="#linear-gradient-26"/><linearGradient id="linear-gradient-29" x1="86.24" y1="295.82" x2="124.69" y2="295.82" xlink:href="#linear-gradient-2"/><linearGradient id="linear-gradient-30" x1="73.84" y1="243.51" x2="100.86" y2="243.51" xlink:href="#linear-gradient-26"/><linearGradient id="linear-gradient-31" x1="380.86" y1="367.6" x2="324.69" y2="320.68" xlink:href="#linear-gradient-26"/><linearGradient id="linear-gradient-32" x1="386.21" y1="417.77" x2="434.71" y2="417.77" gradientTransform="matrix(1, 0, 0, 1, 0, 0)" xlink:href="#linear-gradient-11"/><linearGradient id="linear-gradient-33" x1="360.25" y1="407.92" x2="410.37" y2="407.92" gradientTransform="matrix(1, 0, 0, 1, 0, 0)" xlink:href="#linear-gradient-11"/><linearGradient id="linear-gradient-34" x1="429.08" y1="354.31" x2="353.83" y2="375.95" xlink:href="#linear-gradient"/><linearGradient id="linear-gradient-35" x1="242.72" y1="74.81" x2="205.71" y2="-6.47" xlink:href="#linear-gradient-2"/><radialGradient id="radial-gradient" cx="249.26" cy="175.41" r="72.38" gradientUnits="userSpaceOnUse"><stop offset="0" stop-color="#fff"/><stop offset="0.14" stop-color="#fffefb"/><stop offset="0.27" stop-color="#fefcef"/><stop offset="0.4" stop-color="#fdf9dc"/><stop offset="0.53" stop-color="#fcf4c0"/><stop offset="0.66" stop-color="#fbed9d"/><stop offset="0.79" stop-color="#f9e571"/><stop offset="0.92" stop-color="#f6dc3e"/><stop offset="1" stop-color="#f5d61d"/></radialGradient><linearGradient id="linear-gradient-36" x1="248.67" y1="247.95" x2="248.67" y2="342.51" xlink:href="#linear-gradient-7"/><linearGradient id="linear-gradient-37" x1="212.84" y1="265.88" x2="284.37" y2="265.88" xlink:href="#linear-gradient"/><linearGradient id="linear-gradient-38" x1="212.84" y1="249.36" x2="284.37" y2="249.36" xlink:href="#linear-gradient"/><linearGradient id="linear-gradient-39" x1="212.84" y1="284.59" x2="284.37" y2="284.59" xlink:href="#linear-gradient"/></defs><title>2156674-3</title><g class="cls-1"><g id="BACKGROUND"><g class="cls-2"><path class="cls-3" d="M433.42,178.15a108.3,108.3,0,0,0-77.15-84.29c-23.24-6.59-47.74-5.21-71.42-2.13a415.52,415.52,0,0,1-68.76,3.42c-22.46-.8-45.22-1.48-67.13,3.53-21.6,4.94-43.54,16.32-55.83,35.43-13.34,20.76-9,48.33,1.74,69.16,8.48,16.41,19.23,32.48,17.53,51.82a267.12,267.12,0,0,1-3.89,27.6c-3.55,18.26-3.85,37.49,1,55.52,4.39,16.17,13,31.33,25.59,42.44,24.49,21.68,64,29.27,95.86,28.73,29.11-.5,58.13-14,76.58-36.69,11.43-14,18.31-31,28.25-46,16.79-25.35,43.65-32.38,66.28-50.52C430.88,253.08,440.44,213.25,433.42,178.15Z" transform="translate(-28.79 -43.07)"/><path class="cls-3" d="M107.36,84.45a20.42,20.42,0,0,0-1-3.44l3.33-2.74-8.06-9.79-3.42,2.81A20,20,0,0,0,90,68.41L89.09,64,76.66,66.55l.89,4.37a20.19,20.19,0,0,0-5.81,5l-4.18-1.48-4.25,12,4.08,1.45a19.68,19.68,0,0,0,.39,4.62,21.37,21.37,0,0,0,.89,3.11l-3.28,2.7,8.06,9.79,3.2-2.63a20.24,20.24,0,0,0,8.51,3.07l.81,4L98.4,110l-.81-4a20,20,0,0,0,6-5.28l3.9,1.39,4.24-11.95-4-1.42A20.19,20.19,0,0,0,107.36,84.45Zm-18,13.12a9.48,9.48,0,1,1,7.42-11.18A9.49,9.49,0,0,1,89.41,97.57Z" transform="translate(-28.79 -43.07)"/><path class="cls-3" d="M138,73.53a11.78,11.78,0,0,0-.61-2.07l2-1.64L134.58,64l-2.05,1.68a12.15,12.15,0,0,0-4.93-1.72l-.53-2.63-7.45,1.51.53,2.63a12,12,0,0,0-3.49,3l-2.5-.89-2.55,7.17,2.44.86a12.46,12.46,0,0,0,.24,2.77,12.58,12.58,0,0,0,.53,1.87l-2,1.62,4.83,5.87,1.92-1.58a12.05,12.05,0,0,0,5.1,1.84l.49,2.4,7.45-1.51-.49-2.4a11.94,11.94,0,0,0,3.61-3.16l2.34.83,2.55-7.17-2.4-.85A11.8,11.8,0,0,0,138,73.53ZM127.26,81.4a5.69,5.69,0,1,1,4.45-6.71A5.7,5.7,0,0,1,127.26,81.4Z" transform="translate(-28.79 -43.07)"/><path class="cls-3" d="M83.14,133.35a11.93,11.93,0,0,0-.61-2.06l2-1.64-4.84-5.87-2,1.68a12.27,12.27,0,0,0-4.92-1.73l-.53-2.62-7.46,1.51.53,2.62a12.29,12.29,0,0,0-3.48,3l-2.51-.89-2.54,7.16,2.44.87a12.46,12.46,0,0,0,.24,2.77,12.93,12.93,0,0,0,.53,1.87l-2,1.61,4.83,5.87,1.92-1.57a12.05,12.05,0,0,0,5.1,1.84l.48,2.4,7.46-1.51-.49-2.4a12,12,0,0,0,3.61-3.17l2.34.83,2.54-7.16-2.39-.85A11.89,11.89,0,0,0,83.14,133.35Zm-10.76,7.88a5.7,5.7,0,1,1,4.45-6.71A5.7,5.7,0,0,1,72.38,141.23Z" transform="translate(-28.79 -43.07)"/><path class="cls-3" d="M388.91,338.49a17.82,17.82,0,0,0-3,.57l-2-3.1-9.09,6,2.09,3.17a17.33,17.33,0,0,0-3.2,6.75l-3.82.36,1,10.83,3.82-.35a17.35,17.35,0,0,0,3.74,5.41l-1.64,3.43,9.81,4.71,1.61-3.35a17.51,17.51,0,0,0,4,.08,16.52,16.52,0,0,0,2.74-.48l2,3,9.09-6-2-3a17.23,17.23,0,0,0,3.39-7l3.5-.33-1-10.83-3.49.33a17.22,17.22,0,0,0-3.95-5.62L404,340l-9.81-4.71-1.57,3.28A18.16,18.16,0,0,0,388.91,338.49ZM398.48,355a8.14,8.14,0,1,1-8.87-7.34A8.14,8.14,0,0,1,398.48,355Z" transform="translate(-28.79 -43.07)"/><path class="cls-3" d="M424.18,289.63a23.46,23.46,0,0,0-4.14.77l-2.79-4.24-12.45,8.2,2.87,4.35a23.58,23.58,0,0,0-4.39,9.24l-5.23.49,1.4,14.84,5.23-.49a23.43,23.43,0,0,0,5.13,7.41l-2.26,4.7L421,341.35l2.2-4.59a23.48,23.48,0,0,0,5.44.12,23,23,0,0,0,3.75-.66l2.75,4.17,12.44-8.2-2.67-4.06a23.8,23.8,0,0,0,4.64-9.57l4.78-.45-1.39-14.84-4.79.45a23.53,23.53,0,0,0-5.42-7.69l2.11-4.38-13.44-6.45-2.16,4.49A24.29,24.29,0,0,0,424.18,289.63Zm13.11,22.6a11.15,11.15,0,1,1-12.15-10.05A11.16,11.16,0,0,1,437.29,312.23Z" transform="translate(-28.79 -43.07)"/><path class="cls-3" d="M376.94,306.63a11.23,11.23,0,0,0-2.11.39l-1.43-2.16L367.05,309l1.46,2.22a12.22,12.22,0,0,0-2.24,4.71l-2.66.25.71,7.57,2.67-.25a12.1,12.1,0,0,0,2.61,3.79l-1.15,2.39,6.86,3.29,1.12-2.34a12.27,12.27,0,0,0,4.69-.27l1.4,2.12,6.35-4.18-1.36-2.07a12.28,12.28,0,0,0,2.37-4.88l2.44-.23-.72-7.57-2.44.23a12,12,0,0,0-2.76-3.93l1.07-2.23-6.86-3.29-1.09,2.29A11.69,11.69,0,0,0,376.94,306.63Zm6.69,11.53a5.69,5.69,0,1,1-6.2-5.14A5.68,5.68,0,0,1,383.63,318.16Z" transform="translate(-28.79 -43.07)"/><path class="cls-3" d="M48,255.46a10.19,10.19,0,0,0,3.49,4.74,1,1,0,0,1-.25,1.77,10.16,10.16,0,0,0-4.68,3.57,1,1,0,0,1-1.8-.26,10.11,10.11,0,0,0-3.49-4.73,1,1,0,0,1,.25-1.78,10.16,10.16,0,0,0,4.68-3.57A1,1,0,0,1,48,255.46Z" transform="translate(-28.79 -43.07)"/><path class="cls-3" d="M35.93,231.82a10.19,10.19,0,0,0,3.49,4.74,1,1,0,0,1-.26,1.77,10.18,10.18,0,0,0-4.67,3.57,1,1,0,0,1-1.8-.26,10.28,10.28,0,0,0-3.5-4.74,1,1,0,0,1,.25-1.77,10.23,10.23,0,0,0,4.69-3.57A1,1,0,0,1,35.93,231.82Z" transform="translate(-28.79 -43.07)"/><path class="cls-3" d="M44.09,208.49a10.19,10.19,0,0,0,3.48,4.74,1,1,0,0,1-.25,1.77,10.18,10.18,0,0,0-4.67,3.57,1,1,0,0,1-1.81-.25,10.09,10.09,0,0,0-3.49-4.74,1,1,0,0,1,.25-1.78,10.23,10.23,0,0,0,4.69-3.57A1,1,0,0,1,44.09,208.49Z" transform="translate(-28.79 -43.07)"/><path class="cls-3" d="M469.81,222a10.07,10.07,0,0,0,3.48,4.74,1,1,0,0,1-.25,1.78,10.24,10.24,0,0,0-4.68,3.56,1,1,0,0,1-1.8-.25,10.19,10.19,0,0,0-3.49-4.74,1,1,0,0,1,.25-1.77,10.16,10.16,0,0,0,4.68-3.57A1,1,0,0,1,469.81,222Z" transform="translate(-28.79 -43.07)"/><path class="cls-3" d="M444.4,240.07a10.19,10.19,0,0,0,3.49,4.74,1,1,0,0,1-.25,1.77,10.16,10.16,0,0,0-4.68,3.57,1,1,0,0,1-1.8-.26,10.21,10.21,0,0,0-3.5-4.74,1,1,0,0,1,.26-1.77,10.21,10.21,0,0,0,4.68-3.57A1,1,0,0,1,444.4,240.07Z" transform="translate(-28.79 -43.07)"/><path class="cls-3" d="M454.65,197.81a10.1,10.1,0,0,0,3.48,4.74,1,1,0,0,1-.25,1.77,10.21,10.21,0,0,0-4.68,3.57,1,1,0,0,1-1.8-.26,10.19,10.19,0,0,0-3.49-4.74,1,1,0,0,1,.25-1.77,10.16,10.16,0,0,0,4.68-3.57A1,1,0,0,1,454.65,197.81Z" transform="translate(-28.79 -43.07)"/></g></g><g id="OBJECTS"><path class="cls-4" d="M85.21,264.26" transform="translate(-28.79 -43.07)"/><text x="-28.79" y="-43.07"/><text x="-28.79" y="-43.07"/><path class="cls-5" d="M253.55,295.09a3.64,3.64,0,1,1-3.64-3.64A3.64,3.64,0,0,1,253.55,295.09Z" transform="translate(-28.79 -43.07)"/><path class="cls-6" d="M170.53,352.33h-.13a1.08,1.08,0,0,1-.94-1.19c.21-1.8.46-3.6.72-5.34a1.07,1.07,0,1,1,2.12.33c-.26,1.71-.5,3.48-.71,5.26A1.07,1.07,0,0,1,170.53,352.33Zm1.64-10.58a.75.75,0,0,1-.21,0,1.07,1.07,0,0,1-.84-1.26c.36-1.78.75-3.56,1.18-5.27a1.07,1.07,0,1,1,2.08.52c-.42,1.68-.81,3.42-1.16,5.17A1.07,1.07,0,0,1,172.17,341.75Zm2.61-10.37a1.19,1.19,0,0,1-.32-.05,1.06,1.06,0,0,1-.7-1.34c.54-1.76,1.13-3.48,1.76-5.12a1.05,1.05,0,0,1,1.38-.62,1.07,1.07,0,0,1,.62,1.38c-.61,1.6-1.19,3.28-1.72,5A1.07,1.07,0,0,1,174.78,331.38Zm3.81-10a1.17,1.17,0,0,1-.45-.09,1.07,1.07,0,0,1-.52-1.43c.77-1.66,1.6-3.29,2.47-4.83a1.07,1.07,0,1,1,1.87,1.05c-.84,1.49-1.65,3.07-2.4,4.68A1.07,1.07,0,0,1,178.59,321.38Zm5.27-9.3a1.07,1.07,0,0,1-.61-.19,1.05,1.05,0,0,1-.27-1.48,53.76,53.76,0,0,1,3.3-4.34,1.07,1.07,0,0,1,1.64,1.38,51.41,51.41,0,0,0-3.18,4.17A1.07,1.07,0,0,1,183.86,312.08Zm6.9-8.15a1.06,1.06,0,0,1-.77-.33,1.07,1.07,0,0,1,0-1.51,51.52,51.52,0,0,1,4.14-3.56,1.08,1.08,0,0,1,1.51.2,1.07,1.07,0,0,1-.2,1.5,47.33,47.33,0,0,0-4,3.41A1,1,0,0,1,190.76,303.93Zm8.47-6.5a1.1,1.1,0,0,1-.92-.52,1.08,1.08,0,0,1,.36-1.47,54,54,0,0,1,4.81-2.58,1.07,1.07,0,0,1,.92,1.94,50.66,50.66,0,0,0-4.61,2.47A1.06,1.06,0,0,1,199.23,297.43Zm9.66-4.56a1.07,1.07,0,0,1-.36-2.08q1.07-.37,2.16-.72a1.07,1.07,0,0,1,.63,2.05q-1,.33-2.07.69A1.13,1.13,0,0,1,208.89,292.87Z" transform="translate(-28.79 -43.07)"/><path class="cls-7" d="M328.51,352.33a1.07,1.07,0,0,1-1.06-.95c-.21-1.78-.44-3.55-.71-5.26a1.07,1.07,0,1,1,2.12-.33c.27,1.74.51,3.54.72,5.34a1.08,1.08,0,0,1-.94,1.19Zm-1.64-10.58a1.07,1.07,0,0,1-1.05-.86c-.35-1.75-.74-3.49-1.16-5.17a1.07,1.07,0,1,1,2.08-.52c.43,1.71.82,3.49,1.18,5.27a1.07,1.07,0,0,1-.84,1.26A.75.75,0,0,1,326.87,341.75Zm-2.61-10.37a1.07,1.07,0,0,1-1-.76c-.53-1.71-1.11-3.39-1.72-5a1.07,1.07,0,0,1,.62-1.38,1.05,1.05,0,0,1,1.38.62c.63,1.64,1.22,3.36,1.76,5.12a1.06,1.06,0,0,1-.7,1.34A1.19,1.19,0,0,1,324.26,331.38Zm-3.81-10a1.07,1.07,0,0,1-1-.62c-.75-1.61-1.56-3.19-2.4-4.68A1.07,1.07,0,0,1,319,315c.87,1.54,1.7,3.17,2.47,4.83a1.07,1.07,0,0,1-.52,1.43A1.17,1.17,0,0,1,320.45,321.38Zm-5.27-9.3a1.07,1.07,0,0,1-.88-.46,51.41,51.41,0,0,0-3.18-4.17,1.07,1.07,0,1,1,1.64-1.38,53.76,53.76,0,0,1,3.3,4.34,1.07,1.07,0,0,1-.88,1.67Zm-6.9-8.15a1,1,0,0,1-.74-.29,47.33,47.33,0,0,0-4-3.41,1.07,1.07,0,0,1-.2-1.5,1.08,1.08,0,0,1,1.51-.2,51.52,51.52,0,0,1,4.14,3.56,1.07,1.07,0,0,1-.74,1.84Zm-8.47-6.5a1,1,0,0,1-.55-.16,52.21,52.21,0,0,0-4.62-2.47,1.07,1.07,0,1,1,.92-1.94,54,54,0,0,1,4.81,2.58,1.08,1.08,0,0,1,.36,1.47A1.1,1.1,0,0,1,299.81,297.43Zm-9.66-4.56a1.13,1.13,0,0,1-.36-.06q-1-.36-2.07-.69a1.07,1.07,0,0,1,.63-2.05q1.09.35,2.16.72a1.07,1.07,0,0,1-.36,2.08Z" transform="translate(-28.79 -43.07)"/><path class="cls-8" d="M249.91,354.75a1.07,1.07,0,0,1-1.07-1.07v-5.35a1.07,1.07,0,0,1,2.14,0v5.35A1.07,1.07,0,0,1,249.91,354.75Zm0-10.7a1.07,1.07,0,0,1-1.07-1.07v-5.36a1.07,1.07,0,0,1,2.14,0V343A1.07,1.07,0,0,1,249.91,344.05Zm0-10.71a1.07,1.07,0,0,1-1.07-1.07v-5.35a1.07,1.07,0,1,1,2.14,0v5.35A1.07,1.07,0,0,1,249.91,333.34Zm0-10.71a1.06,1.06,0,0,1-1.07-1.07v-5.35a1.07,1.07,0,1,1,2.14,0v5.35A1.06,1.06,0,0,1,249.91,322.63Zm0-10.7a1.07,1.07,0,0,1-1.07-1.07v-5.35a1.07,1.07,0,0,1,2.14,0v5.35A1.07,1.07,0,0,1,249.91,311.93Zm0-10.71a1.07,1.07,0,0,1-1.07-1.07V294.8a1.07,1.07,0,0,1,2.14,0v5.35A1.07,1.07,0,0,1,249.91,301.22Z" transform="translate(-28.79 -43.07)"/></g><g id="Layer_5" data-name="Layer 5"><ellipse class="cls-9" cx="140.32" cy="398.97" rx="22.89" ry="3.48"/><path class="cls-10" d="M190.71,383.18a21.53,21.53,0,0,1-8,16.67A7.41,7.41,0,0,0,180,405.6v2a10.4,10.4,0,0,1-3.45,7.78H161.7l-.26-.23a10.37,10.37,0,0,1-3.18-7.55v-2a7.44,7.44,0,0,0-2.74-5.78,21.5,21.5,0,0,1-7.36-11.77q.94.48,1.86.9c7.93,3.55,14.65,3.34,19.27-3.46,0,0,10.54-12.82,18.78-8.17a8.69,8.69,0,0,1,2.26,1.81A20.83,20.83,0,0,1,190.71,383.18Z" transform="translate(-28.79 -43.07)"/><path class="cls-11" d="M165,388h-1.89a2.72,2.72,0,0,1,0-5.44h.14a2.68,2.68,0,0,1,2.63,2.72v1.84h6.84v-1.84a2.68,2.68,0,0,1,2.63-2.72h.11a2.72,2.72,0,0,1,0,5.44h-1.86v28.23h-.88V388h-6.84v28.67H165Zm0-2.72a1.79,1.79,0,0,0-1.75-1.84h-.14a1.84,1.84,0,0,0,0,3.68H165Zm10.35-1.84a1.79,1.79,0,0,0-1.75,1.84v1.84h1.86a1.84,1.84,0,0,0,0-3.68Z" transform="translate(-28.79 -43.07)"/><path class="cls-12" d="M191.75,378a23,23,0,0,0-45.65,4.25,21.73,21.73,0,0,0,.62,5.27,23,23,0,0,0,7.86,12.57,8,8,0,0,1,2.92,6.17v2.11a11.06,11.06,0,0,0,3.4,8.05,3.15,3.15,0,0,0,.28.25,12,12,0,0,0,15.89,0,11.07,11.07,0,0,0,3.69-8.3v-2.11a7.86,7.86,0,0,1,2.87-6.13,23,23,0,0,0,8.52-17.8A22,22,0,0,0,191.75,378Zm-9.26,21.55a7.58,7.58,0,0,0-2.65,5.82v2a10.53,10.53,0,0,1-5.39,9.31,10.93,10.93,0,0,1-10.63,0,9.79,9.79,0,0,1-2.25-1.68,10.61,10.61,0,0,1-3.14-7.63v-2a7.62,7.62,0,0,0-2.69-5.85,22,22,0,0,1-7.81-16.88c0-12.22,9.77-22.08,21.71-21.79a21.41,21.41,0,0,1,19.7,15.21,22.26,22.26,0,0,1,1,6.65A22,22,0,0,1,182.49,399.55Z" transform="translate(-28.79 -43.07)"/><path class="cls-13" d="M169.11,437.68h0A11.65,11.65,0,0,0,180.75,426V410.34H157.46V426A11.65,11.65,0,0,0,169.11,437.68Z" transform="translate(-28.79 -43.07)"/><path class="cls-14" d="M157.33,423.15h23.6a1.49,1.49,0,0,0,1.48-1.48h0a1.49,1.49,0,0,0-1.48-1.48h-23.6a1.49,1.49,0,0,0-1.48,1.48h0A1.49,1.49,0,0,0,157.33,423.15Z" transform="translate(-28.79 -43.07)"/><path class="cls-15" d="M157.33,412.76h23.6a1.48,1.48,0,0,0,1.48-1.47h0a1.49,1.49,0,0,0-1.48-1.48h-23.6a1.49,1.49,0,0,0-1.48,1.48h0A1.48,1.48,0,0,0,157.33,412.76Z" transform="translate(-28.79 -43.07)"/><path class="cls-16" d="M157.33,428.25h23.6a1.48,1.48,0,0,0,1.48-1.47h0a1.49,1.49,0,0,0-1.48-1.48h-23.6a1.49,1.49,0,0,0-1.48,1.48h0A1.48,1.48,0,0,0,157.33,428.25Z" transform="translate(-28.79 -43.07)"/></g><g id="Layer_4" data-name="Layer 4"><path class="cls-17" d="M217.06,258.66a32.9,32.9,0,0,0-5.7-1.09l-1.47-6.83-20.08,4.31,1.5,7a32.82,32.82,0,0,0-10.25,9.67l-6.95-2-5.63,19.76,7,2a32.53,32.53,0,0,0,2.88,12.08l-5.24,4.91,14,15,5.12-4.78a32.71,32.71,0,0,0,6.93,2.87,34.65,34.65,0,0,0,5.14,1l1.45,6.72L225.82,325l-1.4-6.56a32.62,32.62,0,0,0,10.74-9.95l6.37,1.81,5.62-19.75-6.37-1.82a32.48,32.48,0,0,0-3.11-12.59l4.89-4.57-14-15-5,4.69A33,33,0,0,0,217.06,258.66Zm5.53,35.57a15.36,15.36,0,1,1-10.57-19A15.36,15.36,0,0,1,222.59,294.23Z" transform="translate(-28.79 -43.07)"/><path class="cls-18" d="M327.13,212.93a52.85,52.85,0,0,0-9.25-1.75l-2.37-11.08-32.53,7,2.43,11.35a53.19,53.19,0,0,0-16.61,15.68l-11.27-3.21-9.11,32,11.27,3.2a52.66,52.66,0,0,0,4.67,19.58l-8.5,7.95L278.6,318l8.29-7.75a53.4,53.4,0,0,0,11.23,4.65,54.61,54.61,0,0,0,8.33,1.67l2.34,10.88,32.54-7-2.28-10.62a52.88,52.88,0,0,0,17.4-16.13l10.32,2.94,9.11-32-10.32-2.94a52.67,52.67,0,0,0-5-20.39l7.92-7.42L345.7,209.56l-8.11,7.59A53.47,53.47,0,0,0,327.13,212.93Zm9,57.64A24.89,24.89,0,1,1,319,239.82,24.89,24.89,0,0,1,336.09,270.57Z" transform="translate(-28.79 -43.07)"/><path class="cls-19" d="M200.09,198.84a23.34,23.34,0,0,0-4-.75l-1-4.78-14,3,1,4.9a22.89,22.89,0,0,0-7.17,6.76l-4.86-1.38-3.93,13.8,4.86,1.39a22.72,22.72,0,0,0,2,8.44l-3.67,3.43,9.81,10.48,3.58-3.35a22.53,22.53,0,0,0,4.84,2,22.82,22.82,0,0,0,3.59.72l1,4.7,14-3-1-4.58a22.87,22.87,0,0,0,7.51-7l4.45,1.26,3.93-13.8-4.45-1.27a22.87,22.87,0,0,0-2.18-8.8l3.42-3.19-9.81-10.48-3.5,3.27A23.25,23.25,0,0,0,200.09,198.84Zm4.26,22.78a10.75,10.75,0,1,1-5.82-10.43A10.76,10.76,0,0,1,204.35,221.62Z" transform="translate(-28.79 -43.07)"/></g><g id="Layer_6" data-name="Layer 6"><ellipse class="cls-9" cx="221.11" cy="398.97" rx="22.89" ry="3.48"/><path class="cls-20" d="M271.49,383.18a21.49,21.49,0,0,1-8,16.67,7.38,7.38,0,0,0-2.7,5.75v2a10.39,10.39,0,0,1-3.44,7.78H242.49l-.26-.23a10.38,10.38,0,0,1-3.19-7.55v-2a7.46,7.46,0,0,0-2.73-5.78A21.5,21.5,0,0,1,229,388.05c.62.32,1.24.62,1.85.9,7.94,3.55,14.66,3.34,19.28-3.46,0,0,10.54-12.82,18.78-8.17a8.86,8.86,0,0,1,2.26,1.81A20.83,20.83,0,0,1,271.49,383.18Z" transform="translate(-28.79 -43.07)"/><path class="cls-11" d="M245.75,388h-1.9a2.72,2.72,0,0,1,0-5.44H244a2.68,2.68,0,0,1,2.63,2.72v1.84h6.83v-1.84a2.68,2.68,0,0,1,2.63-2.72h.12a2.72,2.72,0,0,1,0,5.44h-1.87v28.23h-.88V388h-6.83v28.67h-.87Zm0-2.72a1.8,1.8,0,0,0-1.75-1.84h-.15a1.84,1.84,0,0,0,0,3.68h1.9Zm10.34-1.84a1.8,1.8,0,0,0-1.75,1.84v1.84h1.87a1.84,1.84,0,0,0,0-3.68Z" transform="translate(-28.79 -43.07)"/><path class="cls-21" d="M272.53,378a23,23,0,0,0-45.64,4.25,21.73,21.73,0,0,0,.62,5.27,23,23,0,0,0,7.85,12.57,7.92,7.92,0,0,1,2.92,6.17v2.11a11,11,0,0,0,3.41,8.05,3.08,3.08,0,0,0,.27.25,12,12,0,0,0,15.9,0,11.06,11.06,0,0,0,3.68-8.3v-2.11a7.86,7.86,0,0,1,2.88-6.13,23,23,0,0,0,8.52-17.8A22,22,0,0,0,272.53,378Zm-9.26,21.55a7.57,7.57,0,0,0-2.64,5.82v2a10.52,10.52,0,0,1-5.4,9.31,10.91,10.91,0,0,1-10.62,0,9.84,9.84,0,0,1-2.26-1.68,10.65,10.65,0,0,1-3.14-7.63v-2a7.62,7.62,0,0,0-2.69-5.85,22.1,22.1,0,0,1-7.81-16.88c0-12.22,9.78-22.08,21.71-21.79a21.4,21.4,0,0,1,19.7,15.21,22.21,22.21,0,0,1-6.85,23.49Z" transform="translate(-28.79 -43.07)"/><path class="cls-22" d="M249.89,437.68h0A11.66,11.66,0,0,0,261.54,426V410.34h-23.3V426A11.66,11.66,0,0,0,249.89,437.68Z" transform="translate(-28.79 -43.07)"/><path class="cls-23" d="M238.11,423.15h23.61a1.48,1.48,0,0,0,1.47-1.48h0a1.48,1.48,0,0,0-1.47-1.48H238.11a1.48,1.48,0,0,0-1.47,1.48h0A1.48,1.48,0,0,0,238.11,423.15Z" transform="translate(-28.79 -43.07)"/><path class="cls-24" d="M238.11,412.76h23.61a1.47,1.47,0,0,0,1.47-1.47h0a1.48,1.48,0,0,0-1.47-1.48H238.11a1.48,1.48,0,0,0-1.47,1.48h0A1.47,1.47,0,0,0,238.11,412.76Z" transform="translate(-28.79 -43.07)"/><path class="cls-25" d="M238.11,428.25h23.61a1.47,1.47,0,0,0,1.47-1.47h0a1.48,1.48,0,0,0-1.47-1.48H238.11a1.48,1.48,0,0,0-1.47,1.48h0A1.47,1.47,0,0,0,238.11,428.25Z" transform="translate(-28.79 -43.07)"/></g><g id="Layer_7" data-name="Layer 7"><ellipse class="cls-9" cx="299.14" cy="398.97" rx="22.89" ry="3.48"/><path class="cls-26" d="M349.52,383.18a21.53,21.53,0,0,1-8,16.67,7.41,7.41,0,0,0-2.69,5.75v2a10.36,10.36,0,0,1-3.45,7.78H320.52l-.26-.23a10.38,10.38,0,0,1-3.19-7.55v-2a7.44,7.44,0,0,0-2.74-5.78A21.48,21.48,0,0,1,307,388.05c.62.32,1.24.62,1.85.9,7.94,3.55,14.65,3.34,19.27-3.46,0,0,10.55-12.82,18.79-8.17a8.86,8.86,0,0,1,2.26,1.81A20.83,20.83,0,0,1,349.52,383.18Z" transform="translate(-28.79 -43.07)"/><path class="cls-11" d="M323.77,388h-1.89a2.72,2.72,0,0,1,0-5.44H322a2.69,2.69,0,0,1,2.64,2.72v1.84h6.83v-1.84a2.68,2.68,0,0,1,2.63-2.72h.12a2.72,2.72,0,0,1,0,5.44h-1.87v28.23h-.88V388h-6.83v28.67h-.88Zm0-2.72a1.79,1.79,0,0,0-1.75-1.84h-.14a1.84,1.84,0,0,0,0,3.68h1.89Zm10.35-1.84a1.79,1.79,0,0,0-1.75,1.84v1.84h1.87a1.84,1.84,0,0,0,0-3.68Z" transform="translate(-28.79 -43.07)"/><path class="cls-27" d="M350.56,378a23,23,0,0,0-45.64,4.25,22.23,22.23,0,0,0,.61,5.27,23,23,0,0,0,7.86,12.57,8,8,0,0,1,2.92,6.17v2.11a11.06,11.06,0,0,0,3.4,8.05c.1.1.19.17.28.25a12,12,0,0,0,15.9,0,11.06,11.06,0,0,0,3.68-8.3v-2.11a7.86,7.86,0,0,1,2.87-6.13,23,23,0,0,0,8.52-17.8A22,22,0,0,0,350.56,378Zm-9.26,21.55a7.57,7.57,0,0,0-2.64,5.82v2a10.52,10.52,0,0,1-5.4,9.31,10.91,10.91,0,0,1-10.62,0,9.63,9.63,0,0,1-2.26-1.68,10.65,10.65,0,0,1-3.14-7.63v-2a7.62,7.62,0,0,0-2.69-5.85,22,22,0,0,1-7.81-16.88c0-12.22,9.77-22.08,21.71-21.79a21.4,21.4,0,0,1,19.7,15.21,22.21,22.21,0,0,1-6.85,23.49Z" transform="translate(-28.79 -43.07)"/><path class="cls-28" d="M327.92,437.68h0A11.66,11.66,0,0,0,339.57,426V410.34h-23.3V426A11.65,11.65,0,0,0,327.92,437.68Z" transform="translate(-28.79 -43.07)"/><path class="cls-29" d="M316.14,423.15h23.6a1.49,1.49,0,0,0,1.48-1.48h0a1.49,1.49,0,0,0-1.48-1.48h-23.6a1.48,1.48,0,0,0-1.47,1.48h0A1.48,1.48,0,0,0,316.14,423.15Z" transform="translate(-28.79 -43.07)"/><path class="cls-30" d="M316.14,412.76h23.6a1.48,1.48,0,0,0,1.48-1.47h0a1.49,1.49,0,0,0-1.48-1.48h-23.6a1.48,1.48,0,0,0-1.47,1.48h0A1.47,1.47,0,0,0,316.14,412.76Z" transform="translate(-28.79 -43.07)"/><path class="cls-31" d="M316.14,428.25h23.6a1.48,1.48,0,0,0,1.48-1.47h0a1.49,1.49,0,0,0-1.48-1.48h-23.6a1.48,1.48,0,0,0-1.47,1.48h0A1.47,1.47,0,0,0,316.14,428.25Z" transform="translate(-28.79 -43.07)"/></g><g id="Layer_8" data-name="Layer 8"><path class="cls-32" d="M112.52,250.66c-5.1,0-7.84-3.58-9.89-7.2a54.38,54.38,0,0,1-1.54-7.38,6.74,6.74,0,0,0-8.34-5.38l-3.46.9a127.55,127.55,0,0,0,1.48,15.12c.84,4.12,2.54,9.63,7.75,10.54a89.69,89.69,0,0,0,11.07,1.6c-2.4-.87-4.27-3.76-5.53-5.66C106.7,252.2,110.17,252.58,112.52,250.66Z" transform="translate(-28.79 -43.07)"/><ellipse class="cls-9" cx="64.98" cy="400.04" rx="37.89" ry="4.59"/><path class="cls-33" d="M103.9,251.59c-1.79-6.82-7-11.32-14-11.35a13.81,13.81,0,0,0-8.2,2.86,5.73,5.73,0,0,0-2.36,2.65,20.75,20.75,0,0,1-1.53,2.9l-.27-1.6c.12,1.81-1.75,4.48-2.61,5.91-1.88,3.13-3.76,6.2-5.49,9.42a28.38,28.38,0,0,0-3.53,12.85c-.15,3.07.51,6.48,2.75,8.78,2.64,2.72,6.31,3.9,9.31,6,1.56,1.11,3,2.07,3.24,4.15a5.22,5.22,0,0,1-.08,1.93c-.36,1.24-1.3,1.25-1.89,2.06,3.63,2.92,9.51.09,12.86-1.8,4.11-2.31,8.26-5.79,9.57-10.6,1.17-4.33,1.57-9.21,2.16-13.67.38-2.92.39-6,.51-8.92C104.47,259.26,104.92,255.47,103.9,251.59Z" transform="translate(-28.79 -43.07)"/><path class="cls-34" d="M90.36,265.79l.57-.9A7.32,7.32,0,0,1,94,262.28l.61-.23c1.18-.39,2.42-.83,3.71-1.3l0,0c10.14-3.71,23.12-9.42,27.8-11.52l1.79-.81s.37-.71,1-2c2.53-5.17,9.19-19.36,10.38-27.86a56,56,0,0,1-.57-10.45c.9-2.19,1.86,0,2.85,4.33l1.69-7.56a2.58,2.58,0,0,1,4.69-.84c2.32,3.78-1,11.9-3.81,15.83-1,10.67-7.84,26.59-9.88,31.16a.78.78,0,0,1-.11.2h0a14,14,0,0,1-5,6.34c-4.48,3.1-12.36,8.49-18.22,12.14a67.52,67.52,0,0,1-10.92,5.7,11.31,11.31,0,0,1-5.6.37A6.56,6.56,0,0,1,90.36,265.79Z" transform="translate(-28.79 -43.07)"/><path class="cls-35" d="M111.35,327.93v0Z" transform="translate(-28.79 -43.07)"/><path class="cls-4" d="M82.89,262.8" transform="translate(-28.79 -43.07)"/><path class="cls-34" d="M99.65,271.49c-8.68-.81-13.69-7-15.74-10.42l1.44-2.41A24.63,24.63,0,0,0,87.52,254l1.56-4.59,6.26,2.7a9.64,9.64,0,0,0,.23,7,5.08,5.08,0,0,0,2.33,2.57l0,0,2.43,1.14C106.41,270.72,99.65,271.49,99.65,271.49Z" transform="translate(-28.79 -43.07)"/><path class="cls-36" d="M81.59,248.31c-1.14-1.58-1.63-4.09-.22-4.83A2.62,2.62,0,0,1,83,243.3c-1-5.44.36-12.54,3.87-14.38,4.6-2.42,9.71-1.8,15.62,10.24,2.34,4.76,1.19,11.3-3.15,14.08-3.25,2.1-9,0-12.55-3.14C85,250.31,83,250.32,81.59,248.31Z" transform="translate(-28.79 -43.07)"/><path class="cls-37" d="M98.82,243.89l.07,0c.52-.32,1.19-.8,1-1.36-.22-.77-2-.85-2.7-.86a.3.3,0,0,0-.29.29.29.29,0,0,0,.29.28c1,0,2.09.22,2.15.44,0,0,0,.23-.78.72a.28.28,0,0,0-.1.39A.28.28,0,0,0,98.82,243.89Z" transform="translate(-28.79 -43.07)"/><path class="cls-37" d="M99.61,247.27a2.94,2.94,0,0,0,.48-.23.32.32,0,0,0-.32-.56c-.14.09-3.52,2-5.83-1.12a.32.32,0,0,0-.45-.06.33.33,0,0,0-.07.45A5,5,0,0,0,99.61,247.27Z" transform="translate(-28.79 -43.07)"/><path class="cls-37" d="M91.89,241.9" transform="translate(-28.79 -43.07)"/><path class="cls-37" d="M89.7,240.46a.34.34,0,0,0,.23-.26,2,2,0,0,1,2.18-1.89.32.32,0,0,0,.34-.3.31.31,0,0,0-.29-.34,2.65,2.65,0,0,0-2.87,2.44.32.32,0,0,0,.27.36A.32.32,0,0,0,89.7,240.46Z" transform="translate(-28.79 -43.07)"/><path class="cls-37" d="M96.74,236.44a.28.28,0,0,0,.29,0,1.7,1.7,0,0,1,2.42,0,.27.27,0,0,0,.39-.37,2.23,2.23,0,0,0-3.17,0,.27.27,0,0,0,0,.38Z" transform="translate(-28.79 -43.07)"/><path class="cls-37" d="M91.73,241.84c.26.73.8,1.21,1.2,1.07s.52-.86.26-1.59-.81-1.22-1.21-1.07S91.46,241.1,91.73,241.84Z" transform="translate(-28.79 -43.07)"/><path class="cls-37" d="M98.39,239.68c.26.74.8,1.22,1.2,1.07s.52-.85.26-1.59-.8-1.22-1.21-1.07S98.13,238.94,98.39,239.68Z" transform="translate(-28.79 -43.07)"/><path class="cls-36" d="M117.1,363.17v.15c0,.31,0,.59,0,.89,0,.59-.17,2.3-.12,3.26a51.59,51.59,0,0,1-.08,6.13c-1.26,20.58-10.72,62.31-11.16,64.21v.06c-2-.19-3.76-.47-5.75-.62a4.64,4.64,0,0,0,.11-.51c2.14-10.24,2.15-31.84,2-34.38s-.47-5.8,2-6.82c0,0-.88-10.23-2-22.1-.15-1.71-.32-3.46-.48-5.22-.34-3.68-.72-7.38-1.1-10.89-.48-3.76-1.6-12.3-2.1-14.76-.26,2.24-1.13,9-1.73,13.56h0c-.13,1-.27,2-.41,2.95,0,.22,0,.41-.07.6-.41,2.93-.83,5.87-1.26,8.76-.24,1.67-.49,3.32-.74,4.93-1.62,10.54-3.28,19.53-4.38,22.76-5.27,15.24-12.13,31.91-18.3,43.74l-1.84-1.1c-.93-.54-1.85-1.07-2.8-1.66l-.25-.16c6.24-9.11,8.43-41.85,14.15-41.15,0-.25,0-.53,0-.83,0-3.75-.66-12.21-1.34-21.76h0c-.33-4.73-.66-9.73-.93-14.55v-.08c0-.81-.1-1.63-.13-2.44h0c-.4-9.16-.82-21.25-.46-23.16.14-.72.29-1.44.45-2.17h38.46c0,.74,0,1.47,0,2.2v.24c0,1.45,0,2.87,0,4.3,0,7,.1,13.7.17,18.59v1.07C117.11,358.94,117.11,360.9,117.1,363.17Z" transform="translate(-28.79 -43.07)"/><path class="cls-38" d="M117.1,363.17v.15c0,.31,0,.59,0,.89,0,.59-.17,2.3-.12,3.26a51.59,51.59,0,0,1-.08,6.13l-14.49-.16h-.29l-7.58-.07h-.29l-14.46-.16h0c-.33-4.73-.66-9.73-.93-14.55v-.08c0-.81-.1-1.63-.13-2.44h0c-.4-9.16-.82-21.25-.46-23.16.14-.72.29-1.44.45-2.17h38.17c0,.74,0,1.47,0,2.2v.24c0,1.45,0,2.87,0,4.3,0,7,.1,13.7.17,18.59v1.07C117.11,358.94,117.11,360.9,117.1,363.17Z" transform="translate(-28.79 -43.07)"/><path class="cls-39" d="M83.65,317.26a46.57,46.57,0,0,0-5.2,13.55h38.46c-.49-9.21-4.78-19.22-7.17-27.87-.3-1.21-.58-2.41-.8-3.64a31.45,31.45,0,0,1,.1-12.85l2.49-9.61a9.66,9.66,0,0,0-3.28-9.36,31,31,0,0,0-7-4.27l-.91-.42s.05,0,.08.07c2.35,1.76.55,5.51-2.34,5-6.83-1.28-10-8.37-14.2-6.76l-.59,1.78A27.91,27.91,0,0,0,82,270.17c-.08,1.57-.94.67-.26,4.71.37,2.16,7.29,16,9.07,24.42a12.83,12.83,0,0,1,.34,4.43c0,.07,0,.12,0,.19h0C90.22,309.1,86.26,312.89,83.65,317.26Z" transform="translate(-28.79 -43.07)"/><path class="cls-37" d="M66.86,436.37c-3,7.52,2.87,7.72,17.63,7.86,2.05,0,3.51-2.14,0-3.26l-11.09-4.78s-5.4-.13-6.47-.07Z" transform="translate(-28.79 -43.07)"/><path class="cls-37" d="M99.73,436.37c-3,7.52,2.87,7.72,17.63,7.86,2,0,3.51-2.14,0-3.26l-11.1-4.78s-5.39-.13-6.47-.07Z" transform="translate(-28.79 -43.07)"/><path class="cls-40" d="M104,195.4c-.32-7,2.81-14.14,8-19.26,14.1-13.93,37.38-16.74,56.21-15.38,12.74.91,21.6,7.08,23.22,21,.05.45.09.89.13,1.32A24.43,24.43,0,0,1,177,206.84h0a59.65,59.65,0,0,1-15.07,4.51c-5.24.83-11.91,1.94-15.81,2.78C133,217,115.17,218.65,107,205.36A20.56,20.56,0,0,1,104,195.4Z" transform="translate(-28.79 -43.07)"/><path class="cls-36" d="M80.7,267.42l.55-.91a7.24,7.24,0,0,1,3-2.7l.6-.24c1.16-.42,2.39-.9,3.66-1.41,0,0,0,0,0,0,10-4,22.86-10,27.48-12.27l1.77-.86s.35-.73.93-2c2.38-5.24,8.65-19.6,9.6-28.14a56.64,56.64,0,0,1-.85-10.43c.83-2.21,1.85,0,3,4.26l1.48-7.61a2.58,2.58,0,0,1,4.66-1c2.43,3.71-.67,11.92-3.37,15.93-.72,10.7-7.1,26.8-9,31.42a1,1,0,0,1-.09.21h0a14,14,0,0,1-4.86,6.47c-4.39,3.22-12.13,8.83-17.88,12.64a68.58,68.58,0,0,1-10.76,6,11.26,11.26,0,0,1-5.58.52A6.57,6.57,0,0,1,80.7,267.42Z" transform="translate(-28.79 -43.07)"/><path class="cls-41" d="M94.89,226.49c-15.22-7.27-26.66,10.92-18.15,20.31,2.83,3.11-1.07,9.9,3.47,12.6,3.17,1.89,5.77,3.76,9.6,2.25-1.93-1.67-2.47-1.83-3-4.06,2.82,0,5.93,1.61,8.81.65C90.87,256.46,89.6,252.1,89,248c-.12-.75-.43-4.42-.69-7.52,1.13-2.72,3-5.09,5.18-6.06a9,9,0,0,1-1.71,3.76,25.85,25.85,0,0,0,6.33-3.42C102.76,230.51,101.39,229.59,94.89,226.49Z" transform="translate(-28.79 -43.07)"/></g><g id="Layer_10" data-name="Layer 10"><ellipse class="cls-9" cx="371.13" cy="400.04" rx="50.58" ry="4.59"/><path class="cls-42" d="M364.43,349s-6.32,1.59-9.46-.88a19.33,19.33,0,0,0-9.83-15.52c-2.32-1.33-4.75-1.82-6.54-1.15-4.25,1.58-9.1,5.23-3.64,15.79,0,0-2.46,4.91,1.55,3.25,2.29,4.08,7.19,6.79,11.56,5.58a5.48,5.48,0,0,0,2.42-1.49,93.29,93.29,0,0,0,8.39,4.62Z" transform="translate(-28.79 -43.07)"/><path class="cls-3" d="M338.37,344.4c.34.82.27,1.63-.16,1.81s-1-.35-1.39-1.17-.27-1.64.15-1.82S338,343.57,338.37,344.4Z" transform="translate(-28.79 -43.07)"/><path class="cls-3" d="M339.07,341.26a.34.34,0,0,1-.38-.05,2.2,2.2,0,0,0-3.14.07.36.36,0,0,1-.5,0,.34.34,0,0,1,0-.49,2.88,2.88,0,0,1,4.11-.12.36.36,0,0,1,0,.49A.47.47,0,0,1,339.07,341.26Z" transform="translate(-28.79 -43.07)"/><path class="cls-3" d="M339.3,352.31a.36.36,0,0,1,.21-.32,2.2,2.2,0,0,0,1.3-2.86.36.36,0,0,1,.2-.46.35.35,0,0,1,.45.2,2.89,2.89,0,0,1-1.66,3.76.36.36,0,0,1-.47-.17A.4.4,0,0,1,339.3,352.31Z" transform="translate(-28.79 -43.07)"/><path class="cls-43" d="M361.3,344.24c1-1.15,3.1-5.39,0-3-.39.3-.86.69-1.37,1a35,35,0,0,0,.21-4.54c.73-10.43-6.54-16.23-14.47-16.53-6-.23-13.15,5.55-15,8.77a10,10,0,0,1-1.19.45c-1.42.43-2.66.47-3.92,1.26-.79.48-2.75,1.67-2.72,2.65,0,1.38,2.13,1.46,3.13,1.16-1.82,1.34-3.22,6.91.18,7.31,1.5.17,3.29-.84,4.91-2.21a8.91,8.91,0,0,1,4.69-2.12,4.3,4.3,0,0,1,2.86.49c1,.66,2,1.29,3,1.85a5.59,5.59,0,0,1,.19.63c.36,1.63.95,3.66,2.84,4.08,4,.88.72-4.55.64-7.16,1-1.44,2.94-1.93,5.28.93,1.59,1.94,1.64,4.38,1.81,6.73a10.1,10.1,0,0,0,.24,2.86c1.66,4.64,7.31,1.4,9.12,0a5,5,0,0,0,2.15-3.76C363.79,342.94,362.68,344,361.3,344.24Z" transform="translate(-28.79 -43.07)"/><path class="cls-44" d="M407.5,394.82s-6.63,30.49-6,31.77c0,0,10.18,7.51,33.12.94l.06,5.29c-53.14,18.28-51.73,4.5-45.47-38Z" transform="translate(-28.79 -43.07)"/><path class="cls-3" d="M437.61,443.44H442c3.62-.26,1.09-6,.67-7-.72-1.74-.93-6.12-.72-7.95a2.67,2.67,0,0,0,0-.75,2.53,2.53,0,0,0-3.7-1.63c-.95.51-2.25.75-3.61,1.44l.06,5.29,2,2.86a3.47,3.47,0,0,1,.26,3.67l-.56,1A2.2,2.2,0,0,0,437.61,443.44Z" transform="translate(-28.79 -43.07)"/><path class="cls-45" d="M405.53,378s13.1,24.14-3.79,26.24a21.44,21.44,0,0,1-7.44-.48c-10.41-2.42-19.08-5.56-20.09-3.63-1.18,2.28-4.78,14.3-.37,37.74h-5c-13-39.23-14-64.09,16.86-54.29l.09-5.33Z" transform="translate(-28.79 -43.07)"/><path class="cls-3" d="M359.69,443l.34.09c2.13.46,7.08-.27,9.79.19l2.11,0c2.49,0,2.55-2.16,2-4.46l.06-1-4.9,0-9.75,3.26A1.06,1.06,0,0,0,359.69,443Z" transform="translate(-28.79 -43.07)"/><path class="cls-46" d="M385.67,384.63s15.6,3,23.62,1.17c0,0-10.44-31-26.8-38.63a19.62,19.62,0,0,0-19.32,1.25,16.3,16.3,0,0,0-6.72,9.66c-2.13,8.25,13.68,11.89,19.43,18.18C379.51,380.22,380.34,383.94,385.67,384.63Z" transform="translate(-28.79 -43.07)"/><path class="cls-42" d="M332.14,428.13l4.86-2.61,18.89-31.23,1.1-1.8s1.89-16.19,1.89-27.8c0-3.23.51-5.46,3.31-7.12,3.38-2,6.12-1.14,8.21,2.59a15.87,15.87,0,0,1,1.32,11.67l-2,18.14a25.3,25.3,0,0,1-6.63,14.41l-22.19,23.81-3.65,5.66c-.7,1.1-4.22,4.71-6.52,4.71a3.86,3.86,0,0,1-3.87-3.84v-.26C326.84,433.05,330.88,428.81,332.14,428.13Z" transform="translate(-28.79 -43.07)"/></g><g id="Layer_11" data-name="Layer 11"><path class="cls-34" d="M250.75,77.1C247.82,95,242.88,98,235.24,81c1-.37,1.71-.66,1.84-.74a3,3,0,0,0,1-2.59v0c0-.18,0-.36-.07-.52A5.71,5.71,0,0,0,236.69,74l6.87-3.52,1.35,3.91c.12.38.24.75.35,1.13s.18.66.25,1h0v0a1.41,1.41,0,0,0,1.43,1C248.09,77.48,249.41,77.29,250.75,77.1Z" transform="translate(-28.79 -43.07)"/><path class="cls-37" d="M267.66,114.5c-.07,15.72-5.36,32.88-9,48.64-15.64,1.88-27.92-.69-39.62-11.43,4.11-10,13.43-18.23,14.84-29.26s-4.7-21.07-7.61-31c-1.25-4.27.78-6.37,4.08-8.38a45.41,45.41,0,0,1,4.85-2C242.88,98,247.82,95,250.75,77.1a21.4,21.4,0,0,1,5.31-.31c5.5.77,8.13,1.53,9,8.43C266.15,94.18,267.7,103.75,267.66,114.5Z" transform="translate(-28.79 -43.07)"/><path class="cls-36" d="M250.37,60.45c0-2.16-1.14-4.75-2.88-4.53a3,3,0,0,0-1.56.85c-2.57-5.58-8.34-11.16-12.71-10.59-5.71.74-10,4.56-7.65,19.28.92,5.82,6.14,11,11.86,10.79,4.3-.18,8.16-5.69,9.4-10.88C248.55,64.45,250.34,63.2,250.37,60.45Z" transform="translate(-28.79 -43.07)"/><path class="cls-37" d="M231.89,67.45l-.08,0c-.68,0-1.59,0-1.81-.57-.29-.83,1.24-2,1.91-2.5a.31.31,0,0,1,.43.07.32.32,0,0,1-.07.44c-1,.67-1.76,1.54-1.68,1.78,0,0,.13.22,1.18.15a.31.31,0,0,1,.33.29A.31.31,0,0,1,231.89,67.45Z" transform="translate(-28.79 -43.07)"/><path class="cls-37" d="M233.33,71a4.4,4.4,0,0,1-.58.1.36.36,0,0,1-.39-.32.35.35,0,0,1,.32-.39c.18,0,4.45-.47,4.58-4.75a.36.36,0,0,1,.72,0A5.54,5.54,0,0,1,233.33,71Z" transform="translate(-28.79 -43.07)"/><path class="cls-37" d="M236.91,61.2" transform="translate(-28.79 -43.07)"/><path class="cls-37" d="M238.79,58.41a.32.32,0,0,1-.37-.09,2.25,2.25,0,0,0-3.19-.32.36.36,0,0,1-.5,0,.35.35,0,0,1,0-.5,3,3,0,0,1,4.17.38.36.36,0,0,1,0,.51A.33.33,0,0,1,238.79,58.41Z" transform="translate(-28.79 -43.07)"/><path class="cls-37" d="M229,59.35a.3.3,0,0,1-.29.14,1.89,1.89,0,0,0-2.2,1.55.31.31,0,0,1-.35.25.32.32,0,0,1-.25-.35,2.48,2.48,0,0,1,2.86-2,.3.3,0,0,1,.27.34A.56.56,0,0,1,229,59.35Z" transform="translate(-28.79 -43.07)"/><path class="cls-37" d="M237,61.61c.22.81,0,1.56-.41,1.69s-1-.43-1.21-1.24-.05-1.56.4-1.68S236.73,60.81,237,61.61Z" transform="translate(-28.79 -43.07)"/><path class="cls-37" d="M229.57,63.47c.22.8,0,1.56-.4,1.68s-1-.43-1.22-1.23,0-1.57.4-1.69S229.35,62.66,229.57,63.47Z" transform="translate(-28.79 -43.07)"/><path class="cls-47" d="M232.49,44c-3.22,1.43-20.76,10.47-11.08,13a13.63,13.63,0,0,0,5.93.16c1.24-.23,5.28-1.58,8.66-2.75a9.15,9.15,0,0,1,9.18,1.87h0a16.19,16.19,0,0,0-1.26,5,1.14,1.14,0,0,0,2.24.36,40.88,40.88,0,0,0,1.05-8.7C247.34,48,240.39,40.45,232.49,44Z" transform="translate(-28.79 -43.07)"/><path class="cls-37" d="M240.06,114.71a201.34,201.34,0,0,1-10.45,22.07l5.69,3.41a141.17,141.17,0,0,0,13.88-20.68,198.75,198.75,0,0,0,13.95-32.05,7.46,7.46,0,0,0,.78-6.36v0a.61.61,0,0,1,0-.13.7.7,0,0,1-.06-.09,1.14,1.14,0,0,0-.07-.19,6.22,6.22,0,0,0-4.53-3.34,8.58,8.58,0,0,0-2.43-.2,8.08,8.08,0,0,0-5.68,3h0a9,9,0,0,0-1.7,3.3,4.83,4.83,0,0,0-.18.78c-.51,2.77-1.46,7.17-3.07,12.79A171.18,171.18,0,0,1,240.06,114.71Z" transform="translate(-28.79 -43.07)"/><path class="cls-36" d="M222.23,146.29l3.08-1.29c-3.13,5.87-4.39,9.49-4.89,11.54a1.49,1.49,0,0,0,1.92,1.75c6.9-2.47,9.2-13.33,9.2-13.33s3.18-4.64,3.76-4.77l-5.69-3.41c-.74,1.48-1.86,3.84-3.87,4.59a16.75,16.75,0,0,0-4.73,3.25A1.06,1.06,0,0,0,222.23,146.29Z" transform="translate(-28.79 -43.07)"/><path class="cls-37" d="M209.74,113.51a194.22,194.22,0,0,1-15.51,18.09l4.48,4.67a138.9,138.9,0,0,0,18.38-15.89A194.36,194.36,0,0,0,238.44,93.8c1.76-1.8-2.57-11.22-3.3-11.38a7.9,7.9,0,0,0-6.13,1.4h0a8.73,8.73,0,0,0-2.46,2.67,5.8,5.8,0,0,0-.37.69C225,89.66,223,93.56,220,98.44A167.47,167.47,0,0,1,209.74,113.51Z" transform="translate(-28.79 -43.07)"/><path class="cls-36" d="M184.84,138.65l3.23-.42a51.14,51.14,0,0,0-7.56,9.61,1.45,1.45,0,0,0,1.36,2.13c7.12-.55,12.07-10.18,12.07-10.18s4.19-3.55,4.77-3.52l-4.48-4.67c.28.29-2.73,3.14-4.82,3.32a16.15,16.15,0,0,0-5.28,1.85A1,1,0,0,0,184.84,138.65Z" transform="translate(-28.79 -43.07)"/></g><g id="Layer_9" data-name="Layer 9"><path class="cls-48" d="M310.63,171.12a62,62,0,1,0-101.09,48.17,21.23,21.23,0,0,1,7.74,16.52v5.68c0,17.3,14,30.44,31.32,30.44h0c17.3,0,31.32-13.14,31.32-30.44V235.8a21.45,21.45,0,0,1,7.88-16.62A61.88,61.88,0,0,0,310.63,171.12Z" transform="translate(-28.79 -43.07)"/><path class="cls-11" d="M259.83,263.86h-2.34l0-77.25H239.05v76.07h-2.37V186.61h-5a7.33,7.33,0,0,1,0-14.66H232a7.22,7.22,0,0,1,7.09,7.33v5h18.41v-5a7.22,7.22,0,0,1,7.09-7.33h.39a7.33,7.33,0,0,1,0,14.66h-5.11Zm0-79.62h5.11a5,5,0,0,0,0-9.91h-.39a4.85,4.85,0,0,0-4.72,4.95Zm-28.18-9.91a5,5,0,0,0,0,9.91h5v-5a4.85,4.85,0,0,0-4.72-4.95Z" transform="translate(-28.79 -43.07)"/><path class="cls-49" d="M248.67,320.46h0a31.39,31.39,0,0,1-31.39-31.38V246.8h62.77v42.28A31.38,31.38,0,0,1,248.67,320.46Z" transform="translate(-28.79 -43.07)"/><path class="cls-50" d="M280.4,269.85H216.81a4,4,0,0,1-4-4h0a4,4,0,0,1,4-4H280.4a4,4,0,0,1,4,4h0A4,4,0,0,1,280.4,269.85Z" transform="translate(-28.79 -43.07)"/><path class="cls-51" d="M280.4,253.34H216.81a4,4,0,0,1-4-4h0a4,4,0,0,1,4-4H280.4a4,4,0,0,1,4,4h0A4,4,0,0,1,280.4,253.34Z" transform="translate(-28.79 -43.07)"/><path class="cls-52" d="M280.4,288.56H216.81a4,4,0,0,1-4-4h0a4,4,0,0,1,4-4H280.4a4,4,0,0,1,4,4h0A4,4,0,0,1,280.4,288.56Z" transform="translate(-28.79 -43.07)"/></g></g></svg>