<svg xmlns="http://www.w3.org/2000/svg" xmlns:xlink="http://www.w3.org/1999/xlink" viewBox="0 0 569.16 404.63"><defs><style>.cls-1{isolation:isolate;}.cls-2{fill:url(#linear-gradient);}.cls-3{fill:url(#linear-gradient-2);}.cls-4{fill:url(#linear-gradient-3);}.cls-5{fill:#f1f1f1;mix-blend-mode:multiply;}.cls-6{fill:url(#linear-gradient-4);}.cls-7{fill:#f7b502;}.cls-8{fill:url(#linear-gradient-5);}.cls-9{fill:url(#linear-gradient-6);}.cls-10{fill:url(#linear-gradient-7);}.cls-11{fill:url(#linear-gradient-8);}.cls-12{fill:url(#linear-gradient-9);}.cls-13{fill:url(#linear-gradient-10);}.cls-14{fill:url(#linear-gradient-11);}.cls-15{fill:url(#linear-gradient-12);}.cls-16{fill:url(#linear-gradient-13);}.cls-17{fill:url(#linear-gradient-14);}.cls-18{fill:url(#linear-gradient-15);}.cls-19{fill:url(#linear-gradient-16);}.cls-20{fill:url(#linear-gradient-17);}.cls-21{fill:url(#linear-gradient-18);}.cls-22{fill:url(#linear-gradient-19);}.cls-23{fill:url(#linear-gradient-20);}.cls-24{fill:url(#linear-gradient-21);}.cls-25{fill:#f6abb0;}.cls-26{fill:#410784;}.cls-27{fill:#f7b8b7;}.cls-28{fill:url(#linear-gradient-22);}.cls-29{fill:url(#radial-gradient);}.cls-30{fill:url(#linear-gradient-23);}.cls-31{fill:url(#linear-gradient-24);}.cls-32{fill:url(#linear-gradient-25);}.cls-33{fill:url(#linear-gradient-26);}.cls-34{fill:url(#linear-gradient-27);}.cls-35{fill:url(#linear-gradient-28);}.cls-36{fill:#41a9fd;}.cls-37{fill:url(#linear-gradient-29);}.cls-38{fill:url(#linear-gradient-30);}.cls-39{fill:#d22780;}.cls-40{fill:url(#linear-gradient-31);}.cls-41{fill:url(#linear-gradient-32);}.cls-42{fill:url(#linear-gradient-33);}.cls-43{fill:url(#linear-gradient-34);}.cls-44{fill:url(#linear-gradient-35);}.cls-45{fill:#b56a70;}.cls-46{fill:#5e217f;}.cls-47{fill:url(#linear-gradient-36);}.cls-48{fill:url(#linear-gradient-37);}.cls-49{fill:url(#linear-gradient-38);}.cls-50{fill:url(#linear-gradient-39);}</style><linearGradient id="linear-gradient" x1="181.92" y1="330.54" x2="181.92" y2="142.92" gradientTransform="translate(112.32 -70.39) rotate(27.55)" gradientUnits="userSpaceOnUse"><stop offset="0" stop-color="#410784"/><stop offset="0.04" stop-color="#450b85"/><stop offset="0.27" stop-color="#5d278d"/><stop offset="0.51" stop-color="#6e3a93"/><stop offset="0.75" stop-color="#794696"/><stop offset="0.99" stop-color="#7c4a97"/></linearGradient><linearGradient id="linear-gradient-2" x1="262.27" y1="374.38" x2="262.27" y2="152.43" xlink:href="#linear-gradient"/><linearGradient id="linear-gradient-3" x1="137.31" y1="342.68" x2="137.31" y2="155.06" xlink:href="#linear-gradient"/><linearGradient id="linear-gradient-4" x1="113.57" y1="372.2" x2="113.57" y2="331.99" gradientUnits="userSpaceOnUse"><stop offset="0" stop-color="#f5d61d"/><stop offset="0.08" stop-color="#f6dc3e"/><stop offset="0.2" stop-color="#f9e571"/><stop offset="0.33" stop-color="#fbed9d"/><stop offset="0.46" stop-color="#fcf4c0"/><stop offset="0.59" stop-color="#fdf9dc"/><stop offset="0.72" stop-color="#fefcef"/><stop offset="0.85" stop-color="#fffefb"/><stop offset="0.98" stop-color="#fff"/></linearGradient><linearGradient id="linear-gradient-5" x1="90.23" y1="346.38" x2="136.28" y2="346.38" gradientUnits="userSpaceOnUse"><stop offset="0" stop-color="#f7b502"/><stop offset="0.08" stop-color="#f8ba0e"/><stop offset="0.3" stop-color="#fac62a"/><stop offset="0.52" stop-color="#fcce3d"/><stop offset="0.75" stop-color="#fdd349"/><stop offset="0.98" stop-color="#fdd54d"/></linearGradient><linearGradient id="linear-gradient-6" x1="101.59" y1="380.93" x2="124.88" y2="380.93" gradientUnits="userSpaceOnUse"><stop offset="0" stop-color="#d22780"/><stop offset="0.35" stop-color="#df5591"/><stop offset="1" stop-color="#f6abb0"/></linearGradient><linearGradient id="linear-gradient-7" x1="99.98" y1="378.6" x2="126.53" y2="378.6" gradientUnits="userSpaceOnUse"><stop offset="0" stop-color="#f6abb0"/><stop offset="0.65" stop-color="#df5591"/><stop offset="1" stop-color="#d22780"/></linearGradient><linearGradient id="linear-gradient-8" x1="99.98" y1="368.22" x2="126.53" y2="368.22" xlink:href="#linear-gradient-7"/><linearGradient id="linear-gradient-9" x1="99.98" y1="383.7" x2="126.53" y2="383.7" xlink:href="#linear-gradient-7"/><linearGradient id="linear-gradient-10" x1="194.35" y1="372.2" x2="194.35" y2="331.99" xlink:href="#linear-gradient-4"/><linearGradient id="linear-gradient-11" x1="171.02" y1="346.38" x2="217.07" y2="346.38" xlink:href="#linear-gradient-5"/><linearGradient id="linear-gradient-12" x1="182.37" y1="380.93" x2="205.67" y2="380.93" xlink:href="#linear-gradient-6"/><linearGradient id="linear-gradient-13" x1="180.77" y1="378.6" x2="207.32" y2="378.6" xlink:href="#linear-gradient-7"/><linearGradient id="linear-gradient-14" x1="180.77" y1="368.22" x2="207.32" y2="368.22" xlink:href="#linear-gradient-7"/><linearGradient id="linear-gradient-15" x1="180.77" y1="383.7" x2="207.32" y2="383.7" xlink:href="#linear-gradient-7"/><linearGradient id="linear-gradient-16" x1="272.38" y1="372.2" x2="272.38" y2="331.99" xlink:href="#linear-gradient-4"/><linearGradient id="linear-gradient-17" x1="249.04" y1="346.38" x2="295.09" y2="346.38" xlink:href="#linear-gradient-5"/><linearGradient id="linear-gradient-18" x1="260.4" y1="380.93" x2="283.7" y2="380.93" xlink:href="#linear-gradient-6"/><linearGradient id="linear-gradient-19" x1="258.8" y1="378.6" x2="285.35" y2="378.6" xlink:href="#linear-gradient-7"/><linearGradient id="linear-gradient-20" x1="258.8" y1="368.22" x2="285.35" y2="368.22" xlink:href="#linear-gradient-7"/><linearGradient id="linear-gradient-21" x1="258.8" y1="383.7" x2="285.35" y2="383.7" xlink:href="#linear-gradient-7"/><linearGradient id="linear-gradient-22" x1="186.85" y1="31.74" x2="149.84" y2="-49.54" xlink:href="#linear-gradient-5"/><radialGradient id="radial-gradient" cx="193.39" cy="132.33" r="72.38" gradientUnits="userSpaceOnUse"><stop offset="0" stop-color="#fff"/><stop offset="0.14" stop-color="#fffefb"/><stop offset="0.27" stop-color="#fefcef"/><stop offset="0.4" stop-color="#fdf9dc"/><stop offset="0.53" stop-color="#fcf4c0"/><stop offset="0.66" stop-color="#fbed9d"/><stop offset="0.79" stop-color="#f9e571"/><stop offset="0.92" stop-color="#f6dc3e"/><stop offset="1" stop-color="#f5d61d"/></radialGradient><linearGradient id="linear-gradient-23" x1="192.8" y1="204.87" x2="192.8" y2="299.44" xlink:href="#linear-gradient-6"/><linearGradient id="linear-gradient-24" x1="156.96" y1="222.8" x2="228.5" y2="222.8" xlink:href="#linear-gradient-7"/><linearGradient id="linear-gradient-25" x1="156.96" y1="206.29" x2="228.5" y2="206.29" xlink:href="#linear-gradient-7"/><linearGradient id="linear-gradient-26" x1="156.96" y1="241.51" x2="228.5" y2="241.51" xlink:href="#linear-gradient-7"/><linearGradient id="linear-gradient-27" x1="10" y1="226.77" x2="48.68" y2="226.77" gradientUnits="userSpaceOnUse"><stop offset="0" stop-color="#410784"/><stop offset="0.22" stop-color="#450c85"/><stop offset="0.49" stop-color="#521b8a"/><stop offset="0.78" stop-color="#683390"/><stop offset="0.99" stop-color="#7c4a97"/></linearGradient><linearGradient id="linear-gradient-28" x1="33.41" y1="201.6" x2="56.65" y2="201.6" xlink:href="#linear-gradient-27"/><linearGradient id="linear-gradient-29" x1="22.28" y1="309.13" x2="61.24" y2="309.13" xlink:href="#linear-gradient-27"/><linearGradient id="linear-gradient-30" x1="30.36" y1="252.75" x2="68.82" y2="252.75" xlink:href="#linear-gradient-5"/><linearGradient id="linear-gradient-31" x1="17.96" y1="200.43" x2="44.99" y2="200.43" xlink:href="#linear-gradient-27"/><linearGradient id="linear-gradient-32" x1="113.59" y1="278.1" x2="156.21" y2="278.1" xlink:href="#linear-gradient-5"/><linearGradient id="linear-gradient-33" x1="231.09" y1="278.1" x2="273.71" y2="278.1" xlink:href="#linear-gradient-5"/><linearGradient id="linear-gradient-34" x1="190.4" y1="252.02" x2="197.68" y2="252.02" xlink:href="#linear-gradient-7"/><linearGradient id="linear-gradient-35" x1="192.97" y1="281.17" x2="195.11" y2="281.17" xlink:href="#linear-gradient-5"/><linearGradient id="linear-gradient-36" x1="324.99" y1="324.52" x2="268.82" y2="277.6" xlink:href="#linear-gradient-27"/><linearGradient id="linear-gradient-37" x1="330.34" y1="374.7" x2="378.84" y2="374.7" gradientTransform="matrix(1, 0, 0, 1, 0, 0)" xlink:href="#linear-gradient"/><linearGradient id="linear-gradient-38" x1="304.38" y1="364.84" x2="354.5" y2="364.84" gradientTransform="matrix(1, 0, 0, 1, 0, 0)" xlink:href="#linear-gradient"/><linearGradient id="linear-gradient-39" x1="373.2" y1="311.23" x2="297.96" y2="332.88" xlink:href="#linear-gradient-7"/></defs><title>Asset 9</title><g class="cls-1"><g id="Layer_2" data-name="Layer 2"><g id="OBJECTS"><path class="cls-2" d="M161.19,215.58a32.86,32.86,0,0,0-5.7-1.08L154,207.66,133.94,212l1.5,7a32.85,32.85,0,0,0-10.25,9.68l-7-2-5.63,19.75,7,2a32.48,32.48,0,0,0,2.88,12.08l-5.24,4.91,14,15,5.12-4.79a32.71,32.71,0,0,0,6.93,2.87,32.27,32.27,0,0,0,5.14,1l1.44,6.72L170,281.92l-1.4-6.55a32.65,32.65,0,0,0,10.74-10l6.37,1.81,5.62-19.75-6.37-1.81a32.43,32.43,0,0,0-3.11-12.59l4.89-4.58-14-15-5,4.69A32.13,32.13,0,0,0,161.19,215.58Zm5.53,35.58a15.36,15.36,0,1,1-10.57-19A15.37,15.37,0,0,1,166.72,251.16Z"/><path class="cls-3" d="M271.26,169.86A53.82,53.82,0,0,0,262,168.1L259.64,157l-32.53,7,2.43,11.36A53,53,0,0,0,212.93,191l-11.27-3.2-9.11,32,11.27,3.21a52.94,52.94,0,0,0,4.66,19.58l-8.49,8,22.74,24.3,8.29-7.76a53.12,53.12,0,0,0,19.56,6.32l2.34,10.89,32.53-7-2.27-10.62a52.91,52.91,0,0,0,17.4-16.14l10.32,2.94,9.11-32-10.32-2.93a52.72,52.72,0,0,0-5-20.4l7.92-7.41-22.74-24.3-8.12,7.6A52.77,52.77,0,0,0,271.26,169.86Zm9,57.64a24.89,24.89,0,1,1-17.13-30.75A24.9,24.9,0,0,1,280.22,227.5Z"/><path class="cls-4" d="M144.22,155.77a23.37,23.37,0,0,0-4-.76l-1-4.77-14,3,1,4.9a22.85,22.85,0,0,0-7.16,6.76l-4.86-1.39-3.93,13.81,4.86,1.38a22.86,22.86,0,0,0,2,8.44l-3.66,3.43,9.81,10.48,3.57-3.34a23.68,23.68,0,0,0,4.85,2,24,24,0,0,0,3.59.72l1,4.69,14-3-1-4.58a22.9,22.9,0,0,0,7.51-7l4.44,1.27,3.93-13.81-4.44-1.26a22.82,22.82,0,0,0-2.18-8.8l3.42-3.2-9.81-10.48-3.5,3.28A22.63,22.63,0,0,0,144.22,155.77Zm4.26,22.77a10.75,10.75,0,1,1-5.82-10.42A10.77,10.77,0,0,1,148.48,178.54Z"/><ellipse class="cls-5" cx="113.24" cy="398.97" rx="22.89" ry="3.48"/><path class="cls-6" d="M134.84,340.11a21.54,21.54,0,0,1-8,16.67,7.39,7.39,0,0,0-2.69,5.75v2a10.37,10.37,0,0,1-3.45,7.77H105.83c-.08-.07-.17-.14-.26-.23a10.35,10.35,0,0,1-3.18-7.54v-2a7.41,7.41,0,0,0-2.74-5.78A21.57,21.57,0,0,1,92.29,345c.63.31,1.25.62,1.86.89,7.93,3.55,14.65,3.35,19.27-3.46,0,0,10.54-12.81,18.78-8.17a9.08,9.08,0,0,1,2.26,1.81A20.93,20.93,0,0,1,134.84,340.11Z"/><path class="cls-7" d="M109.09,344.92H107.2a2.72,2.72,0,0,1,0-5.44h.14A2.68,2.68,0,0,1,110,342.2V344h6.84V342.2a2.68,2.68,0,0,1,2.63-2.72h.11a2.72,2.72,0,0,1,0,5.44h-1.86v28.24h-.88V344.92H110V373.6h-.87Zm0-2.72a1.8,1.8,0,0,0-1.75-1.84h-.14a1.84,1.84,0,0,0,0,3.68h1.89Zm10.35-1.84a1.8,1.8,0,0,0-1.75,1.84V344h1.86a1.84,1.84,0,0,0,0-3.68Z"/><path class="cls-8" d="M135.88,334.92a23,23,0,0,0-45.65,4.26,21.79,21.79,0,0,0,.62,5.27A23,23,0,0,0,98.71,357a7.94,7.94,0,0,1,2.92,6.17v2.1a11.08,11.08,0,0,0,3.4,8.06l.28.25a12,12,0,0,0,15.89,0,11.08,11.08,0,0,0,3.68-8.31v-2.1a7.9,7.9,0,0,1,2.88-6.14,23,23,0,0,0,8.52-17.8A22.15,22.15,0,0,0,135.88,334.92Zm-9.26,21.56a7.56,7.56,0,0,0-2.65,5.81v2a10.56,10.56,0,0,1-5.39,9.31,11,11,0,0,1-10.63,0,9.81,9.81,0,0,1-2.26-1.69,10.64,10.64,0,0,1-3.13-7.62v-2a7.59,7.59,0,0,0-2.7-5.84,22,22,0,0,1-7.8-16.89c0-12.21,9.77-22.08,21.71-21.79A21.43,21.43,0,0,1,133.47,333a22.21,22.21,0,0,1-6.85,23.49Z"/><path class="cls-9" d="M113.23,394.6h0A11.64,11.64,0,0,0,124.88,383v-15.7H101.59V383A11.64,11.64,0,0,0,113.23,394.6Z"/><path class="cls-10" d="M101.46,380.07h23.6a1.47,1.47,0,0,0,1.47-1.47h0a1.47,1.47,0,0,0-1.47-1.48h-23.6A1.48,1.48,0,0,0,100,378.6h0A1.48,1.48,0,0,0,101.46,380.07Z"/><path class="cls-11" d="M101.46,369.69h23.6a1.47,1.47,0,0,0,1.47-1.47h0a1.47,1.47,0,0,0-1.47-1.48h-23.6a1.48,1.48,0,0,0-1.48,1.48h0A1.48,1.48,0,0,0,101.46,369.69Z"/><path class="cls-12" d="M101.46,385.18h23.6a1.47,1.47,0,0,0,1.47-1.48h0a1.47,1.47,0,0,0-1.47-1.47h-23.6A1.48,1.48,0,0,0,100,383.7h0A1.48,1.48,0,0,0,101.46,385.18Z"/><ellipse class="cls-5" cx="194.03" cy="398.97" rx="22.89" ry="3.48"/><path class="cls-13" d="M215.62,340.11a21.51,21.51,0,0,1-8,16.67,7.39,7.39,0,0,0-2.69,5.75v2a10.34,10.34,0,0,1-3.45,7.77H186.62a1.86,1.86,0,0,1-.26-.23,10.36,10.36,0,0,1-3.19-7.54v-2a7.41,7.41,0,0,0-2.74-5.78A21.55,21.55,0,0,1,173.08,345c.62.31,1.24.62,1.85.89,7.94,3.55,14.66,3.35,19.28-3.46,0,0,10.54-12.81,18.78-8.17a9.08,9.08,0,0,1,2.26,1.81A20.93,20.93,0,0,1,215.62,340.11Z"/><path class="cls-7" d="M189.88,344.92H188a2.72,2.72,0,0,1,0-5.44h.15a2.68,2.68,0,0,1,2.63,2.72V344h6.83V342.2a2.68,2.68,0,0,1,2.63-2.72h.12a2.72,2.72,0,0,1,0,5.44h-1.87v28.24h-.88V344.92h-6.83V373.6h-.87Zm0-2.72a1.8,1.8,0,0,0-1.75-1.84H188a1.84,1.84,0,0,0,0,3.68h1.9Zm10.34-1.84a1.8,1.8,0,0,0-1.75,1.84V344h1.87a1.84,1.84,0,0,0,0-3.68Z"/><path class="cls-14" d="M216.66,334.92A23,23,0,0,0,171,339.18a21.79,21.79,0,0,0,.62,5.27A23,23,0,0,0,179.49,357a7.9,7.9,0,0,1,2.92,6.17v2.1a11.08,11.08,0,0,0,3.4,8.06l.28.25a12,12,0,0,0,15.9,0,11.08,11.08,0,0,0,3.68-8.31v-2.1a7.9,7.9,0,0,1,2.88-6.14,23,23,0,0,0,8.52-17.8A22.15,22.15,0,0,0,216.66,334.92Zm-9.26,21.56a7.55,7.55,0,0,0-2.64,5.81v2a10.55,10.55,0,0,1-5.4,9.31,11,11,0,0,1-10.62,0,9.4,9.4,0,0,1-2.26-1.69,10.65,10.65,0,0,1-3.14-7.62v-2a7.61,7.61,0,0,0-2.69-5.84,22,22,0,0,1-7.81-16.89c0-12.21,9.77-22.08,21.71-21.79A21.42,21.42,0,0,1,214.25,333a22.21,22.21,0,0,1-6.85,23.49Z"/><path class="cls-15" d="M194,394.6h0A11.65,11.65,0,0,0,205.67,383v-15.7h-23.3V383A11.65,11.65,0,0,0,194,394.6Z"/><path class="cls-16" d="M182.24,380.07h23.6a1.47,1.47,0,0,0,1.48-1.47h0a1.48,1.48,0,0,0-1.48-1.48h-23.6a1.47,1.47,0,0,0-1.47,1.48h0A1.47,1.47,0,0,0,182.24,380.07Z"/><path class="cls-17" d="M182.24,369.69h23.6a1.47,1.47,0,0,0,1.48-1.47h0a1.48,1.48,0,0,0-1.48-1.48h-23.6a1.47,1.47,0,0,0-1.47,1.48h0A1.47,1.47,0,0,0,182.24,369.69Z"/><path class="cls-18" d="M182.24,385.18h23.6a1.48,1.48,0,0,0,1.48-1.48h0a1.47,1.47,0,0,0-1.48-1.47h-23.6a1.47,1.47,0,0,0-1.47,1.47h0A1.47,1.47,0,0,0,182.24,385.18Z"/><ellipse class="cls-5" cx="272.05" cy="398.97" rx="22.89" ry="3.48"/><path class="cls-19" d="M293.65,340.11a21.54,21.54,0,0,1-8,16.67,7.39,7.39,0,0,0-2.69,5.75v2a10.34,10.34,0,0,1-3.45,7.77H264.65a2.76,2.76,0,0,1-.27-.23,10.35,10.35,0,0,1-3.18-7.54v-2a7.41,7.41,0,0,0-2.74-5.78A21.55,21.55,0,0,1,251.11,345c.62.31,1.24.62,1.85.89,7.93,3.55,14.65,3.35,19.27-3.46,0,0,10.55-12.81,18.79-8.17a9,9,0,0,1,2.25,1.81A20.93,20.93,0,0,1,293.65,340.11Z"/><path class="cls-7" d="M267.9,344.92H266a2.72,2.72,0,0,1,0-5.44h.14a2.68,2.68,0,0,1,2.63,2.72V344h6.84V342.2a2.68,2.68,0,0,1,2.63-2.72h.11a2.72,2.72,0,0,1,0,5.44H276.5v28.24h-.88V344.92h-6.84V373.6h-.87Zm0-2.72a1.8,1.8,0,0,0-1.75-1.84H266a1.84,1.84,0,0,0,0,3.68h1.89Zm10.35-1.84a1.8,1.8,0,0,0-1.75,1.84V344h1.86a1.84,1.84,0,0,0,0-3.68Z"/><path class="cls-20" d="M294.69,334.92A23,23,0,0,0,249,339.18a22.3,22.3,0,0,0,.62,5.27A23,23,0,0,0,257.52,357a7.94,7.94,0,0,1,2.92,6.17v2.1a11.08,11.08,0,0,0,3.4,8.06l.28.25a12,12,0,0,0,15.9,0,11.12,11.12,0,0,0,3.68-8.31v-2.1a7.89,7.89,0,0,1,2.87-6.14,23,23,0,0,0,8.52-17.8A22.15,22.15,0,0,0,294.69,334.92Zm-9.26,21.56a7.56,7.56,0,0,0-2.65,5.81v2a10.56,10.56,0,0,1-5.39,9.31,11,11,0,0,1-10.63,0,9.55,9.55,0,0,1-2.25-1.69,10.61,10.61,0,0,1-3.14-7.62v-2a7.61,7.61,0,0,0-2.69-5.84,22,22,0,0,1-7.81-16.89c0-12.21,9.77-22.08,21.71-21.79A21.43,21.43,0,0,1,292.28,333a22.21,22.21,0,0,1-6.85,23.49Z"/><path class="cls-21" d="M272.05,394.6h0A11.65,11.65,0,0,0,283.7,383v-15.7H260.4V383A11.64,11.64,0,0,0,272.05,394.6Z"/><path class="cls-22" d="M260.27,380.07h23.6a1.48,1.48,0,0,0,1.48-1.47h0a1.48,1.48,0,0,0-1.48-1.48h-23.6a1.47,1.47,0,0,0-1.47,1.48h0A1.47,1.47,0,0,0,260.27,380.07Z"/><path class="cls-23" d="M260.27,369.69h23.6a1.48,1.48,0,0,0,1.48-1.47h0a1.48,1.48,0,0,0-1.48-1.48h-23.6a1.47,1.47,0,0,0-1.47,1.48h0A1.47,1.47,0,0,0,260.27,369.69Z"/><path class="cls-24" d="M260.27,385.18h23.6a1.48,1.48,0,0,0,1.48-1.48h0a1.48,1.48,0,0,0-1.48-1.47h-23.6a1.47,1.47,0,0,0-1.47,1.47h0A1.47,1.47,0,0,0,260.27,385.18Z"/><path class="cls-25" d="M194.88,34C192,52,187,55,179.37,37.92a19.48,19.48,0,0,0,1.83-.75,3,3,0,0,0,1-2.59h0c0-.19,0-.36-.07-.53a5.75,5.75,0,0,0-1.29-3.13l6.87-3.51L189,31.31c.11.37.23.75.34,1.13s.19.66.26,1h0v0a1.43,1.43,0,0,0,1.43,1C192.22,34.4,193.54,34.22,194.88,34Z"/><path class="cls-26" d="M211.79,71.43c-.07,15.72-5.37,32.87-9,48.64-15.64,1.87-27.92-.69-39.62-11.43,4.11-10,13.43-18.24,14.84-29.26s-4.7-21.07-7.62-31c-1.24-4.27.79-6.37,4.09-8.38a43.42,43.42,0,0,1,4.85-2C187,55,192,52,194.88,34a21.89,21.89,0,0,1,5.31-.31c5.5.77,8.13,1.54,9,8.43C210.28,51.11,211.83,60.68,211.79,71.43Z"/><path class="cls-27" d="M194.5,17.38c0-2.16-1.14-4.76-2.89-4.53a3,3,0,0,0-1.56.84c-2.56-5.58-8.33-11.16-12.7-10.59-5.71.74-10,4.57-7.65,19.28.92,5.82,6.14,11,11.86,10.79,4.3-.18,8.15-5.68,9.4-10.88C192.68,21.37,194.47,20.12,194.5,17.38Z"/><path class="cls-26" d="M176,24.38h-.07c-.68.05-1.6,0-1.81-.56-.3-.84,1.23-2,1.9-2.51a.31.31,0,0,1,.44.08.31.31,0,0,1-.07.43c-1,.68-1.76,1.54-1.68,1.79,0,0,.13.21,1.17.14a.32.32,0,0,1,.34.3A.32.32,0,0,1,176,24.38Z"/><path class="cls-26" d="M177.46,27.94a4.4,4.4,0,0,1-.58.1.36.36,0,0,1-.07-.71c.18,0,4.45-.46,4.58-4.74a.36.36,0,0,1,.72,0A5.53,5.53,0,0,1,177.46,27.94Z"/><path class="cls-26" d="M182.92,15.34a.37.37,0,0,1-.38-.1,2.24,2.24,0,0,0-3.18-.32.36.36,0,0,1-.51,0,.37.37,0,0,1,.05-.51,3,3,0,0,1,4.17.39.36.36,0,0,1-.15.58Z"/><path class="cls-26" d="M173.15,16.27a.31.31,0,0,1-.29.15A1.9,1.9,0,0,0,170.65,18a.29.29,0,0,1-.34.25.31.31,0,0,1-.25-.34,2.48,2.48,0,0,1,2.86-2.05.32.32,0,0,1,.27.33A.34.34,0,0,1,173.15,16.27Z"/><path class="cls-26" d="M181.08,18.54c.23.81,0,1.56-.4,1.68s-1-.42-1.22-1.23,0-1.56.41-1.69S180.86,17.73,181.08,18.54Z"/><path class="cls-26" d="M173.7,20.39c.22.81,0,1.56-.41,1.69s-1-.43-1.21-1.24,0-1.56.4-1.68S173.47,19.58,173.7,20.39Z"/><path class="cls-28" d="M176.61.91c-3.21,1.44-20.75,10.48-11.07,13a13.79,13.79,0,0,0,5.93.15c1.24-.22,5.27-1.58,8.66-2.75a9.18,9.18,0,0,1,9.18,1.88h0a16.36,16.36,0,0,0-1.27,5,1.15,1.15,0,0,0,2.25.36,40.88,40.88,0,0,0,1.05-8.7C191.47,4.92,184.52-2.62,176.61.91Z"/><path class="cls-29" d="M254.76,128.05a62,62,0,1,0-101.09,48.17,21.21,21.21,0,0,1,7.74,16.51v5.69c0,17.3,14,30.43,31.32,30.43h0c17.3,0,31.32-13.13,31.32-30.43v-5.69a21.45,21.45,0,0,1,7.88-16.62A61.91,61.91,0,0,0,254.76,128.05Z"/><path class="cls-7" d="M204,220.79h-2.35l0-77.26H183.18V219.6H180.8V143.53h-5a7.33,7.33,0,0,1,0-14.65h.31a7.22,7.22,0,0,1,7.09,7.33v4.95h18.41v-4.95a7.22,7.22,0,0,1,7.09-7.33h.39a7.33,7.33,0,0,1,0,14.65H204Zm0-79.63h5.11a5,5,0,0,0,0-9.91h-.39a4.85,4.85,0,0,0-4.72,5Zm-28.18-9.91a5,5,0,0,0,0,9.91h5v-4.95a4.84,4.84,0,0,0-4.71-5Z"/><path class="cls-30" d="M192.8,277.39h0A31.39,31.39,0,0,1,161.41,246V203.72h62.77V246A31.38,31.38,0,0,1,192.8,277.39Z"/><path class="cls-31" d="M224.53,226.77H160.94a4,4,0,0,1-4-4h0a4,4,0,0,1,4-4h63.59a4,4,0,0,1,4,4h0A4,4,0,0,1,224.53,226.77Z"/><path class="cls-32" d="M224.53,210.26H160.94a4,4,0,0,1-4-4h0a4,4,0,0,1,4-4h63.59a4,4,0,0,1,4,4h0A4,4,0,0,1,224.53,210.26Z"/><path class="cls-33" d="M224.53,245.49H160.94a4,4,0,0,1-4-4h0a4,4,0,0,1,4-4h63.59a4,4,0,0,1,4,4h0A4,4,0,0,1,224.53,245.49Z"/><path class="cls-26" d="M184.19,71.63a201.42,201.42,0,0,1-10.45,22.08l5.69,3.41a141.7,141.7,0,0,0,13.88-20.68,199.52,199.52,0,0,0,13.95-32A7.48,7.48,0,0,0,208,38v0a.7.7,0,0,1,0-.14l-.06-.09a1.57,1.57,0,0,0-.07-.18,6.25,6.25,0,0,0-4.53-3.35,8.58,8.58,0,0,0-2.43-.2,8.09,8.09,0,0,0-5.68,3h0a9,9,0,0,0-1.7,3.31,5.89,5.89,0,0,0-.19.78c-.51,2.76-1.45,7.16-3.06,12.79A170.29,170.29,0,0,1,184.19,71.63Z"/><path class="cls-27" d="M166.36,103.21l3.08-1.29c-3.13,5.87-4.39,9.5-4.89,11.55a1.48,1.48,0,0,0,1.92,1.74c6.9-2.47,9.2-13.32,9.2-13.32s3.18-4.65,3.76-4.77l-5.69-3.41c-.74,1.47-1.86,3.84-3.87,4.58a17.18,17.18,0,0,0-4.73,3.25A1.06,1.06,0,0,0,166.36,103.21Z"/><path class="cls-26" d="M153.87,70.44a198.41,198.41,0,0,1-15.51,18.09l4.48,4.67a138.25,138.25,0,0,0,18.38-15.9,194.36,194.36,0,0,0,21.35-26.58c1.76-1.79-2.57-11.22-3.3-11.37a7.9,7.9,0,0,0-6.13,1.4h0a8.85,8.85,0,0,0-2.46,2.67,6.81,6.81,0,0,0-.37.7c-1.19,2.47-3.21,6.36-6.17,11.24A168.16,168.16,0,0,1,153.87,70.44Z"/><path class="cls-27" d="M129,95.58l3.23-.43a51.14,51.14,0,0,0-7.56,9.61A1.45,1.45,0,0,0,126,106.9c7.12-.55,12.07-10.18,12.07-10.18s4.19-3.55,4.77-3.52l-4.48-4.67c.27.28-2.73,3.13-4.82,3.32a16.45,16.45,0,0,0-5.28,1.84A1,1,0,0,0,129,95.58Z"/><ellipse class="cls-5" cx="37.89" cy="400.04" rx="37.89" ry="4.59"/><path class="cls-34" d="M48,208.52c-1.79-6.83-7-11.32-14-11.36a13.88,13.88,0,0,0-8.2,2.87,5.7,5.7,0,0,0-2.36,2.64,20.87,20.87,0,0,1-1.54,2.91L21.65,204c.12,1.81-1.75,4.49-2.61,5.91-1.88,3.13-3.76,6.21-5.49,9.42A28.29,28.29,0,0,0,10,232.15c-.15,3.08.51,6.49,2.74,8.79,2.65,2.72,6.32,3.89,9.32,6,1.55,1.11,3,2.07,3.24,4.15a5.43,5.43,0,0,1-.08,1.93c-.36,1.25-1.3,1.25-1.89,2.07,3.63,2.91,9.51.08,12.86-1.8,4.11-2.31,8.26-5.79,9.57-10.6,1.17-4.34,1.57-9.21,2.15-13.68.39-2.92.4-6,.52-8.91C48.6,216.19,49,212.4,48,208.52Z"/><path class="cls-35" d="M56.65,207.59c-5.11,0-7.84-3.58-9.89-7.21A54.38,54.38,0,0,1,45.22,193a6.75,6.75,0,0,0-8.34-5.38l-3.47.91a126.31,126.31,0,0,0,1.49,15.12c.84,4.12,2.54,9.63,7.74,10.53a88.26,88.26,0,0,0,11.08,1.61c-2.4-.87-4.27-3.76-5.53-5.67C50.83,209.13,54.3,209.51,56.65,207.59Z"/><path class="cls-25" d="M34.48,222.72l.58-.9a7.29,7.29,0,0,1,3.09-2.62l.61-.22c1.18-.39,2.42-.84,3.7-1.31h0c10.15-3.72,23.12-9.43,27.8-11.52l1.8-.81s.37-.72,1-2c2.53-5.17,9.19-19.36,10.37-27.87A56.87,56.87,0,0,1,82.9,165c.89-2.18,1.85,0,2.85,4.34l1.69-7.57a2.58,2.58,0,0,1,4.69-.84c2.32,3.78-1,11.9-3.81,15.83-1,10.68-7.84,26.59-9.88,31.16a1.06,1.06,0,0,1-.11.21h0a14,14,0,0,1-5,6.33c-4.48,3.1-12.36,8.49-18.22,12.15a69.15,69.15,0,0,1-10.92,5.7,11.31,11.31,0,0,1-5.6.37A6.57,6.57,0,0,1,34.48,222.72Z"/><path class="cls-36" d="M55.47,284.86l0-.07S55.48,284.85,55.47,284.86Z"/><path class="cls-27" d="M25.72,205.24c-1.14-1.59-1.63-4.1-.22-4.83a2.68,2.68,0,0,1,1.58-.19c-1-5.44.36-12.53,3.87-14.38,4.6-2.41,9.71-1.8,15.62,10.24,2.34,4.77,1.19,11.3-3.15,14.09-3.26,2.09-9,0-12.55-3.15C29.13,207.23,27.16,207.24,25.72,205.24Z"/><path class="cls-26" d="M43,200.82l.07,0c.52-.32,1.19-.8,1-1.35-.22-.77-2-.86-2.7-.86a.28.28,0,0,0-.29.28.3.3,0,0,0,.28.29c1,0,2.1.22,2.16.44,0,0,0,.23-.78.72a.28.28,0,0,0-.1.39A.28.28,0,0,0,43,200.82Z"/><path class="cls-26" d="M43.74,204.19c.3-.12.47-.22.48-.22a.34.34,0,0,0,.12-.44.32.32,0,0,0-.44-.12c-.14.08-3.52,2-5.83-1.12a.32.32,0,0,0-.45-.07.33.33,0,0,0-.07.45A5,5,0,0,0,43.74,204.19Z"/><path class="cls-26" d="M33.83,197.38a.31.31,0,0,0,.23-.26,2,2,0,0,1,2.18-1.89.31.31,0,0,0,.34-.29.32.32,0,0,0-.29-.35A2.65,2.65,0,0,0,33.42,197a.31.31,0,0,0,.27.36A.22.22,0,0,0,33.83,197.38Z"/><path class="cls-26" d="M40.87,193.37a.28.28,0,0,0,.29-.05,1.7,1.7,0,0,1,2.42,0,.27.27,0,0,0,.38,0,.28.28,0,0,0,0-.39,2.23,2.23,0,0,0-3.17,0,.27.27,0,0,0,0,.38A.31.31,0,0,0,40.87,193.37Z"/><path class="cls-26" d="M35.85,198.76c.27.74.81,1.22,1.21,1.08s.52-.86.25-1.6-.8-1.21-1.2-1.07S35.59,198,35.85,198.76Z"/><path class="cls-26" d="M42.52,196.61c.26.73.8,1.21,1.2,1.07s.52-.86.26-1.59-.8-1.22-1.21-1.08S42.26,195.87,42.52,196.61Z"/><path class="cls-25" d="M43.78,228.41c-8.68-.8-13.69-7-15.74-10.41l1.44-2.42a24.07,24.07,0,0,0,2.17-4.69l1.56-4.58L39.47,209a9.66,9.66,0,0,0,.23,7A5.08,5.08,0,0,0,42,218.56l0,0,2.44,1.13C50.54,227.64,43.78,228.41,43.78,228.41Z"/><path class="cls-27" d="M61.23,320.09v.15c0,.31,0,.59,0,.89,0,.6-.17,2.3-.12,3.27a51.61,51.61,0,0,1-.08,6.13c-1.26,20.58-10.72,62.31-11.16,64.2v.07c-2-.2-3.76-.48-5.75-.63,0-.17.08-.34.11-.51,2.14-10.23,2.15-31.84,2-34.37s-.47-5.81,2-6.82c0,0-.88-10.24-2-22.1-.15-1.71-.32-3.47-.48-5.23-.34-3.68-.72-7.37-1.1-10.88-.48-3.76-1.6-12.3-2.1-14.77-.26,2.24-1.14,9-1.74,13.57h0c-.13,1-.27,2-.41,2.94,0,.23,0,.42-.08.6-.4,2.94-.82,5.88-1.25,8.77-.24,1.67-.49,3.32-.74,4.92-1.62,10.55-3.28,19.53-4.39,22.76C28.74,368.3,21.87,385,15.71,396.8l-1.84-1.11c-.93-.53-1.86-1.07-2.8-1.65l-.25-.17C17.06,384.76,19.25,352,25,352.72c0-.24,0-.52,0-.82,0-3.76-.66-12.22-1.34-21.77h0c-.33-4.73-.66-9.73-.93-14.55v-.07c0-.81-.1-1.64-.13-2.44h0c-.4-9.17-.82-21.25-.46-23.17.14-.72.29-1.43.45-2.16H61c0,.74.05,1.47,0,2.19v.25c0,1.45,0,2.87,0,4.29,0,7,.09,13.71.17,18.6v1.07C61.24,315.86,61.24,317.82,61.23,320.09Z"/><path class="cls-37" d="M61.23,320.09v.15c0,.31,0,.59,0,.89,0,.6-.17,2.3-.12,3.27a51.61,51.61,0,0,1-.08,6.13l-14.49-.16h-.29l-7.58-.08h-.29l-14.46-.16h0c-.33-4.73-.66-9.73-.93-14.55v-.07c0-.81-.1-1.64-.13-2.44h0c-.41-9.17-.82-21.25-.46-23.17.14-.72.29-1.43.45-2.16H61c0,.74.05,1.47,0,2.19v.25c0,1.45,0,2.87,0,4.29,0,7,.09,13.71.17,18.6v1.07C61.24,315.86,61.24,317.82,61.23,320.09Z"/><path class="cls-38" d="M27.78,274.18a46.68,46.68,0,0,0-5.2,13.55H61c-.48-9.21-4.77-19.21-7.16-27.87-.3-1.2-.59-2.41-.81-3.63a31.46,31.46,0,0,1,.11-12.85l2.49-9.61a9.7,9.7,0,0,0-3.28-9.37,30.85,30.85,0,0,0-7-4.27l-.91-.42s.06,0,.09.07c2.35,1.77.54,5.52-2.34,5-6.83-1.27-10-8.37-14.2-6.75l-.59,1.78a27.51,27.51,0,0,0-1.29,7.31c-.09,1.58-.94.67-.26,4.72.37,2.15,7.29,16,9.07,24.42a12.55,12.55,0,0,1,.33,4.43,1.25,1.25,0,0,1,0,.19h0C34.34,266,30.39,269.81,27.78,274.18Z"/><path class="cls-26" d="M11,393.29c-3,7.53,2.87,7.73,17.63,7.86,2.05,0,3.51-2.14,0-3.26l-11.1-4.78s-5.39-.12-6.47-.07Z"/><path class="cls-26" d="M43.86,393.29c-3,7.53,2.86,7.73,17.63,7.86,2,0,3.51-2.14,0-3.26l-11.1-4.78S45,393,44,393Z"/><path class="cls-39" d="M48.08,152.32a26,26,0,0,1,8-19.25c14.1-13.93,37.38-16.74,56.2-15.39,12.75.92,21.61,7.08,23.23,21q.08.66.12,1.32a24.4,24.4,0,0,1-14.52,23.75h0A59.24,59.24,0,0,1,106,168.27c-5.24.84-11.91,1.95-15.81,2.79-13.11,2.81-30.93,4.52-39.09-8.78A20.68,20.68,0,0,1,48.08,152.32Z"/><text/><path class="cls-27" d="M24.82,224.35l.56-.91a7.21,7.21,0,0,1,3-2.7l.61-.25c1.16-.42,2.39-.9,3.66-1.4l.05,0c10-4,22.85-10.06,27.47-12.28l1.78-.85s.35-.73.93-2c2.38-5.24,8.64-19.6,9.6-28.14a56.72,56.72,0,0,1-.85-10.43c.83-2.21,1.85-.05,3,4.25L76.09,162a2.58,2.58,0,0,1,4.66-1c2.43,3.72-.67,11.93-3.37,15.94-.72,10.7-7.11,26.79-9,31.42a.62.62,0,0,1-.1.2h0a13.88,13.88,0,0,1-4.86,6.47c-4.38,3.22-12.12,8.83-17.87,12.65a68.49,68.49,0,0,1-10.76,6,11.26,11.26,0,0,1-5.58.52A6.57,6.57,0,0,1,24.82,224.35Z"/><path class="cls-40" d="M39,183.41c-15.22-7.26-26.66,10.93-18.15,20.31,2.83,3.12-1.07,9.9,3.47,12.61,3.17,1.89,5.77,3.75,9.6,2.25-1.94-1.67-2.48-1.83-3-4.06,2.82,0,5.93,1.6,8.81.65-4.79-1.79-6.05-6.14-6.66-10.26-.12-.75-.44-4.43-.7-7.52,1.13-2.73,3-5.09,5.19-6.07a8.93,8.93,0,0,1-1.71,3.76,26,26,0,0,0,6.33-3.41C46.89,187.44,45.52,186.52,39,183.41Z"/><text/><path class="cls-41" d="M114.66,309.25h-.13a1.07,1.07,0,0,1-.94-1.19c.21-1.81.45-3.61.72-5.35a1.07,1.07,0,0,1,2.12.33c-.27,1.71-.5,3.48-.71,5.27A1.07,1.07,0,0,1,114.66,309.25Zm1.64-10.57-.21,0a1.07,1.07,0,0,1-.84-1.26c.36-1.79.75-3.56,1.18-5.27a1.07,1.07,0,0,1,2.08.52c-.42,1.68-.81,3.42-1.16,5.17A1.07,1.07,0,0,1,116.3,298.68Zm2.61-10.38a1.17,1.17,0,0,1-.32,0,1.07,1.07,0,0,1-.7-1.34c.54-1.76,1.13-3.49,1.76-5.13a1.07,1.07,0,1,1,2,.76c-.61,1.6-1.19,3.28-1.72,5A1.07,1.07,0,0,1,118.91,288.3Zm3.81-10a1,1,0,0,1-.45-.1,1.07,1.07,0,0,1-.52-1.42c.77-1.67,1.6-3.3,2.47-4.84a1.07,1.07,0,1,1,1.87,1.05c-.84,1.5-1.65,3.07-2.4,4.69A1.07,1.07,0,0,1,122.72,278.31ZM128,269a1,1,0,0,1-.61-.19,1.06,1.06,0,0,1-.27-1.49c1-1.51,2.15-3,3.3-4.33a1.06,1.06,0,0,1,1.51-.13,1.08,1.08,0,0,1,.13,1.51,51.41,51.41,0,0,0-3.18,4.17A1.07,1.07,0,0,1,128,269Zm6.9-8.15a1.07,1.07,0,0,1-.74-1.84,49.84,49.84,0,0,1,4.14-3.56,1.08,1.08,0,0,1,1.51.19,1.07,1.07,0,0,1-.2,1.5,49.55,49.55,0,0,0-4,3.41A1,1,0,0,1,134.89,260.86Zm8.47-6.51a1.07,1.07,0,0,1-.56-2,51.49,51.49,0,0,1,4.81-2.58,1.07,1.07,0,1,1,.91,1.93,50.93,50.93,0,0,0-4.61,2.48A1.08,1.08,0,0,1,143.36,254.35Zm9.66-4.56a1.07,1.07,0,0,1-.36-2.07q1.07-.39,2.16-.72a1.07,1.07,0,1,1,.63,2c-.7.22-1.39.45-2.08.69A1,1,0,0,1,153,249.79Z"/><path class="cls-42" d="M272.64,309.25a1.07,1.07,0,0,1-1.06-.94c-.21-1.79-.45-3.56-.71-5.27a1.07,1.07,0,0,1,2.12-.33c.26,1.74.51,3.54.72,5.35a1.08,1.08,0,0,1-.94,1.19ZM271,298.68a1.07,1.07,0,0,1-1.05-.86c-.35-1.75-.74-3.49-1.16-5.17a1.07,1.07,0,1,1,2.08-.52c.42,1.71.82,3.48,1.18,5.27a1.08,1.08,0,0,1-.84,1.26Zm-2.61-10.38a1.06,1.06,0,0,1-1-.75c-.53-1.72-1.11-3.4-1.72-5a1.07,1.07,0,1,1,2-.76c.63,1.64,1.22,3.37,1.76,5.13a1.07,1.07,0,0,1-.7,1.34A1.17,1.17,0,0,1,268.39,288.3Zm-3.81-10a1.07,1.07,0,0,1-1-.62c-.75-1.62-1.56-3.19-2.4-4.69a1.07,1.07,0,0,1,1.87-1.05c.87,1.54,1.7,3.17,2.47,4.84a1.07,1.07,0,0,1-.52,1.42A1,1,0,0,1,264.58,278.31Zm-5.27-9.3a1.07,1.07,0,0,1-.88-.46,51.41,51.41,0,0,0-3.18-4.17,1.07,1.07,0,0,1,1.64-1.38c1.15,1.36,2.26,2.82,3.3,4.33a1.07,1.07,0,0,1-.88,1.68Zm-6.9-8.15a1,1,0,0,1-.74-.3,51.36,51.36,0,0,0-4-3.41,1.07,1.07,0,1,1,1.3-1.69,50,50,0,0,1,4.15,3.56,1.07,1.07,0,0,1-.74,1.84Zm-8.47-6.51a1.15,1.15,0,0,1-.56-.15,48.38,48.38,0,0,0-4.61-2.48,1.07,1.07,0,1,1,.92-1.93,51.49,51.49,0,0,1,4.81,2.58,1.07,1.07,0,0,1-.56,2Zm-9.66-4.56a1.13,1.13,0,0,1-.36-.06q-1-.36-2.07-.69a1.07,1.07,0,1,1,.63-2q1.1.33,2.16.72a1.05,1.05,0,0,1,.65,1.36A1.07,1.07,0,0,1,234.28,249.79Z"/><path class="cls-43" d="M197.68,252a3.64,3.64,0,1,1-3.64-3.64A3.64,3.64,0,0,1,197.68,252Z"/><path class="cls-44" d="M194,311.68a1.07,1.07,0,0,1-1.07-1.07v-5.36a1.07,1.07,0,0,1,2.14,0v5.36A1.07,1.07,0,0,1,194,311.68ZM194,301A1.07,1.07,0,0,1,193,299.9v-5.35a1.07,1.07,0,0,1,2.14,0v5.35A1.07,1.07,0,0,1,194,301Zm0-10.7A1.07,1.07,0,0,1,193,289.2v-5.36a1.07,1.07,0,0,1,2.14,0v5.36A1.07,1.07,0,0,1,194,290.27Zm0-10.71a1.07,1.07,0,0,1-1.07-1.07v-5.35a1.07,1.07,0,0,1,2.14,0v5.35A1.07,1.07,0,0,1,194,279.56Zm0-10.71a1.06,1.06,0,0,1-1.07-1.07v-5.35a1.07,1.07,0,0,1,2.14,0v5.35A1.06,1.06,0,0,1,194,268.85Zm0-10.7a1.07,1.07,0,0,1-1.07-1.07v-5.35a1.07,1.07,0,0,1,2.14,0v5.35A1.07,1.07,0,0,1,194,258.15Z"/><ellipse class="cls-5" cx="344.05" cy="400.04" rx="50.58" ry="4.59"/><path class="cls-45" d="M308.56,306s-6.32,1.58-9.46-.89a19.34,19.34,0,0,0-9.84-15.52c-2.31-1.32-4.74-1.82-6.53-1.15-4.25,1.59-9.1,5.24-3.64,15.8,0,0-2.46,4.91,1.55,3.24,2.29,4.09,7.19,6.8,11.56,5.59a5.47,5.47,0,0,0,2.41-1.5,95.55,95.55,0,0,0,8.4,4.63Z"/><path class="cls-46" d="M282.49,301.32c.35.83.28,1.64-.15,1.81s-1-.34-1.39-1.17-.27-1.63.15-1.81S282.15,300.5,282.49,301.32Z"/><path class="cls-46" d="M283.2,298.19a.35.35,0,0,1-.38-.05,2.2,2.2,0,0,0-3.14.06.35.35,0,1,1-.52-.48,2.91,2.91,0,0,1,4.12-.12.37.37,0,0,1,0,.5A.47.47,0,0,1,283.2,298.19Z"/><path class="cls-46" d="M283.43,309.24a.35.35,0,0,1,.21-.32,2.21,2.21,0,0,0,1.3-2.87.35.35,0,1,1,.65-.25,2.9,2.9,0,0,1-1.66,3.76.36.36,0,0,1-.47-.18A.32.32,0,0,1,283.43,309.24Z"/><path class="cls-47" d="M305.43,301.17c1-1.15,3.1-5.4,0-3-.39.29-.86.68-1.37,1a33.33,33.33,0,0,0,.2-4.54c.74-10.43-6.53-16.24-14.46-16.54-6-.22-13.15,5.55-15,8.78a10,10,0,0,1-1.19.45c-1.42.42-2.66.47-3.92,1.25-.79.49-2.75,1.68-2.72,2.65,0,1.39,2.13,1.47,3.13,1.16-1.82,1.35-3.22,6.91.18,7.31,1.5.18,3.29-.84,4.91-2.21a9,9,0,0,1,4.69-2.12,4.25,4.25,0,0,1,2.86.5c1,.66,2,1.28,3,1.85.07.21.14.42.19.62.36,1.64.95,3.67,2.84,4.09,4,.87.72-4.56.64-7.16,1-1.45,2.94-1.94,5.28.92,1.59,1.94,1.64,4.39,1.81,6.74a10.13,10.13,0,0,0,.24,2.86c1.66,4.64,7.31,1.39,9.11,0A5,5,0,0,0,308,302C307.92,299.86,306.81,300.93,305.43,301.17Z"/><path class="cls-48" d="M351.63,351.75s-6.63,30.49-6,31.77c0,0,10.18,7.5,33.12.93l.06,5.3c-53.14,18.28-51.73,4.49-45.47-38Z"/><path class="cls-46" d="M381.74,400.37h4.42c3.62-.26,1.09-6,.67-7-.72-1.73-.93-6.11-.72-7.94a2.76,2.76,0,0,0,0-.76,2.53,2.53,0,0,0-3.7-1.63c-.95.52-2.25.76-3.61,1.44l.06,5.3,2,2.85a3.5,3.5,0,0,1,.26,3.68l-.56,1.05A2.2,2.2,0,0,0,381.74,400.37Z"/><path class="cls-49" d="M349.66,334.91s13.1,24.13-3.79,26.23a21.42,21.42,0,0,1-7.44-.47c-10.41-2.43-19.08-5.57-20.09-3.64-1.18,2.29-4.78,14.3-.37,37.75h-5c-13-39.23-14-64.09,16.86-54.29l.08-5.34Z"/><path class="cls-46" d="M303.82,400l.34.09c2.12.46,7.08-.26,9.79.2l2.11,0c2.48,0,2.54-2.16,2-4.46l.06-1-4.9,0-9.75,3.25A1.05,1.05,0,0,0,303.82,400Z"/><path class="cls-50" d="M329.8,341.56s15.6,3,23.62,1.17c0,0-10.44-31-26.8-38.64a19.64,19.64,0,0,0-19.33,1.26,16.3,16.3,0,0,0-6.71,9.66c-2.13,8.24,13.68,11.89,19.43,18.17C323.64,337.15,324.47,340.86,329.8,341.56Z"/><path class="cls-45" d="M276.27,385.06l4.86-2.62L300,351.21l1.1-1.8S303,333.23,303,321.62c0-3.24.51-5.46,3.31-7.12,3.38-2,6.12-1.15,8.21,2.59a15.85,15.85,0,0,1,1.32,11.66l-2,18.14a25.29,25.29,0,0,1-6.63,14.42L285,385.11l-3.65,5.67c-.7,1.1-4.22,4.7-6.52,4.7a3.85,3.85,0,0,1-3.87-3.84v-.25C271,390,275,385.74,276.27,385.06Z"/></g></g></g></svg>