<svg xmlns="http://www.w3.org/2000/svg" xmlns:xlink="http://www.w3.org/1999/xlink" viewBox="0 0 127.64 126.52"><defs><style>.cls-1{isolation:isolate;}.cls-2{fill:#f1f1f1;mix-blend-mode:multiply;}.cls-3{fill:#b56a70;}.cls-4{fill:#5e217f;}.cls-5{fill:url(#linear-gradient);}.cls-6{fill:url(#linear-gradient-2);}.cls-7{fill:url(#linear-gradient-3);}.cls-8{fill:url(#linear-gradient-4);}</style><linearGradient id="linear-gradient" x1="58" y1="46.42" x2="1.83" y2="-0.5" gradientUnits="userSpaceOnUse"><stop offset="0" stop-color="#410784"/><stop offset="0.22" stop-color="#450c85"/><stop offset="0.49" stop-color="#521b8a"/><stop offset="0.78" stop-color="#683390"/><stop offset="0.99" stop-color="#7c4a97"/></linearGradient><linearGradient id="linear-gradient-2" x1="63.34" y1="96.59" x2="111.85" y2="96.59" gradientUnits="userSpaceOnUse"><stop offset="0" stop-color="#410784"/><stop offset="0.04" stop-color="#450b85"/><stop offset="0.27" stop-color="#5d278d"/><stop offset="0.51" stop-color="#6e3a93"/><stop offset="0.75" stop-color="#794696"/><stop offset="0.99" stop-color="#7c4a97"/></linearGradient><linearGradient id="linear-gradient-3" x1="37.38" y1="86.74" x2="87.51" y2="86.74" xlink:href="#linear-gradient-2"/><linearGradient id="linear-gradient-4" x1="106.21" y1="33.13" x2="30.97" y2="54.77" gradientUnits="userSpaceOnUse"><stop offset="0" stop-color="#f6abb0"/><stop offset="0.65" stop-color="#df5591"/><stop offset="1" stop-color="#d22780"/></linearGradient></defs><title>Asset 10</title><g class="cls-1"><g id="Layer_2" data-name="Layer 2"><g id="OBJECTS"><ellipse class="cls-2" cx="77.06" cy="121.93" rx="50.58" ry="4.59"/><path class="cls-3" d="M41.57,27.85S35.25,29.44,32.1,27a19.33,19.33,0,0,0-9.83-15.52C20,10.12,17.53,9.63,15.74,10.3c-4.25,1.58-9.1,5.23-3.64,15.79,0,0-2.46,4.91,1.55,3.25,2.29,4.08,7.19,6.79,11.56,5.58a5.45,5.45,0,0,0,2.41-1.49A94.36,94.36,0,0,0,36,38.05Z"/><path class="cls-4" d="M15.5,23.21c.34.83.27,1.64-.15,1.82s-1-.35-1.39-1.17-.28-1.64.15-1.82S15.16,22.39,15.5,23.21Z"/><path class="cls-4" d="M16.21,20.08a.34.34,0,0,1-.38,0,2.22,2.22,0,0,0-3.15.06.34.34,0,0,1-.49,0,.36.36,0,0,1,0-.5,2.9,2.9,0,0,1,4.11-.11.35.35,0,0,1,0,.49A.47.47,0,0,1,16.21,20.08Z"/><path class="cls-4" d="M16.44,31.13a.37.37,0,0,1,.2-.32A2.2,2.2,0,0,0,18,28a.35.35,0,1,1,.65-.26,2.89,2.89,0,0,1-1.66,3.76.36.36,0,0,1-.47-.17A.4.4,0,0,1,16.44,31.13Z"/><path class="cls-5" d="M38.44,23.06c1-1.15,3.09-5.39,0-3-.39.3-.86.69-1.37,1a35,35,0,0,0,.2-4.54C38,6.11,30.73.31,22.8,0c-6-.23-13.15,5.55-15,8.77a10.73,10.73,0,0,1-1.19.45C5.22,9.66,4,9.7,2.71,10.49,1.93,11,0,12.16,0,13.14c0,1.38,2.13,1.46,3.12,1.16-1.81,1.34-3.21,6.9.19,7.3,1.49.18,3.29-.84,4.91-2.2a8.92,8.92,0,0,1,4.68-2.12,4.32,4.32,0,0,1,2.87.49c1,.66,2,1.29,3,1.85a5.1,5.1,0,0,1,.2.63c.36,1.63.94,3.66,2.84,4.08,4,.88.72-4.55.64-7.16,1-1.44,2.94-1.93,5.28.93,1.59,1.94,1.64,4.38,1.81,6.73a9.78,9.78,0,0,0,.24,2.86c1.66,4.64,7.31,1.4,9.11,0A4.94,4.94,0,0,0,41,23.91C40.93,21.76,39.81,22.82,38.44,23.06Z"/><path class="cls-6" d="M84.63,73.64s-6.62,30.49-6,31.77c0,0,10.18,7.51,33.11.94l.07,5.29c-53.14,18.28-51.74,4.5-45.47-38Z"/><path class="cls-4" d="M114.75,122.26h4.42c3.62-.26,1.09-6,.67-7-.72-1.74-.94-6.12-.72-7.95a2.67,2.67,0,0,0,0-.75,2.52,2.52,0,0,0-3.7-1.63c-1,.51-2.25.75-3.62,1.44l.07,5.29,2,2.86a3.47,3.47,0,0,1,.27,3.67l-.56,1A2.2,2.2,0,0,0,114.75,122.26Z"/><path class="cls-7" d="M82.67,56.8S95.77,80.94,78.87,83a21.37,21.37,0,0,1-7.43-.48C61,80.14,52.36,77,51.35,78.93c-1.19,2.28-4.78,14.3-.37,37.74H46c-13-39.23-14-64.09,16.86-54.29l.08-5.33Z"/><path class="cls-4" d="M36.83,121.85l.34.09c2.12.45,7.08-.27,9.78.19l2.12,0c2.48,0,2.54-2.16,2-4.46,0,0,0-.49.06-1l-4.89,0L36.48,120A1.06,1.06,0,0,0,36.83,121.85Z"/><path class="cls-8" d="M62.81,63.45s15.6,3,23.62,1.17c0,0-10.44-31-26.81-38.63A19.62,19.62,0,0,0,40.3,27.24a16.33,16.33,0,0,0-6.71,9.66C31.46,45.15,47.27,48.79,53,55.07,56.65,59,57.48,62.76,62.81,63.45Z"/><path class="cls-3" d="M9.27,107l4.87-2.62L33,73.11l1.1-1.8S36,55.12,36,43.51c0-3.23.51-5.46,3.3-7.12,3.38-2,6.12-1.15,8.21,2.59a15.82,15.82,0,0,1,1.33,11.67l-2,18.14A25.3,25.3,0,0,1,40.21,83.2L18,107l-3.65,5.66c-.7,1.1-4.22,4.71-6.52,4.71A3.86,3.86,0,0,1,4,113.54v-.26C4,111.87,8,107.63,9.27,107Z"/></g></g></g></svg>