<?xml version="1.0" encoding="utf-8"?>
<!-- Generator: Adobe Illustrator 16.0.0, SVG Export Plug-In . SVG Version: 6.00 Build 0)  -->
<!DOCTYPE svg PUBLIC "-//W3C//DTD SVG 1.1//EN" "http://www.w3.org/Graphics/SVG/1.1/DTD/svg11.dtd">
<svg version="1.1" id="Layer_1" xmlns="http://www.w3.org/2000/svg" xmlns:xlink="http://www.w3.org/1999/xlink" x="0px" y="0px"
	 width="344px" height="88px" viewBox="0 0 344 88" enable-background="new 0 0 344 88" xml:space="preserve">
<g transform="translate(0.000000,1080.000000) scale(0.100000,-0.100000)">
	<path fill="#FFFFFF" d="M2449.326,10571.562c-40.771-7.813-95.791-39.902-121.909-70.801
		c-19.395-23.477-29.688-41.074-40.771-70.42c-46.309-120.879,33.247-259.365,165.054-287.139c31.665-6.66,53.828-6.66,87.476,0.391
		c122.3,25.43,200.273,147.871,169.404,266.016c-10.688,41.465-28.501,72.764-58.188,101.719
		C2598.144,10563.349,2523.34,10585.263,2449.326,10571.562z"/>
	<path fill="#FFFFFF" d="M1179.18,10524.628c-8.711-5.098-12.666-26.211-7.52-39.902c7.915-20.352,39.58-21.914,46.309-1.963
		C1228.257,10515.233,1205.303,10539.882,1179.18,10524.628z"/>
	<path fill="#FFFFFF" d="M1320.088,10520.712c-7.129-7.822-7.52-16.436-7.52-162.744v-154.531l9.893-7.813
		c8.711-7.051,14.248-7.441,73.223-6.27c55.806,1.172,65.313,2.344,79.16,9.785c36.416,19.16,57.393,53.594,57.393,95.059
		c0,30.908-9.102,52.031-31.27,73.945c-15.435,15.254-16.226,16.426-10.288,25.039c3.164,5.078,7.52,18.379,9.893,29.727
		c7.524,38.73-9.893,74.336-45.518,94.668c-18.994,10.957-21.372,11.348-73.618,11.348
		C1331.562,10528.925,1327.212,10528.144,1320.088,10520.712z M1438.037,10462.812c10.288-11.348,11.475-15.645,9.897-28.555
		c-1.191-8.613-5.146-18.789-9.106-23.086c-9.106-10.176-31.27-16.035-53.037-14.473l-17.813,1.172l-1.187,40.684l-1.187,40.293
		l30.474-1.563C1424.58,10476.112,1426.958,10475.331,1438.037,10462.812z M1452.68,10338.017
		c14.644-7.822,28.101-28.555,28.101-43.037c0-15.645-11.079-35.596-24.541-43.809c-10.684-6.26-19.79-7.822-51.455-7.822h-38.784
		v50.85v50.859h36.807C1430.512,10345.058,1442.387,10343.495,1452.68,10338.017z"/>
	<path fill="#FFFFFF" d="M2145.737,10520.312c-6.729-7.422-7.915-13.691-7.915-46.543c0-39.512-1.187-42.646-19.395-42.646
		s-27.31-31.689-13.062-44.209c3.955-3.906,13.062-6.641,19.79-6.641h12.666v-72.383c0-79.414,2.773-91.934,21.772-106.797
		c23.35-17.988,53.823-13.691,59.761,9.004c2.773,11.738-6.328,27.383-18.203,31.289c-7.524,2.344-7.915,5.488-7.915,70.811v68.076
		h11.079c6.729,0,14.648,3.906,19.79,8.984c15.835,16.836,8.711,36.777-15.039,41.475l-13.853,2.744l-1.978,42.246
		c-1.587,35.996-3.169,43.027-9.502,47.725C2172.26,10531.659,2155.239,10530.097,2145.737,10520.312z"/>
	<path fill="#FFFFFF" d="M790.493,10516.405c-3.56-4.688-6.328-11.738-6.328-15.254c0-5.869,111.221-271.504,124.282-296.143
		c9.893-18.779,27.705-21.904,40.767-7.432c4.355,4.688,36.021,74.326,70.059,154.521c52.642,124.014,61.748,147.49,58.579,156.484
		c-3.96,12.129-18.604,18.779-33.247,15.264c-11.479-3.135-11.875-4.316-72.432-146.709c-21.372-50.068-39.98-89.58-41.558-88.018
		c-1.587,1.563-23.75,52.422-49.477,112.656c-25.332,60.254-49.082,112.676-52.642,116.582
		C819.785,10528.144,798.013,10526.972,790.493,10516.405z"/>
	<path fill="#FFFFFF" d="M1177.598,10425.644c-7.129-5.469-7.524-12.129-8.711-111.494l-1.187-106.006l9.897-9.785
		c11.87-11.738,22.163-12.52,34.434-2.344l9.497,7.422v105.625c0,98.203-0.396,106.025-7.52,113.848
		C1205.303,10432.294,1189.072,10433.476,1177.598,10425.644z"/>
	<path fill="#FFFFFF" d="M1609.028,10425.644c-7.129-5.469-7.524-11.738-8.711-110.703c-1.187-102.109-0.791-105.625,7.124-115.801
		c9.897-12.52,22.954-13.691,36.021-3.125c9.102,7.031,9.497,10.166,10.293,62.588c1.182,50.068,1.978,57.119,10.684,74.326
		c10.684,20.742,30.083,41.855,41.162,44.6c3.564,1.172,13.457,3.135,21.372,4.697c15.835,2.344,22.959,10.566,22.959,26.602
		c0,24.648-36.016,30.117-73.223,10.566c-26.123-13.691-25.728-13.301-25.728-6.66
		C1650.981,10427.987,1624.067,10436.21,1609.028,10425.644z"/>
	<path fill="#FFFFFF" d="M1865.903,10424.472c-22.563-7.822-51.055-35.596-63.33-62.197c-12.271-27.002-13.853-64.551-3.164-95.459
		c10.684-31.289,43.931-63.77,75.205-72.363c28.101-8.223,57.388-6.27,81.138,5.859l16.626,8.213l9.102-9.775
		c11.875-12.91,23.354-12.91,35.625-0.391l9.893,9.395v100.137c0,115.801-1.582,122.842-28.501,123.232
		c-6.729,0-13.452-3.525-17.808-8.994l-7.124-9.395l-19.79,9.004C1930.42,10432.694,1892.422,10433.866,1865.903,10424.472z
		 M1940.312,10371.269c51.455-34.033,42.354-111.104-15.435-128.311c-28.496-8.223-60.557,5.869-73.618,33.252
		c-9.897,20.332-8.311,56.719,2.769,73.145c13.853,20.352,32.456,30.918,54.229,30.918
		C1920.923,10380.272,1931.211,10377.528,1940.312,10371.269z"/>
</g>
<ellipse fill="#ED1F24" cx="249.435" cy="44.619" rx="12.369" ry="12.301"/>
</svg>
