<?xml version="1.0" encoding="utf-8"?>
<!-- Generator: Adobe Illustrator 23.0.3, SVG Export Plug-In . SVG Version: 6.00 Build 0)  -->
<svg version="1.1" xmlns="http://www.w3.org/2000/svg" xmlns:xlink="http://www.w3.org/1999/xlink" x="0px" y="0px"
	 viewBox="0 0 500 500" style="enable-background:new 0 0 500 500;" xml:space="preserve">
<style type="text/css">
	.st0{opacity:0.1;}
	.st1{fill:#5E217F;}
	.st2{fill:url(#SVGID_1_);}
	.st3{fill:url(#SVGID_2_);}
	.st4{fill:url(#SVGID_3_);}
	.st5{fill:#F1F1F1;}
	.st6{fill:url(#SVGID_4_);}
	.st7{fill:#F7B502;}
	.st8{fill:url(#SVGID_5_);}
	.st9{fill:url(#SVGID_6_);}
	.st10{fill:url(#SVGID_7_);}
	.st11{fill:url(#SVGID_8_);}
	.st12{fill:url(#SVGID_9_);}
	.st13{fill:url(#SVGID_10_);}
	.st14{fill:url(#SVGID_11_);}
	.st15{fill:url(#SVGID_12_);}
	.st16{fill:url(#SVGID_13_);}
	.st17{fill:url(#SVGID_14_);}
	.st18{fill:url(#SVGID_15_);}
	.st19{fill:url(#SVGID_16_);}
	.st20{fill:url(#SVGID_17_);}
	.st21{fill:url(#SVGID_18_);}
	.st22{fill:url(#SVGID_19_);}
	.st23{fill:url(#SVGID_20_);}
	.st24{fill:url(#SVGID_21_);}
	.st25{fill:#F6ABB0;}
	.st26{fill:#410784;}
	.st27{fill:#F7B8B7;}
	.st28{fill:url(#SVGID_22_);}
	.st29{fill:url(#SVGID_23_);}
	.st30{fill:url(#SVGID_24_);}
	.st31{fill:url(#SVGID_25_);}
	.st32{fill:url(#SVGID_26_);}
	.st33{fill:url(#SVGID_27_);}
	.st34{fill:url(#SVGID_28_);}
	.st35{fill:url(#SVGID_29_);}
	.st36{fill:#41A9FD;}
	.st37{fill:#FDD54D;}
	.st38{fill:url(#SVGID_30_);}
	.st39{fill:url(#SVGID_31_);}
	.st40{fill:#D22780;}
	.st41{fill:url(#SVGID_32_);}
	.st42{fill:url(#SVGID_33_);}
	.st43{fill:url(#SVGID_34_);}
	.st44{fill:url(#SVGID_35_);}
	.st45{fill:url(#SVGID_36_);}
	.st46{fill:#B56A70;}
	.st47{fill:url(#SVGID_37_);}
	.st48{fill:url(#SVGID_38_);}
	.st49{fill:url(#SVGID_39_);}
	.st50{fill:url(#SVGID_40_);}
</style>
<g id="BACKGROUND">
	<g class="st0">
		<g>
			<path class="st1" d="M433.42,178.15c-3.58-17.89-11.3-34.94-22.74-48.76c-14.03-16.94-33.25-29.53-54.41-35.54
				c-23.24-6.6-47.74-5.21-71.42-2.13c-22.93,2.98-45.56,4.24-68.76,3.41c-22.46-0.8-45.22-1.47-67.13,3.54
				c-21.6,4.94-43.54,16.31-55.83,35.43c-13.34,20.76-9.04,48.33,1.74,69.16c8.48,16.41,19.23,32.48,17.53,51.82
				c-0.81,9.26-2.11,18.48-3.89,27.6c-3.55,18.26-3.85,37.48,1.05,55.52c4.39,16.17,13.05,31.33,25.59,42.43
				c24.49,21.68,64.04,29.27,95.86,28.73c29.11-0.5,58.13-14.02,76.58-36.68c11.43-14.04,18.31-31.01,28.25-46.03
				c16.79-25.35,43.65-32.37,66.28-50.52C430.88,253.08,440.44,213.25,433.42,178.15z"/>
		</g>
		<g>
			<g>
				<path class="st1" d="M107.36,84.45c-0.24-1.2-0.59-2.34-1.03-3.44l3.33-2.74l-8.06-9.79l-3.42,2.81
					c-2.47-1.53-5.27-2.52-8.21-2.88l-0.89-4.38l-12.43,2.52l0.89,4.38c-2.27,1.3-4.23,3-5.81,5.01l-4.18-1.48L63.31,86.4l4.08,1.45
					c-0.04,1.52,0.08,3.06,0.39,4.62c0.22,1.08,0.52,2.12,0.89,3.11l-3.28,2.7l8.06,9.79l3.2-2.63c2.54,1.63,5.44,2.7,8.51,3.07
					l0.81,4.01L98.4,110l-0.81-4.01c2.37-1.35,4.41-3.16,6.02-5.28l3.9,1.39l4.25-11.95l-3.99-1.42
					C107.78,87.32,107.65,85.89,107.36,84.45z M89.41,97.57c-5.13,1.04-10.14-2.28-11.18-7.42c-1.04-5.14,2.28-10.14,7.42-11.18
					c5.14-1.04,10.14,2.28,11.18,7.42C97.87,91.53,94.55,96.53,89.41,97.57z"/>
				<path class="st1" d="M138.02,73.53c-0.15-0.72-0.36-1.4-0.61-2.06l2-1.64l-4.83-5.87l-2.05,1.69c-1.48-0.92-3.16-1.51-4.93-1.73
					l-0.53-2.62l-7.45,1.51l0.53,2.62c-1.36,0.78-2.54,1.8-3.48,3l-2.51-0.89l-2.55,7.17l2.44,0.87c-0.03,0.91,0.05,1.84,0.23,2.77
					c0.13,0.65,0.31,1.27,0.54,1.87l-1.96,1.62l4.83,5.87l1.92-1.58c1.52,0.98,3.26,1.62,5.1,1.84l0.49,2.4l7.45-1.51l-0.49-2.4
					c1.42-0.81,2.64-1.89,3.61-3.17l2.34,0.83l2.55-7.17l-2.39-0.85C138.27,75.25,138.2,74.39,138.02,73.53z M127.26,81.4
					c-3.08,0.62-6.09-1.37-6.71-4.45c-0.62-3.08,1.37-6.09,4.45-6.71c3.08-0.62,6.09,1.37,6.71,4.45
					C132.34,77.77,130.35,80.78,127.26,81.4z"/>
				<path class="st1" d="M83.14,133.35c-0.15-0.72-0.36-1.4-0.61-2.06l2-1.64l-4.83-5.87l-2.05,1.69c-1.48-0.92-3.16-1.51-4.93-1.73
					l-0.53-2.62l-7.45,1.51l0.53,2.62c-1.36,0.78-2.54,1.8-3.48,3l-2.51-0.89l-2.55,7.17l2.44,0.87c-0.03,0.91,0.05,1.84,0.23,2.77
					c0.13,0.65,0.31,1.27,0.54,1.87l-1.96,1.62l4.83,5.87l1.92-1.58c1.52,0.98,3.26,1.62,5.1,1.84l0.49,2.4l7.45-1.51l-0.49-2.4
					c1.42-0.81,2.64-1.89,3.61-3.17l2.34,0.83l2.55-7.17l-2.39-0.85C83.39,135.07,83.32,134.22,83.14,133.35z M72.38,141.23
					c-3.08,0.62-6.09-1.37-6.71-4.45c-0.62-3.08,1.37-6.09,4.45-6.71c3.08-0.62,6.09,1.37,6.71,4.45
					C77.46,137.6,75.46,140.6,72.38,141.23z"/>
			</g>
			<g>
				<path class="st1" d="M388.91,338.49c-1.04,0.1-2.05,0.29-3.03,0.56l-2.04-3.09l-9.09,5.99l2.09,3.17
					c-1.53,1.97-2.63,4.26-3.2,6.75l-3.81,0.36l1.02,10.83l3.81-0.36c0.9,2.05,2.18,3.88,3.74,5.41l-1.64,3.43l9.81,4.71l1.61-3.35
					c1.29,0.18,2.62,0.21,3.97,0.08c0.94-0.09,1.85-0.25,2.74-0.48l2,3.04l9.09-5.99l-1.95-2.97c1.62-2.02,2.8-4.4,3.39-6.98
					l3.49-0.33l-1.02-10.83l-3.49,0.33c-0.94-2.14-2.3-4.05-3.96-5.62l1.54-3.2l-9.81-4.71l-1.57,3.28
					C391.4,338.4,390.16,338.38,388.91,338.49z M398.48,355c0.42,4.47-2.86,8.44-7.34,8.87c-4.48,0.42-8.44-2.87-8.87-7.34
					c-0.42-4.48,2.86-8.44,7.34-8.87C394.09,347.24,398.06,350.52,398.48,355z"/>
				<path class="st1" d="M424.18,289.63c-1.43,0.13-2.81,0.4-4.14,0.77l-2.79-4.24l-12.45,8.2l2.86,4.35
					c-2.09,2.69-3.6,5.84-4.39,9.24l-5.22,0.49l1.4,14.84l5.22-0.49c1.24,2.81,2.99,5.32,5.13,7.41l-2.25,4.7l13.44,6.45l2.2-4.58
					c1.77,0.24,3.59,0.29,5.44,0.12c1.28-0.12,2.54-0.35,3.75-0.66l2.74,4.16l12.45-8.2l-2.68-4.06c2.23-2.76,3.83-6.02,4.64-9.56
					l4.78-0.45l-1.4-14.84l-4.78,0.45c-1.29-2.94-3.14-5.54-5.42-7.69l2.1-4.38l-13.44-6.45l-2.15,4.49
					C427.59,289.5,425.9,289.47,424.18,289.63z M437.29,312.23c0.58,6.13-3.92,11.57-10.05,12.14c-6.13,0.58-11.57-3.93-12.14-10.05
					c-0.58-6.13,3.92-11.57,10.05-12.14C431.27,301.6,436.71,306.1,437.29,312.23z"/>
				<path class="st1" d="M376.94,306.63c-0.73,0.07-1.43,0.2-2.11,0.39l-1.42-2.16l-6.35,4.18l1.46,2.22
					c-1.07,1.37-1.84,2.98-2.24,4.72l-2.66,0.25l0.71,7.57l2.66-0.25c0.63,1.43,1.52,2.71,2.62,3.78l-1.15,2.4l6.86,3.29l1.12-2.34
					c0.9,0.12,1.83,0.15,2.78,0.06c0.66-0.06,1.3-0.18,1.91-0.34l1.4,2.12l6.35-4.18l-1.36-2.07c1.14-1.41,1.95-3.07,2.37-4.88
					l2.44-0.23l-0.71-7.57l-2.44,0.23c-0.66-1.5-1.6-2.83-2.77-3.93l1.07-2.24l-6.86-3.29l-1.1,2.29
					C378.68,306.56,377.82,306.54,376.94,306.63z M383.63,318.16c0.29,3.13-2,5.91-5.14,6.2c-3.13,0.3-5.91-2.01-6.2-5.14
					c-0.3-3.13,2-5.91,5.14-6.2C380.56,312.73,383.34,315.03,383.63,318.16z"/>
			</g>
		</g>
		<g>
			<g id="XMLID_2_">
				<path class="st1" d="M48.02,255.46c0.67,1.89,1.89,3.54,3.49,4.74c0.63,0.47,0.49,1.5-0.25,1.77c-1.87,0.7-3.5,1.95-4.68,3.57
					c-0.48,0.67-1.53,0.52-1.8-0.26c-0.67-1.89-1.89-3.54-3.49-4.74c-0.64-0.47-0.49-1.5,0.25-1.77c1.88-0.7,3.51-1.95,4.68-3.57
					C46.71,254.53,47.75,254.68,48.02,255.46z"/>
			</g>
			<g id="XMLID_4_">
				<path class="st1" d="M35.93,231.82c0.67,1.89,1.89,3.54,3.49,4.74c0.63,0.47,0.49,1.5-0.25,1.77c-1.87,0.7-3.5,1.95-4.68,3.57
					c-0.48,0.67-1.53,0.52-1.8-0.26c-0.67-1.89-1.89-3.54-3.49-4.74c-0.64-0.47-0.49-1.5,0.25-1.77c1.88-0.7,3.51-1.95,4.68-3.57
					C34.61,230.89,35.65,231.04,35.93,231.82z"/>
			</g>
			<g id="XMLID_5_">
				<path class="st1" d="M44.09,208.49c0.67,1.89,1.89,3.54,3.49,4.74c0.63,0.47,0.49,1.5-0.25,1.77c-1.87,0.7-3.5,1.95-4.68,3.57
					c-0.48,0.67-1.53,0.52-1.8-0.26c-0.67-1.89-1.89-3.54-3.49-4.74c-0.64-0.47-0.49-1.5,0.25-1.77c1.88-0.7,3.51-1.95,4.68-3.57
					C42.77,207.57,43.81,207.71,44.09,208.49z"/>
			</g>
			<g id="XMLID_8_">
				<path class="st1" d="M469.81,222.03c0.67,1.89,1.89,3.54,3.49,4.74c0.63,0.47,0.49,1.5-0.25,1.77c-1.87,0.7-3.5,1.95-4.68,3.57
					c-0.48,0.67-1.53,0.52-1.8-0.26c-0.67-1.89-1.89-3.54-3.49-4.74c-0.64-0.47-0.49-1.5,0.25-1.77c1.88-0.7,3.51-1.95,4.68-3.57
					C468.49,221.11,469.53,221.26,469.81,222.03z"/>
			</g>
			<g id="XMLID_7_">
				<path class="st1" d="M444.4,240.07c0.67,1.89,1.89,3.54,3.49,4.74c0.63,0.47,0.49,1.5-0.25,1.77c-1.87,0.7-3.5,1.95-4.68,3.57
					c-0.48,0.67-1.53,0.52-1.8-0.26c-0.67-1.89-1.89-3.54-3.49-4.74c-0.64-0.47-0.49-1.5,0.25-1.77c1.88-0.7,3.51-1.95,4.68-3.57
					C443.08,239.14,444.12,239.29,444.4,240.07z"/>
			</g>
			<g id="XMLID_6_">
				<path class="st1" d="M454.65,197.81c0.67,1.89,1.89,3.54,3.49,4.74c0.63,0.47,0.49,1.5-0.25,1.77c-1.87,0.7-3.5,1.95-4.68,3.57
					c-0.48,0.67-1.53,0.52-1.8-0.26c-0.67-1.89-1.89-3.54-3.49-4.74c-0.64-0.47-0.49-1.5,0.25-1.77c1.88-0.7,3.51-1.95,4.68-3.57
					C453.33,196.88,454.37,197.03,454.65,197.81z"/>
			</g>
		</g>
	</g>
</g>
<g id="OBJECTS">
	<g>
		
			<linearGradient id="SVGID_1_" gradientUnits="userSpaceOnUse" x1="237.7945" y1="373.6188" x2="237.7945" y2="185.9965" gradientTransform="matrix(0.8866 0.4626 -0.4626 0.8866 138.5828 -91.3502)">
			<stop  offset="3.886220e-03" style="stop-color:#410784"/>
			<stop  offset="0.0367" style="stop-color:#450B85"/>
			<stop  offset="0.2712" style="stop-color:#5D278D"/>
			<stop  offset="0.5085" style="stop-color:#6E3A93"/>
			<stop  offset="0.7483" style="stop-color:#794696"/>
			<stop  offset="0.9942" style="stop-color:#7C4A97"/>
		</linearGradient>
		<path class="st2" d="M217.06,258.66c-1.9-0.54-3.81-0.89-5.71-1.08l-1.46-6.84l-20.08,4.31l1.5,7.01
			c-4.03,2.42-7.55,5.7-10.25,9.67l-6.95-1.98l-5.62,19.75l6.95,1.98c0.18,4.23,1.18,8.32,2.88,12.08l-5.24,4.91l14.03,15l5.11-4.79
			c2.15,1.19,4.47,2.17,6.93,2.87c1.71,0.49,3.43,0.82,5.14,1.03l1.44,6.72l20.08-4.31l-1.4-6.56c4.24-2.44,7.93-5.82,10.74-9.96
			l6.37,1.81l5.62-19.75l-6.37-1.81c-0.18-4.41-1.27-8.69-3.12-12.59l4.89-4.57l-14.04-15l-5.01,4.69
			C221.5,260.19,219.35,259.31,217.06,258.66z M222.59,294.23c-2.32,8.16-10.82,12.89-18.98,10.57
			c-8.16-2.32-12.89-10.82-10.57-18.98c2.32-8.16,10.82-12.89,18.98-10.57C220.18,277.58,224.91,286.07,222.59,294.23z"/>
		
			<linearGradient id="SVGID_2_" gradientUnits="userSpaceOnUse" x1="318.1397" y1="417.4566" x2="318.1397" y2="195.5078" gradientTransform="matrix(0.8866 0.4626 -0.4626 0.8866 138.5828 -91.3502)">
			<stop  offset="3.886220e-03" style="stop-color:#410784"/>
			<stop  offset="0.0367" style="stop-color:#450B85"/>
			<stop  offset="0.2712" style="stop-color:#5D278D"/>
			<stop  offset="0.5085" style="stop-color:#6E3A93"/>
			<stop  offset="0.7483" style="stop-color:#794696"/>
			<stop  offset="0.9942" style="stop-color:#7C4A97"/>
		</linearGradient>
		<path class="st3" d="M327.13,212.93c-3.08-0.88-6.17-1.44-9.25-1.75l-2.37-11.08l-32.53,6.98l2.43,11.36
			c-6.53,3.91-12.23,9.23-16.61,15.68l-11.27-3.21l-9.11,32.01l11.27,3.21c0.29,6.85,1.91,13.48,4.67,19.58l-8.49,7.95l22.74,24.3
			l8.29-7.75c3.48,1.93,7.24,3.51,11.23,4.65c2.77,0.79,5.56,1.34,8.33,1.67l2.34,10.89l32.53-6.98l-2.28-10.62
			c6.87-3.95,12.85-9.43,17.4-16.13l10.32,2.94l9.11-32.01l-10.31-2.94c-0.3-7.15-2.05-14.08-5.05-20.4l7.92-7.41l-22.74-24.3
			l-8.11,7.6C334.32,215.41,330.84,213.99,327.13,212.93z M336.09,270.57c-3.76,13.22-17.53,20.89-30.75,17.12
			c-13.22-3.76-20.89-17.54-17.12-30.75c3.76-13.22,17.53-20.89,30.75-17.12C332.19,243.58,339.85,257.35,336.09,270.57z"/>
		
			<linearGradient id="SVGID_3_" gradientUnits="userSpaceOnUse" x1="193.1777" y1="385.7558" x2="193.1777" y2="198.1333" gradientTransform="matrix(0.8866 0.4626 -0.4626 0.8866 138.5828 -91.3502)">
			<stop  offset="3.886220e-03" style="stop-color:#410784"/>
			<stop  offset="0.0367" style="stop-color:#450B85"/>
			<stop  offset="0.2712" style="stop-color:#5D278D"/>
			<stop  offset="0.5085" style="stop-color:#6E3A93"/>
			<stop  offset="0.7483" style="stop-color:#794696"/>
			<stop  offset="0.9942" style="stop-color:#7C4A97"/>
		</linearGradient>
		<path class="st4" d="M200.09,198.84c-1.33-0.38-2.66-0.62-3.99-0.76l-1.02-4.78l-14.03,3.01l1.05,4.9
			c-2.82,1.69-5.27,3.98-7.16,6.76l-4.86-1.38l-3.93,13.8l4.86,1.38c0.13,2.95,0.82,5.81,2.01,8.44l-3.66,3.43l9.81,10.48l3.57-3.34
			c1.5,0.83,3.12,1.51,4.84,2.01c1.19,0.34,2.4,0.58,3.59,0.72l1.01,4.7l14.03-3.01l-0.98-4.58c2.96-1.7,5.54-4.07,7.51-6.96
			l4.45,1.27l3.93-13.8l-4.45-1.27c-0.13-3.08-0.89-6.07-2.18-8.8l3.42-3.2l-9.81-10.48l-3.5,3.28
			C203.19,199.91,201.69,199.3,200.09,198.84z M204.35,221.62c-0.68,7.68-8.74,12.18-15.64,8.72c-3.85-1.93-6.2-6.15-5.81-10.44
			c0.7-7.67,8.73-12.15,15.62-8.71C202.38,213.12,204.73,217.33,204.35,221.62z"/>
	</g>
	<g>
		<ellipse class="st5" cx="169.11" cy="442.04" rx="22.89" ry="3.48"/>
		<g>
			<g>
				<g>
					<linearGradient id="SVGID_4_" gradientUnits="userSpaceOnUse" x1="169.4363" y1="415.2728" x2="169.4363" y2="375.0639">
						<stop  offset="1.943110e-03" style="stop-color:#F5D61D"/>
						<stop  offset="0.0759" style="stop-color:#F6DC3E"/>
						<stop  offset="0.2014" style="stop-color:#F9E571"/>
						<stop  offset="0.3297" style="stop-color:#FBED9D"/>
						<stop  offset="0.4583" style="stop-color:#FCF4C0"/>
						<stop  offset="0.5873" style="stop-color:#FDF9DC"/>
						<stop  offset="0.7171" style="stop-color:#FEFCEF"/>
						<stop  offset="0.8482" style="stop-color:#FFFEFB"/>
						<stop  offset="0.9825" style="stop-color:#FFFFFF"/>
					</linearGradient>
					<path class="st6" d="M190.71,383.18c-0.03,6.73-3.13,12.73-7.98,16.67c-1.72,1.4-2.69,3.52-2.69,5.75v1.97
						c0,3.13-1.33,5.88-3.45,7.78H161.7c-0.09-0.07-0.17-0.14-0.26-0.23c-1.97-1.9-3.19-4.53-3.19-7.54v-1.97
						c0-2.24-1-4.37-2.74-5.78c-3.62-2.95-6.26-7.07-7.36-11.77c0.62,0.32,1.25,0.62,1.85,0.9c7.94,3.55,14.65,3.35,19.27-3.46
						c0,0,10.54-12.82,18.78-8.17c0.78,0.43,1.55,1.03,2.26,1.81C190.59,380.45,190.71,381.79,190.71,383.18z"/>
					<g>
						<path class="st7" d="M164.96,388h-1.89c-1.45,0-2.63-1.22-2.63-2.72c0-1.5,1.18-2.72,2.63-2.72h0.14
							c1.45,0,2.63,1.22,2.63,2.72v1.84h6.83v-1.84c0-1.5,1.18-2.72,2.63-2.72h0.12c1.45,0,2.63,1.22,2.63,2.72
							c0,1.5-1.18,2.72-2.63,2.72h-1.87v28.23h-0.88V388h-6.83l-0.01,28.67h-0.87V388z M164.96,385.28c0-1.01-0.79-1.84-1.75-1.84
							h-0.14c-0.97,0-1.75,0.83-1.75,1.84s0.79,1.84,1.75,1.84h1.89V385.28z M175.31,383.44c-0.97,0-1.75,0.83-1.75,1.84v1.84h1.87
							c0.97,0,1.75-0.83,1.75-1.84s-0.79-1.84-1.75-1.84H175.31z"/>
					</g>
					<linearGradient id="SVGID_5_" gradientUnits="userSpaceOnUse" x1="146.1027" y1="389.4522" x2="192.1514" y2="389.4522">
						<stop  offset="0" style="stop-color:#F7B502"/>
						<stop  offset="0.0833" style="stop-color:#F8BA0E"/>
						<stop  offset="0.3027" style="stop-color:#FAC62A"/>
						<stop  offset="0.5249" style="stop-color:#FCCE3D"/>
						<stop  offset="0.7492" style="stop-color:#FDD349"/>
						<stop  offset="0.9793" style="stop-color:#FDD54D"/>
					</linearGradient>
					<path class="st8" d="M191.75,378c-1.98-10.44-11.09-18.49-22.07-18.76c-12.97-0.31-23.58,10.11-23.58,23.01
						c0,1.82,0.2,3.59,0.62,5.27c1.18,5.03,3.99,9.42,7.86,12.57c1.86,1.5,2.92,3.77,2.92,6.17v2.1c0,3.22,1.3,6.03,3.4,8.06
						c0.09,0.09,0.19,0.17,0.28,0.25c2.07,1.89,4.87,3,7.95,3c3.08,0,5.88-1.11,7.95-3c2.26-2.03,3.68-4.96,3.68-8.3v-2.1
						c0-2.38,1.04-4.64,2.88-6.14c5.18-4.21,8.49-10.61,8.52-17.8C192.15,380.84,192.03,379.4,191.75,378z M182.49,399.55
						c-1.7,1.42-2.64,3.57-2.64,5.81v1.99c0,4.1-2.18,7.52-5.4,9.31c-1.56,0.88-3.39,1.38-5.32,1.38c-1.93,0-3.74-0.49-5.3-1.38
						c-0.83-0.45-1.59-1.02-2.26-1.69c-1.93-1.92-3.14-4.58-3.14-7.62v-1.99c0-2.27-0.99-4.42-2.69-5.85
						c-3.34-2.81-5.85-6.65-7.04-11.04c-0.51-1.86-0.77-3.82-0.77-5.85c0-12.22,9.77-22.08,21.71-21.79
						c9.23,0.23,17.02,6.6,19.7,15.22c0.65,2.1,1.01,4.35,0.99,6.65C190.31,389.52,187.25,395.58,182.49,399.55z"/>
					<linearGradient id="SVGID_6_" gradientUnits="userSpaceOnUse" x1="157.4566" y1="424.0085" x2="180.7547" y2="424.0085">
						<stop  offset="3.886220e-03" style="stop-color:#D22780"/>
						<stop  offset="0.3459" style="stop-color:#DF5591"/>
						<stop  offset="1" style="stop-color:#F6ABB0"/>
					</linearGradient>
					<path class="st9" d="M169.11,437.68L169.11,437.68c6.43,0,11.65-5.22,11.65-11.65v-15.69h-23.3v15.69
						C157.46,432.46,162.67,437.68,169.11,437.68z"/>
					<linearGradient id="SVGID_7_" gradientUnits="userSpaceOnUse" x1="155.8548" y1="421.67" x2="182.4053" y2="421.67">
						<stop  offset="0" style="stop-color:#F6ABB0"/>
						<stop  offset="0.6541" style="stop-color:#DF5591"/>
						<stop  offset="0.9961" style="stop-color:#D22780"/>
					</linearGradient>
					<path class="st10" d="M157.33,423.15h23.6c0.81,0,1.47-0.66,1.47-1.48l0,0c0-0.81-0.66-1.48-1.47-1.48h-23.6
						c-0.81,0-1.48,0.66-1.48,1.48l0,0C155.85,422.48,156.52,423.15,157.33,423.15z"/>
					<linearGradient id="SVGID_8_" gradientUnits="userSpaceOnUse" x1="155.8548" y1="411.2899" x2="182.4053" y2="411.2899">
						<stop  offset="0" style="stop-color:#F6ABB0"/>
						<stop  offset="0.6541" style="stop-color:#DF5591"/>
						<stop  offset="0.9961" style="stop-color:#D22780"/>
					</linearGradient>
					<path class="st11" d="M157.33,412.76h23.6c0.81,0,1.47-0.66,1.47-1.48l0,0c0-0.81-0.66-1.48-1.47-1.48h-23.6
						c-0.81,0-1.48,0.66-1.48,1.48l0,0C155.85,412.1,156.52,412.76,157.33,412.76z"/>
					<linearGradient id="SVGID_9_" gradientUnits="userSpaceOnUse" x1="155.8548" y1="426.7786" x2="182.4053" y2="426.7786">
						<stop  offset="0" style="stop-color:#F6ABB0"/>
						<stop  offset="0.6541" style="stop-color:#DF5591"/>
						<stop  offset="0.9961" style="stop-color:#D22780"/>
					</linearGradient>
					<path class="st12" d="M157.33,428.25h23.6c0.81,0,1.47-0.66,1.47-1.48l0,0c0-0.81-0.66-1.48-1.47-1.48h-23.6
						c-0.81,0-1.48,0.66-1.48,1.48l0,0C155.85,427.59,156.52,428.25,157.33,428.25z"/>
				</g>
			</g>
		</g>
	</g>
	<g>
		<ellipse class="st5" cx="249.9" cy="442.04" rx="22.89" ry="3.48"/>
		<g>
			<g>
				<g>
					<linearGradient id="SVGID_10_" gradientUnits="userSpaceOnUse" x1="250.2216" y1="415.2728" x2="250.2216" y2="375.0639">
						<stop  offset="1.943110e-03" style="stop-color:#F5D61D"/>
						<stop  offset="0.0759" style="stop-color:#F6DC3E"/>
						<stop  offset="0.2014" style="stop-color:#F9E571"/>
						<stop  offset="0.3297" style="stop-color:#FBED9D"/>
						<stop  offset="0.4583" style="stop-color:#FCF4C0"/>
						<stop  offset="0.5873" style="stop-color:#FDF9DC"/>
						<stop  offset="0.7171" style="stop-color:#FEFCEF"/>
						<stop  offset="0.8482" style="stop-color:#FFFEFB"/>
						<stop  offset="0.9825" style="stop-color:#FFFFFF"/>
					</linearGradient>
					<path class="st13" d="M271.49,383.18c-0.03,6.73-3.13,12.73-7.98,16.67c-1.72,1.4-2.69,3.52-2.69,5.75v1.97
						c0,3.13-1.33,5.88-3.45,7.78h-14.89c-0.09-0.07-0.17-0.14-0.26-0.23c-1.97-1.9-3.19-4.53-3.19-7.54v-1.97
						c0-2.24-1-4.37-2.74-5.78c-3.62-2.95-6.26-7.07-7.36-11.77c0.62,0.32,1.25,0.62,1.85,0.9c7.94,3.55,14.65,3.35,19.27-3.46
						c0,0,10.54-12.82,18.78-8.17c0.78,0.43,1.55,1.03,2.26,1.81C271.38,380.45,271.49,381.79,271.49,383.18z"/>
					<g>
						<path class="st7" d="M245.75,388h-1.89c-1.45,0-2.63-1.22-2.63-2.72c0-1.5,1.18-2.72,2.63-2.72H244
							c1.45,0,2.63,1.22,2.63,2.72v1.84h6.83v-1.84c0-1.5,1.18-2.72,2.63-2.72h0.12c1.45,0,2.63,1.22,2.63,2.72
							c0,1.5-1.18,2.72-2.63,2.72h-1.87v28.23h-0.88V388h-6.83l-0.01,28.67h-0.87V388z M245.75,385.28c0-1.01-0.79-1.84-1.75-1.84
							h-0.14c-0.96,0-1.75,0.83-1.75,1.84s0.79,1.84,1.75,1.84h1.89V385.28z M256.09,383.44c-0.97,0-1.75,0.83-1.75,1.84v1.84h1.87
							c0.97,0,1.75-0.83,1.75-1.84s-0.79-1.84-1.75-1.84H256.09z"/>
					</g>
					<linearGradient id="SVGID_11_" gradientUnits="userSpaceOnUse" x1="226.888" y1="389.4522" x2="272.9367" y2="389.4522">
						<stop  offset="0" style="stop-color:#F7B502"/>
						<stop  offset="0.0833" style="stop-color:#F8BA0E"/>
						<stop  offset="0.3027" style="stop-color:#FAC62A"/>
						<stop  offset="0.5249" style="stop-color:#FCCE3D"/>
						<stop  offset="0.7492" style="stop-color:#FDD349"/>
						<stop  offset="0.9793" style="stop-color:#FDD54D"/>
					</linearGradient>
					<path class="st14" d="M272.53,378c-1.98-10.44-11.09-18.49-22.07-18.76c-12.97-0.31-23.58,10.11-23.58,23.01
						c0,1.82,0.2,3.59,0.62,5.27c1.18,5.03,3.99,9.42,7.86,12.57c1.86,1.5,2.92,3.77,2.92,6.17v2.1c0,3.22,1.3,6.03,3.4,8.06
						c0.09,0.09,0.19,0.17,0.28,0.25c2.07,1.89,4.87,3,7.95,3c3.08,0,5.88-1.11,7.95-3c2.26-2.03,3.68-4.96,3.68-8.3v-2.1
						c0-2.38,1.04-4.64,2.88-6.14c5.18-4.21,8.49-10.61,8.52-17.8C272.94,380.84,272.81,379.4,272.53,378z M263.27,399.55
						c-1.7,1.42-2.64,3.57-2.64,5.81v1.99c0,4.1-2.18,7.52-5.4,9.31c-1.56,0.88-3.39,1.38-5.32,1.38c-1.93,0-3.74-0.49-5.3-1.38
						c-0.83-0.45-1.59-1.02-2.26-1.69c-1.93-1.92-3.14-4.58-3.14-7.62v-1.99c0-2.27-0.99-4.42-2.69-5.85
						c-3.34-2.81-5.85-6.65-7.04-11.04c-0.51-1.86-0.77-3.82-0.77-5.85c0-12.22,9.77-22.08,21.71-21.79
						c9.23,0.23,17.03,6.6,19.7,15.22c0.65,2.1,1.01,4.35,0.99,6.65C271.1,389.52,268.04,395.58,263.27,399.55z"/>
					<linearGradient id="SVGID_12_" gradientUnits="userSpaceOnUse" x1="238.2418" y1="424.0085" x2="261.54" y2="424.0085">
						<stop  offset="3.886220e-03" style="stop-color:#D22780"/>
						<stop  offset="0.3459" style="stop-color:#DF5591"/>
						<stop  offset="1" style="stop-color:#F6ABB0"/>
					</linearGradient>
					<path class="st15" d="M249.89,437.68L249.89,437.68c6.43,0,11.65-5.22,11.65-11.65v-15.69h-23.3v15.69
						C238.24,432.46,243.46,437.68,249.89,437.68z"/>
					<linearGradient id="SVGID_13_" gradientUnits="userSpaceOnUse" x1="236.6401" y1="421.67" x2="263.1905" y2="421.67">
						<stop  offset="0" style="stop-color:#F6ABB0"/>
						<stop  offset="0.6541" style="stop-color:#DF5591"/>
						<stop  offset="0.9961" style="stop-color:#D22780"/>
					</linearGradient>
					<path class="st16" d="M238.11,423.15h23.6c0.81,0,1.48-0.66,1.48-1.48l0,0c0-0.81-0.66-1.48-1.48-1.48h-23.6
						c-0.81,0-1.47,0.66-1.47,1.48l0,0C236.64,422.48,237.3,423.15,238.11,423.15z"/>
					<linearGradient id="SVGID_14_" gradientUnits="userSpaceOnUse" x1="236.6401" y1="411.2899" x2="263.1905" y2="411.2899">
						<stop  offset="0" style="stop-color:#F6ABB0"/>
						<stop  offset="0.6541" style="stop-color:#DF5591"/>
						<stop  offset="0.9961" style="stop-color:#D22780"/>
					</linearGradient>
					<path class="st17" d="M238.11,412.76h23.6c0.81,0,1.48-0.66,1.48-1.48l0,0c0-0.81-0.66-1.48-1.48-1.48h-23.6
						c-0.81,0-1.47,0.66-1.47,1.48l0,0C236.64,412.1,237.3,412.76,238.11,412.76z"/>
					<linearGradient id="SVGID_15_" gradientUnits="userSpaceOnUse" x1="236.6401" y1="426.7786" x2="263.1905" y2="426.7786">
						<stop  offset="0" style="stop-color:#F6ABB0"/>
						<stop  offset="0.6541" style="stop-color:#DF5591"/>
						<stop  offset="0.9961" style="stop-color:#D22780"/>
					</linearGradient>
					<path class="st18" d="M238.11,428.25h23.6c0.81,0,1.48-0.66,1.48-1.48l0,0c0-0.81-0.66-1.48-1.48-1.48h-23.6
						c-0.81,0-1.47,0.66-1.47,1.48l0,0C236.64,427.59,237.3,428.25,238.11,428.25z"/>
				</g>
			</g>
		</g>
	</g>
	<g>
		<ellipse class="st5" cx="327.92" cy="442.04" rx="22.89" ry="3.48"/>
		<g>
			<g>
				<g>
					<linearGradient id="SVGID_16_" gradientUnits="userSpaceOnUse" x1="328.2491" y1="415.2728" x2="328.2491" y2="375.0639">
						<stop  offset="1.943110e-03" style="stop-color:#F5D61D"/>
						<stop  offset="0.0759" style="stop-color:#F6DC3E"/>
						<stop  offset="0.2014" style="stop-color:#F9E571"/>
						<stop  offset="0.3297" style="stop-color:#FBED9D"/>
						<stop  offset="0.4583" style="stop-color:#FCF4C0"/>
						<stop  offset="0.5873" style="stop-color:#FDF9DC"/>
						<stop  offset="0.7171" style="stop-color:#FEFCEF"/>
						<stop  offset="0.8482" style="stop-color:#FFFEFB"/>
						<stop  offset="0.9825" style="stop-color:#FFFFFF"/>
					</linearGradient>
					<path class="st19" d="M349.52,383.18c-0.03,6.73-3.13,12.73-7.98,16.67c-1.72,1.4-2.69,3.52-2.69,5.75v1.97
						c0,3.13-1.33,5.88-3.45,7.78h-14.89c-0.09-0.07-0.17-0.14-0.26-0.23c-1.97-1.9-3.19-4.53-3.19-7.54v-1.97
						c0-2.24-1-4.37-2.74-5.78c-3.62-2.95-6.26-7.07-7.36-11.77c0.62,0.32,1.25,0.62,1.85,0.9c7.94,3.55,14.65,3.35,19.27-3.46
						c0,0,10.54-12.82,18.78-8.17c0.78,0.43,1.55,1.03,2.26,1.81C349.41,380.45,349.52,381.79,349.52,383.18z"/>
					<g>
						<path class="st7" d="M323.77,388h-1.89c-1.45,0-2.63-1.22-2.63-2.72c0-1.5,1.18-2.72,2.63-2.72h0.14
							c1.45,0,2.63,1.22,2.63,2.72v1.84h6.83v-1.84c0-1.5,1.18-2.72,2.63-2.72h0.12c1.45,0,2.63,1.22,2.63,2.72
							c0,1.5-1.18,2.72-2.63,2.72h-1.87v28.23h-0.88V388h-6.83l-0.01,28.67h-0.87V388z M323.77,385.28c0-1.01-0.79-1.84-1.75-1.84
							h-0.14c-0.97,0-1.75,0.83-1.75,1.84s0.79,1.84,1.75,1.84h1.89V385.28z M334.12,383.44c-0.97,0-1.75,0.83-1.75,1.84v1.84h1.87
							c0.97,0,1.75-0.83,1.75-1.84s-0.79-1.84-1.75-1.84H334.12z"/>
					</g>
					<linearGradient id="SVGID_17_" gradientUnits="userSpaceOnUse" x1="304.9155" y1="389.4522" x2="350.9642" y2="389.4522">
						<stop  offset="0" style="stop-color:#F7B502"/>
						<stop  offset="0.0833" style="stop-color:#F8BA0E"/>
						<stop  offset="0.3027" style="stop-color:#FAC62A"/>
						<stop  offset="0.5249" style="stop-color:#FCCE3D"/>
						<stop  offset="0.7492" style="stop-color:#FDD349"/>
						<stop  offset="0.9793" style="stop-color:#FDD54D"/>
					</linearGradient>
					<path class="st20" d="M350.56,378c-1.98-10.44-11.09-18.49-22.07-18.76c-12.97-0.31-23.58,10.11-23.58,23.01
						c0,1.82,0.2,3.59,0.62,5.27c1.18,5.03,3.99,9.42,7.86,12.57c1.86,1.5,2.92,3.77,2.92,6.17v2.1c0,3.22,1.3,6.03,3.4,8.06
						c0.09,0.09,0.19,0.17,0.28,0.25c2.07,1.89,4.87,3,7.95,3c3.08,0,5.88-1.11,7.95-3c2.26-2.03,3.68-4.96,3.68-8.3v-2.1
						c0-2.38,1.04-4.64,2.88-6.14c5.18-4.21,8.49-10.61,8.52-17.8C350.96,380.84,350.84,379.4,350.56,378z M341.3,399.55
						c-1.7,1.42-2.64,3.57-2.64,5.81v1.99c0,4.1-2.18,7.52-5.4,9.31c-1.56,0.88-3.39,1.38-5.32,1.38c-1.93,0-3.74-0.49-5.3-1.38
						c-0.83-0.45-1.59-1.02-2.26-1.69c-1.93-1.92-3.14-4.58-3.14-7.62v-1.99c0-2.27-0.99-4.42-2.69-5.85
						c-3.34-2.81-5.85-6.65-7.04-11.04c-0.51-1.86-0.77-3.82-0.77-5.85c0-12.22,9.77-22.08,21.71-21.79
						c9.23,0.23,17.02,6.6,19.7,15.22c0.65,2.1,1.01,4.35,0.99,6.65C349.12,389.52,346.06,395.58,341.3,399.55z"/>
					<linearGradient id="SVGID_18_" gradientUnits="userSpaceOnUse" x1="316.2694" y1="424.0085" x2="339.5675" y2="424.0085">
						<stop  offset="3.886220e-03" style="stop-color:#D22780"/>
						<stop  offset="0.3459" style="stop-color:#DF5591"/>
						<stop  offset="1" style="stop-color:#F6ABB0"/>
					</linearGradient>
					<path class="st21" d="M327.92,437.68L327.92,437.68c6.43,0,11.65-5.22,11.65-11.65v-15.69h-23.3v15.69
						C316.27,432.46,321.48,437.68,327.92,437.68z"/>
					<linearGradient id="SVGID_19_" gradientUnits="userSpaceOnUse" x1="314.6675" y1="421.67" x2="341.2181" y2="421.67">
						<stop  offset="0" style="stop-color:#F6ABB0"/>
						<stop  offset="0.6541" style="stop-color:#DF5591"/>
						<stop  offset="0.9961" style="stop-color:#D22780"/>
					</linearGradient>
					<path class="st22" d="M316.14,423.15h23.6c0.81,0,1.47-0.66,1.47-1.48l0,0c0-0.81-0.66-1.48-1.47-1.48h-23.6
						c-0.81,0-1.48,0.66-1.48,1.48l0,0C314.67,422.48,315.33,423.15,316.14,423.15z"/>
					<linearGradient id="SVGID_20_" gradientUnits="userSpaceOnUse" x1="314.6675" y1="411.2899" x2="341.2181" y2="411.2899">
						<stop  offset="0" style="stop-color:#F6ABB0"/>
						<stop  offset="0.6541" style="stop-color:#DF5591"/>
						<stop  offset="0.9961" style="stop-color:#D22780"/>
					</linearGradient>
					<path class="st23" d="M316.14,412.76h23.6c0.81,0,1.47-0.66,1.47-1.48l0,0c0-0.81-0.66-1.48-1.47-1.48h-23.6
						c-0.81,0-1.48,0.66-1.48,1.48l0,0C314.67,412.1,315.33,412.76,316.14,412.76z"/>
					<linearGradient id="SVGID_21_" gradientUnits="userSpaceOnUse" x1="314.6675" y1="426.7786" x2="341.2181" y2="426.7786">
						<stop  offset="0" style="stop-color:#F6ABB0"/>
						<stop  offset="0.6541" style="stop-color:#DF5591"/>
						<stop  offset="0.9961" style="stop-color:#D22780"/>
					</linearGradient>
					<path class="st24" d="M316.14,428.25h23.6c0.81,0,1.47-0.66,1.47-1.48l0,0c0-0.81-0.66-1.48-1.47-1.48h-23.6
						c-0.81,0-1.48,0.66-1.48,1.48l0,0C314.67,427.59,315.33,428.25,316.14,428.25z"/>
				</g>
			</g>
		</g>
	</g>
	<g>
		<path class="st25" d="M250.75,77.1c-2.94,17.94-7.88,20.94-15.52,3.89c0.96-0.37,1.71-0.66,1.84-0.74c0.71-0.61,1-1.39,0.98-2.59
			c-0.01-0.02-0.01-0.02-0.01-0.02c-0.02-0.18-0.04-0.36-0.06-0.52c-0.2-1.36-0.62-2.41-1.29-3.13l6.87-3.52l1.35,3.91
			c0.12,0.38,0.24,0.75,0.35,1.13c0.09,0.33,0.18,0.66,0.26,0.99l0.01,0.01c0,0.01,0,0.01,0,0.02c0.17,0.62,0.79,1.02,1.43,0.99
			C248.09,77.48,249.41,77.29,250.75,77.1z"/>
		<path class="st26" d="M267.66,114.5c-0.06,15.72-5.36,32.88-8.96,48.64c-15.64,1.87-27.92-0.69-39.62-11.43
			c4.11-10,13.43-18.23,14.84-29.26c1.4-11.03-4.7-21.07-7.61-31.04c-1.25-4.27,0.78-6.37,4.09-8.38c0.83-0.5,3.17-1.4,4.85-2.04
			c7.64,17.05,12.58,14.05,15.52-3.89c1.93-0.27,3.87-0.51,5.31-0.31c5.5,0.77,8.13,1.53,8.98,8.43
			C266.15,94.18,267.7,103.75,267.66,114.5z"/>
		<g>
			<path class="st27" d="M250.37,60.45c0.02-2.16-1.13-4.76-2.88-4.53c-0.52,0.07-1.06,0.38-1.56,0.85
				c-2.56-5.58-8.34-11.16-12.7-10.59c-5.72,0.74-9.97,4.57-7.65,19.28c0.92,5.82,6.14,11.03,11.86,10.79
				c4.3-0.18,8.15-5.69,9.4-10.88C248.55,64.45,250.34,63.2,250.37,60.45z"/>
			<g>
				<g>
					<g>
						<path class="st26" d="M231.89,67.45c-0.02,0.01-0.05,0.01-0.08,0.02c-0.67,0.04-1.59,0.03-1.81-0.57
							c-0.3-0.83,1.23-2.03,1.9-2.5c0.14-0.1,0.34-0.07,0.44,0.08c0.1,0.14,0.07,0.34-0.07,0.44c-0.95,0.67-1.76,1.54-1.68,1.78
							c0,0,0.13,0.22,1.17,0.15c0.17-0.01,0.32,0.12,0.34,0.29C232.11,67.28,232.02,67.41,231.89,67.45z"/>
					</g>
				</g>
				<g>
					<g>
						<path class="st26" d="M233.33,71.02c-0.35,0.08-0.57,0.1-0.58,0.1c-0.2,0.02-0.37-0.13-0.39-0.32
							c-0.02-0.2,0.11-0.37,0.32-0.39c0.18-0.01,4.45-0.46,4.58-4.74c0.01-0.2,0.17-0.35,0.37-0.35c0.2,0.01,0.35,0.17,0.35,0.37
							C237.86,69.59,234.66,70.72,233.33,71.02z"/>
					</g>
				</g>
				<path class="st26" d="M236.91,61.2"/>
				<g>
					<g>
						<path class="st26" d="M238.79,58.42c-0.13,0.04-0.28,0.01-0.37-0.1c-1.55-1.66-3.12-0.38-3.19-0.32
							c-0.15,0.13-0.38,0.11-0.5-0.04c-0.13-0.15-0.11-0.38,0.04-0.5c0.74-0.62,2.56-1.34,4.17,0.38c0.13,0.14,0.13,0.37-0.02,0.51
							C238.88,58.37,238.84,58.4,238.79,58.42z"/>
					</g>
				</g>
				<g>
					<g>
						<path class="st26" d="M229.02,59.35c-0.06,0.1-0.17,0.16-0.29,0.14c-1.9-0.2-2.19,1.47-2.2,1.54
							c-0.03,0.16-0.18,0.27-0.34,0.25c-0.16-0.03-0.28-0.18-0.25-0.35c0.13-0.8,0.89-2.26,2.86-2.05c0.16,0.02,0.28,0.17,0.27,0.33
							C229.05,59.27,229.04,59.31,229.02,59.35z"/>
					</g>
				</g>
				<path class="st26" d="M236.96,61.61c0.22,0.81,0.04,1.56-0.4,1.69c-0.45,0.12-0.99-0.43-1.22-1.24
					c-0.22-0.81-0.04-1.56,0.4-1.69C236.19,60.25,236.73,60.81,236.96,61.61z"/>
				<path class="st26" d="M229.57,63.47c0.22,0.81,0.04,1.56-0.4,1.69c-0.45,0.12-0.99-0.43-1.22-1.24
					c-0.22-0.81-0.04-1.56,0.4-1.69C228.8,62.11,229.35,62.66,229.57,63.47z"/>
			</g>
		</g>
		<g>
			<linearGradient id="SVGID_22_" gradientUnits="userSpaceOnUse" x1="242.7199" y1="74.8139" x2="205.7131" y2="-6.4691">
				<stop  offset="0" style="stop-color:#F7B502"/>
				<stop  offset="0.0833" style="stop-color:#F8BA0E"/>
				<stop  offset="0.3027" style="stop-color:#FAC62A"/>
				<stop  offset="0.5249" style="stop-color:#FCCE3D"/>
				<stop  offset="0.7492" style="stop-color:#FDD349"/>
				<stop  offset="0.9793" style="stop-color:#FDD54D"/>
			</linearGradient>
			<path class="st28" d="M232.49,43.99c-3.21,1.44-20.76,10.48-11.08,13.02c1.94,0.51,3.96,0.51,5.93,0.16
				c1.24-0.23,5.27-1.58,8.66-2.75c3.17-1.1,6.69-0.38,9.18,1.87l0,0c0,0-1.13,2.48-1.27,5.01c-0.08,1.37,1.89,1.68,2.25,0.36
				c0.79-2.87,1-6.76,1.05-8.7C247.34,47.99,240.39,40.45,232.49,43.99z"/>
		</g>
	</g>
	<g>
		<g>
			<g>
				<radialGradient id="SVGID_23_" cx="249.2601" cy="175.4051" r="72.3753" gradientUnits="userSpaceOnUse">
					<stop  offset="0" style="stop-color:#FFFFFF"/>
					<stop  offset="0.1367" style="stop-color:#FFFEFB"/>
					<stop  offset="0.2701" style="stop-color:#FEFCEF"/>
					<stop  offset="0.4022" style="stop-color:#FDF9DC"/>
					<stop  offset="0.5336" style="stop-color:#FCF4C0"/>
					<stop  offset="0.6644" style="stop-color:#FBED9D"/>
					<stop  offset="0.795" style="stop-color:#F9E571"/>
					<stop  offset="0.9228" style="stop-color:#F6DC3E"/>
					<stop  offset="0.9981" style="stop-color:#F5D61D"/>
				</radialGradient>
				<path class="st29" d="M310.63,171.12c0-34.76-28.59-62.84-63.53-62.01c-33.56,0.79-60.64,28.66-60.53,62.23
					c0.07,19.36,9.01,36.62,22.97,47.95c4.96,4.02,7.74,10.14,7.74,16.52v5.68c0,17.3,14.02,30.44,31.32,30.44l0,0
					c17.3,0,31.32-13.14,31.32-30.44v-5.69c0-6.44,2.88-12.55,7.88-16.62C301.73,207.81,310.63,190.51,310.63,171.12z"/>
				<g>
					<path class="st7" d="M259.83,263.86h-2.35l-0.02-77.25h-18.41v76.07h-2.37v-76.07h-5.03c-3.91,0-7.09-3.29-7.09-7.33
						c0-4.04,3.18-7.33,7.09-7.33h0.31c3.91,0,7.09,3.29,7.09,7.33v4.96h18.41v-4.96c0-4.04,3.18-7.33,7.09-7.33h0.39
						c3.91,0,7.09,3.29,7.09,7.33c0,4.04-3.18,7.33-7.09,7.33h-5.1V263.86z M259.83,184.24h5.1c2.6,0,4.72-2.22,4.72-4.96
						c0-2.73-2.12-4.96-4.72-4.96h-0.39c-2.6,0-4.72,2.22-4.72,4.96V184.24z M231.65,174.33c-2.6,0-4.72,2.22-4.72,4.96
						c0,2.73,2.12,4.96,4.72,4.96h5.03v-4.96c0-2.73-2.11-4.96-4.72-4.96H231.65z"/>
				</g>
				<linearGradient id="SVGID_24_" gradientUnits="userSpaceOnUse" x1="248.669" y1="247.9461" x2="248.669" y2="342.5123">
					<stop  offset="3.886220e-03" style="stop-color:#D22780"/>
					<stop  offset="0.3459" style="stop-color:#DF5591"/>
					<stop  offset="1" style="stop-color:#F6ABB0"/>
				</linearGradient>
				<path class="st30" d="M248.67,320.46L248.67,320.46c-17.33,0-31.39-14.05-31.39-31.39V246.8h62.77v42.28
					C280.05,306.41,266,320.46,248.67,320.46z"/>
				<linearGradient id="SVGID_25_" gradientUnits="userSpaceOnUse" x1="212.8362" y1="265.875" x2="284.3705" y2="265.875">
					<stop  offset="0" style="stop-color:#F6ABB0"/>
					<stop  offset="0.6541" style="stop-color:#DF5591"/>
					<stop  offset="0.9961" style="stop-color:#D22780"/>
				</linearGradient>
				<path class="st31" d="M280.4,269.85h-63.59c-2.19,0-3.97-1.79-3.97-3.97l0,0c0-2.19,1.79-3.97,3.97-3.97h63.59
					c2.19,0,3.97,1.79,3.97,3.97l0,0C284.37,268.06,282.58,269.85,280.4,269.85z"/>
				<linearGradient id="SVGID_26_" gradientUnits="userSpaceOnUse" x1="212.8362" y1="249.3636" x2="284.3705" y2="249.3636">
					<stop  offset="0" style="stop-color:#F6ABB0"/>
					<stop  offset="0.6541" style="stop-color:#DF5591"/>
					<stop  offset="0.9961" style="stop-color:#D22780"/>
				</linearGradient>
				<path class="st32" d="M280.4,253.34h-63.59c-2.19,0-3.97-1.79-3.97-3.97l0,0c0-2.19,1.79-3.97,3.97-3.97h63.59
					c2.19,0,3.97,1.79,3.97,3.97l0,0C284.37,251.55,282.58,253.34,280.4,253.34z"/>
				<linearGradient id="SVGID_27_" gradientUnits="userSpaceOnUse" x1="212.8362" y1="284.5863" x2="284.3705" y2="284.5863">
					<stop  offset="0" style="stop-color:#F6ABB0"/>
					<stop  offset="0.6541" style="stop-color:#DF5591"/>
					<stop  offset="0.9961" style="stop-color:#D22780"/>
				</linearGradient>
				<path class="st33" d="M280.4,288.56h-63.59c-2.19,0-3.97-1.79-3.97-3.97l0,0c0-2.19,1.79-3.97,3.97-3.97h63.59
					c2.19,0,3.97,1.79,3.97,3.97l0,0C284.37,286.77,282.58,288.56,280.4,288.56z"/>
			</g>
		</g>
	</g>
	<g>
		<g>
			<path class="st26" d="M240.06,114.71c-2.7,6.74-6.12,14.19-10.45,22.08l5.69,3.41c5.21-6.42,9.81-13.34,13.88-20.68
				c5.52-9.98,10.09-20.74,13.94-32.05c1.25-2.25,1.51-4.51,0.78-6.37c0,0,0.01-0.02,0-0.03c-0.01-0.05-0.02-0.09-0.03-0.14
				c-0.01-0.03-0.04-0.05-0.06-0.09c-0.01-0.05-0.04-0.12-0.07-0.18c-0.75-1.61-2.29-2.86-4.53-3.35c-0.86-0.2-1.66-0.24-2.42-0.2
				c-2.3,0.17-4.3,1.34-5.69,3.04l-0.01,0.01c-0.78,0.96-1.37,2.09-1.71,3.3c-0.09,0.27-0.14,0.53-0.18,0.78
				c-0.51,2.77-1.46,7.16-3.07,12.79C244.73,102.04,242.76,108.03,240.06,114.71z"/>
			<path class="st27" d="M222.23,146.29l3.08-1.29c-3.13,5.87-4.38,9.5-4.89,11.55c-0.26,1.12,0.84,2.14,1.92,1.74
				c6.9-2.47,9.2-13.32,9.2-13.32s3.18-4.64,3.77-4.77l-5.69-3.41c-0.74,1.47-1.86,3.84-3.87,4.58c-2.55,1.32-3.97,2.4-4.73,3.25
				C220.26,145.45,221.19,146.72,222.23,146.29z"/>
		</g>
		<g>
			<path class="st26" d="M209.74,113.51c-4.27,5.65-9.41,11.78-15.51,18.09l4.48,4.67c6.55-4.7,12.66-10.04,18.37-15.89
				c7.76-7.98,14.82-16.93,21.36-26.58c1.75-1.79-2.57-11.22-3.3-11.38c-2.21-0.43-4.39,0.15-6.13,1.4l-0.01,0
				c-0.98,0.71-1.83,1.61-2.45,2.67c-0.15,0.24-0.26,0.46-0.37,0.69c-1.19,2.47-3.21,6.37-6.17,11.25
				C217.39,102.79,213.99,107.92,209.74,113.51z"/>
			<path class="st27" d="M184.84,138.65l3.23-0.42c-4.45,4.72-6.57,7.81-7.57,9.61c-0.53,0.99,0.24,2.23,1.36,2.13
				c7.12-0.55,12.08-10.18,12.08-10.18s4.19-3.55,4.77-3.52l-4.48-4.67c0.27,0.28-2.73,3.14-4.82,3.32
				c-2.74,0.59-4.35,1.24-5.29,1.85C183.21,137.36,183.76,138.79,184.84,138.65z"/>
		</g>
	</g>
	<g>
		<ellipse class="st5" cx="93.76" cy="443.11" rx="37.89" ry="4.59"/>
		<g>
			<g>
				<linearGradient id="SVGID_28_" gradientUnits="userSpaceOnUse" x1="65.8724" y1="269.8416" x2="104.5489" y2="269.8416">
					<stop  offset="3.886220e-03" style="stop-color:#410784"/>
					<stop  offset="0.2248" style="stop-color:#450C85"/>
					<stop  offset="0.4908" style="stop-color:#521B8A"/>
					<stop  offset="0.7789" style="stop-color:#683390"/>
					<stop  offset="0.9942" style="stop-color:#7C4A97"/>
				</linearGradient>
				<path class="st34" d="M103.9,251.59c-1.79-6.82-7-11.32-14.02-11.35c-2.97-0.01-5.79,1.11-8.19,2.86
					c-1.15,0.84-1.79,1.32-2.36,2.65c-0.42,0.98-1.11,2.27-1.54,2.9l-0.26-1.6c0.12,1.81-1.75,4.48-2.61,5.91
					c-1.88,3.13-3.76,6.21-5.49,9.42c-2.29,4.25-3.29,8.04-3.53,12.85c-0.15,3.07,0.51,6.48,2.74,8.78c2.64,2.72,6.32,3.9,9.31,6.04
					c1.56,1.11,2.95,2.07,3.24,4.15c0.08,0.55,0.07,1.41-0.08,1.93c-0.36,1.24-1.3,1.25-1.89,2.07c3.63,2.91,9.51,0.09,12.86-1.8
					c4.11-2.31,8.26-5.79,9.57-10.6c1.18-4.34,1.57-9.21,2.16-13.67c0.38-2.92,0.4-5.96,0.51-8.91
					C104.47,259.26,104.92,255.47,103.9,251.59z"/>
			</g>
			<g>
				<linearGradient id="SVGID_29_" gradientUnits="userSpaceOnUse" x1="89.2854" y1="244.6707" x2="112.5214" y2="244.6707">
					<stop  offset="3.886220e-03" style="stop-color:#410784"/>
					<stop  offset="0.2248" style="stop-color:#450C85"/>
					<stop  offset="0.4908" style="stop-color:#521B8A"/>
					<stop  offset="0.7789" style="stop-color:#683390"/>
					<stop  offset="0.9942" style="stop-color:#7C4A97"/>
				</linearGradient>
				<path class="st35" d="M112.52,250.66c-5.11,0.04-7.84-3.58-9.89-7.2c-0.32-0.57-0.96-3.99-1.55-7.38
					c-0.67-3.89-4.52-6.37-8.34-5.38l-3.47,0.9c0,0,0.39,9.73,1.49,15.12c0.84,4.12,2.53,9.63,7.74,10.54
					c3.63,0.63,7.31,1.42,11.08,1.6c-2.4-0.87-4.27-3.76-5.53-5.66C106.7,252.2,110.17,252.58,112.52,250.66z"/>
			</g>
			<path class="st25" d="M90.36,265.79l0.58-0.9c0.75-1.15,1.83-2.05,3.09-2.62c0.2-0.08,0.4-0.15,0.61-0.23
				c1.17-0.39,2.42-0.83,3.7-1.3c0.02-0.01,0.03-0.01,0.05-0.02c10.14-3.71,23.12-9.42,27.8-11.52c1.14-0.52,1.8-0.81,1.8-0.81
				s0.37-0.72,0.98-1.97c2.53-5.17,9.18-19.36,10.37-27.87c-0.29-2.28-0.87-7.38-0.57-10.45c0.9-2.19,1.86,0.01,2.85,4.34l1.69-7.56
				c0.5-2.23,3.48-2.79,4.69-0.84c2.33,3.78-1,11.9-3.81,15.83c-1.01,10.68-7.84,26.59-9.88,31.16c-0.03,0.07-0.06,0.14-0.11,0.2
				l0,0c-1.02,2.56-2.77,4.77-5.04,6.34c-4.47,3.1-12.36,8.49-18.22,12.15c-3.68,2.3-7.43,4.34-10.92,5.7
				c-1.49,0.59-4.03,0.72-5.59,0.37C89.95,274.79,87.85,269.63,90.36,265.79z"/>
			<g>
				<g>
					<path class="st36" d="M111.35,327.93c0-0.02,0.01-0.05,0.01-0.07C111.36,327.85,111.35,327.93,111.35,327.93z"/>
				</g>
				<path class="st37" d="M82.89,262.8"/>
				<path class="st25" d="M99.65,271.49c-8.68-0.81-13.69-6.98-15.74-10.42l1.44-2.42c0.89-1.49,1.61-3.05,2.17-4.69l1.56-4.59
					l6.27,2.7c-0.82,2.28-0.7,4.6,0.23,6.98c0.42,1.1,1.3,2.01,2.33,2.57l0.03,0.02l2.43,1.14
					C106.41,270.72,99.65,271.49,99.65,271.49z"/>
				<g>
					<path class="st27" d="M81.59,248.31c-1.14-1.58-1.63-4.09-0.22-4.83c0.42-0.22,0.98-0.27,1.59-0.18
						c-1-5.44,0.36-12.54,3.87-14.38c4.59-2.41,9.71-1.8,15.62,10.24c2.34,4.76,1.19,11.3-3.15,14.09
						c-3.26,2.09-8.95,0.03-12.55-3.14C85,250.31,83.03,250.32,81.59,248.31z"/>
					<g>
						<g>
							<g>
								<path class="st26" d="M98.82,243.89c0.02-0.01,0.04-0.02,0.07-0.03c0.52-0.32,1.19-0.8,1.04-1.35
									c-0.21-0.77-1.96-0.86-2.7-0.86c-0.16,0-0.28,0.13-0.28,0.28c0,0.16,0.13,0.28,0.28,0.28c1.05,0,2.09,0.22,2.16,0.44
									c0,0,0.02,0.23-0.79,0.72c-0.13,0.08-0.18,0.26-0.1,0.39C98.57,243.88,98.7,243.93,98.82,243.89z"/>
							</g>
						</g>
						<g>
							<g>
								<path class="st26" d="M99.61,247.27c0.3-0.12,0.47-0.22,0.48-0.23c0.15-0.09,0.21-0.29,0.12-0.44
									c-0.09-0.15-0.27-0.22-0.44-0.12c-0.14,0.08-3.52,1.96-5.83-1.12c-0.11-0.14-0.31-0.17-0.45-0.06
									c-0.14,0.11-0.17,0.31-0.06,0.45C95.54,248.56,98.47,247.74,99.61,247.27z"/>
							</g>
						</g>
						<path class="st26" d="M91.89,241.9"/>
						<g>
							<g>
								<path class="st26" d="M89.7,240.46c0.12-0.04,0.21-0.14,0.23-0.26c0.28-2.03,2.1-1.89,2.18-1.89
									c0.18,0.02,0.33-0.12,0.35-0.29c0.01-0.18-0.12-0.33-0.29-0.35c-0.87-0.07-2.58,0.34-2.87,2.44
									c-0.02,0.18,0.1,0.34,0.28,0.36C89.61,240.48,89.66,240.47,89.7,240.46z"/>
							</g>
						</g>
						<g>
							<g>
								<path class="st26" d="M96.74,236.44c0.09,0.04,0.21,0.03,0.29-0.04c1.29-1.13,2.38-0.05,2.42,0
									c0.1,0.11,0.27,0.11,0.38,0.01c0.11-0.1,0.11-0.28,0-0.38c-0.51-0.52-1.83-1.2-3.16-0.03c-0.11,0.1-0.12,0.27-0.02,0.38
									C96.68,236.4,96.71,236.42,96.74,236.44z"/>
							</g>
						</g>
						<path class="st26" d="M91.73,241.84c0.26,0.74,0.8,1.22,1.2,1.07c0.4-0.14,0.52-0.86,0.26-1.59c-0.26-0.74-0.8-1.22-1.2-1.07
							C91.58,240.39,91.46,241.1,91.73,241.84z"/>
						<path class="st26" d="M98.39,239.68c0.26,0.74,0.8,1.22,1.2,1.07c0.4-0.14,0.52-0.86,0.26-1.59c-0.26-0.74-0.8-1.22-1.2-1.07
							C98.24,238.23,98.13,238.94,98.39,239.68z"/>
					</g>
				</g>
				<path class="st27" d="M117.1,363.17v0.15c0.01,0.31,0.01,0.59,0.01,0.89c0,0.6-0.17,2.3-0.12,3.27c0.1,1.7,0.06,3.78-0.09,6.13
					c-1.25,20.58-10.72,62.31-11.16,64.2v0.06c-1.99-0.19-3.76-0.47-5.75-0.62c0.04-0.17,0.07-0.34,0.11-0.51
					c2.14-10.23,2.15-31.84,1.98-34.38c-0.19-2.58-0.47-5.8,2-6.82c0,0-0.88-10.23-1.96-22.1c-0.15-1.71-0.32-3.47-0.48-5.22
					c-0.34-3.68-0.72-7.38-1.1-10.89c-0.48-3.76-1.6-12.3-2.1-14.76c-0.26,2.24-1.13,8.97-1.73,13.56h0.02
					c-0.13,0.97-0.27,1.96-0.41,2.94c-0.03,0.22-0.04,0.42-0.07,0.6c-0.41,2.93-0.82,5.88-1.25,8.77c-0.25,1.67-0.49,3.32-0.74,4.92
					c-1.63,10.54-3.29,19.53-4.39,22.76c-5.27,15.24-12.13,31.91-18.3,43.74c-0.63-0.39-1.23-0.74-1.84-1.1
					c-0.93-0.54-1.85-1.07-2.79-1.66c-0.08-0.04-0.17-0.11-0.26-0.16c6.24-9.11,8.44-41.85,14.15-41.15
					c0.01-0.25,0.01-0.52,0.01-0.82c0-3.76-0.66-12.21-1.34-21.76l-0.01-0.01c-0.33-4.73-0.66-9.73-0.93-14.55v-0.07
					c-0.04-0.81-0.1-1.64-0.13-2.44h0.02c-0.41-9.16-0.82-21.25-0.46-23.17c0.14-0.72,0.29-1.43,0.45-2.16h38.45
					c0.03,0.74,0.05,1.47,0.04,2.19c0,0.21,0-0.02,0,0.25c-0.01,1.45-0.01,2.87-0.01,4.29c0,7.02,0.1,13.7,0.17,18.6v1.07
					C117.11,358.94,117.11,360.9,117.1,363.17z"/>
				<linearGradient id="SVGID_30_" gradientUnits="userSpaceOnUse" x1="78.1523" y1="352.2042" x2="117.1102" y2="352.2042">
					<stop  offset="3.886220e-03" style="stop-color:#410784"/>
					<stop  offset="0.2248" style="stop-color:#450C85"/>
					<stop  offset="0.4908" style="stop-color:#521B8A"/>
					<stop  offset="0.7789" style="stop-color:#683390"/>
					<stop  offset="0.9942" style="stop-color:#7C4A97"/>
				</linearGradient>
				<path class="st38" d="M117.1,363.17v0.15c0.01,0.31,0.01,0.59,0.01,0.89c0,0.6-0.17,2.3-0.12,3.27c0.1,1.7,0.06,3.78-0.09,6.13
					l-14.48-0.16h-0.29l-7.58-0.07h-0.29l-14.46-0.16l-0.01-0.01c-0.33-4.73-0.66-9.73-0.93-14.55v-0.07
					c-0.04-0.81-0.1-1.64-0.13-2.44h0.02c-0.41-9.16-0.82-21.25-0.46-23.17c0.14-0.72,0.29-1.43,0.45-2.16h38.17
					c0.03,0.74,0.05,1.47,0.04,2.19c0,0.21,0-0.02,0,0.25c-0.01,1.45-0.01,2.87-0.01,4.29c0,7.02,0.1,13.7,0.17,18.6v1.07
					C117.11,358.94,117.11,360.9,117.1,363.17z"/>
				<linearGradient id="SVGID_31_" gradientUnits="userSpaceOnUse" x1="86.2358" y1="295.8209" x2="124.6918" y2="295.8209">
					<stop  offset="0" style="stop-color:#F7B502"/>
					<stop  offset="0.0833" style="stop-color:#F8BA0E"/>
					<stop  offset="0.3027" style="stop-color:#FAC62A"/>
					<stop  offset="0.5249" style="stop-color:#FCCE3D"/>
					<stop  offset="0.7492" style="stop-color:#FDD349"/>
					<stop  offset="0.9793" style="stop-color:#FDD54D"/>
				</linearGradient>
				<path class="st39" d="M83.65,317.26c-2.47,4.18-4.14,8.81-5.21,13.55h38.46c-0.48-9.21-4.78-19.21-7.16-27.87
					c-0.3-1.21-0.59-2.41-0.81-3.64c-0.75-4.2-0.91-8.45,0.11-12.85l2.49-9.61c0.65-4.36-0.84-7.19-3.27-9.37
					c-1.93-1.73-4.43-3.01-6.97-4.27l-0.91-0.42c0.02,0.04,0.05,0.05,0.09,0.07c2.35,1.77,0.54,5.51-2.35,4.97
					c-6.83-1.28-10-8.37-14.2-6.76l-0.59,1.78c-0.79,2.36-1.15,4.83-1.29,7.32c-0.09,1.57-0.94,0.67-0.26,4.71
					c0.37,2.15,7.28,16,9.07,24.42c0.37,1.77,0.53,3.29,0.33,4.43c-0.02,0.07-0.02,0.12-0.03,0.19h0.05l-0.05,0
					C90.22,309.1,86.26,312.89,83.65,317.26z"/>
			</g>
			<path class="st37" d="M85.21,264.26"/>
			<path class="st26" d="M66.86,436.37c-2.96,7.53,2.87,7.72,17.63,7.86c2.05,0.01,3.51-2.14,0.04-3.26l-11.1-4.78
				c0,0-5.39-0.12-6.47-0.07L66.86,436.37z"/>
			<path class="st26" d="M99.73,436.37c-2.96,7.53,2.87,7.72,17.63,7.86c2.05,0.01,3.51-2.14,0.04-3.26l-11.1-4.78
				c0,0-5.39-0.12-6.47-0.07L99.73,436.37z"/>
			<g>
				<path class="st40" d="M103.96,195.4c-0.32-7.04,2.81-14.14,7.99-19.25c14.1-13.93,37.39-16.74,56.21-15.39
					c12.75,0.92,21.61,7.08,23.23,21.01c0.05,0.45,0.09,0.89,0.12,1.32c0.72,10.14-5.26,19.57-14.53,23.76l0,0
					c-4.8,2.17-9.86,3.68-15.07,4.51c-5.25,0.83-11.91,1.95-15.81,2.78c-13.11,2.82-30.93,4.52-39.1-8.77
					C105.07,202.21,104.11,198.81,103.96,195.4z"/>
			</g>
			<path class="st27" d="M80.7,267.42l0.55-0.91c0.72-1.17,1.77-2.1,3.02-2.7c0.2-0.08,0.39-0.16,0.6-0.24
				c1.16-0.42,2.4-0.9,3.67-1.4c0.02-0.01,0.03-0.01,0.05-0.02c10.04-3.99,22.85-10.05,27.47-12.28c1.13-0.55,1.77-0.86,1.77-0.86
				s0.35-0.73,0.93-2c2.39-5.24,8.65-19.6,9.6-28.14c-0.35-2.28-1.08-7.35-0.85-10.43c0.84-2.21,1.86-0.04,2.97,4.26l1.48-7.61
				c0.44-2.24,3.4-2.88,4.66-0.97c2.43,3.72-0.67,11.92-3.37,15.93c-0.72,10.7-7.1,26.79-9.03,31.42c-0.03,0.07-0.06,0.14-0.1,0.21
				l0,0c-0.95,2.59-2.64,4.84-4.86,6.47c-4.39,3.22-12.12,8.83-17.88,12.64c-3.62,2.4-7.31,4.54-10.76,6
				c-1.47,0.63-4,0.83-5.58,0.52C80.53,276.43,78.3,271.33,80.7,267.42z"/>
			<g>
				<linearGradient id="SVGID_32_" gradientUnits="userSpaceOnUse" x1="73.8357" y1="243.508" x2="100.8571" y2="243.508">
					<stop  offset="3.886220e-03" style="stop-color:#410784"/>
					<stop  offset="0.2248" style="stop-color:#450C85"/>
					<stop  offset="0.4908" style="stop-color:#521B8A"/>
					<stop  offset="0.7789" style="stop-color:#683390"/>
					<stop  offset="0.9942" style="stop-color:#7C4A97"/>
				</linearGradient>
				<path class="st41" d="M94.89,226.49c-15.22-7.27-26.66,10.93-18.15,20.31c2.83,3.11-1.07,9.9,3.47,12.61
					c3.17,1.89,5.77,3.75,9.6,2.25c-1.94-1.67-2.48-1.83-2.97-4.06c2.82,0.01,5.92,1.6,8.81,0.65c-4.78-1.79-6.05-6.14-6.66-10.26
					c-0.11-0.75-0.43-4.43-0.69-7.52c1.13-2.72,2.98-5.09,5.19-6.07c-0.28,1.3-0.83,2.7-1.71,3.76c1.64-0.58,5.1-2.31,6.33-3.42
					C102.76,230.51,101.39,229.59,94.89,226.49z"/>
			</g>
		</g>
	</g>
	<g>
		<linearGradient id="SVGID_33_" gradientUnits="userSpaceOnUse" x1="246.2713" y1="295.0929" x2="253.5536" y2="295.0929">
			<stop  offset="0" style="stop-color:#F6ABB0"/>
			<stop  offset="0.6541" style="stop-color:#DF5591"/>
			<stop  offset="0.9961" style="stop-color:#D22780"/>
		</linearGradient>
		<path class="st42" d="M253.55,295.09c0,2.01-1.63,3.64-3.64,3.64c-2.01,0-3.64-1.63-3.64-3.64s1.63-3.64,3.64-3.64
			C251.92,291.45,253.55,293.08,253.55,295.09z"/>
		<g>
			<linearGradient id="SVGID_34_" gradientUnits="userSpaceOnUse" x1="169.4566" y1="321.1755" x2="212.0775" y2="321.1755">
				<stop  offset="0" style="stop-color:#F7B502"/>
				<stop  offset="0.0833" style="stop-color:#F8BA0E"/>
				<stop  offset="0.3027" style="stop-color:#FAC62A"/>
				<stop  offset="0.5249" style="stop-color:#FCCE3D"/>
				<stop  offset="0.7492" style="stop-color:#FDD349"/>
				<stop  offset="0.9793" style="stop-color:#FDD54D"/>
			</linearGradient>
			<path class="st43" d="M170.53,352.33c-0.04,0-0.08,0-0.12-0.01c-0.59-0.07-1.01-0.6-0.94-1.19c0.21-1.81,0.45-3.61,0.72-5.34
				c0.09-0.58,0.64-0.98,1.22-0.89c0.58,0.09,0.98,0.64,0.9,1.22c-0.26,1.71-0.5,3.48-0.71,5.26
				C171.53,351.93,171.06,352.33,170.53,352.33z M172.17,341.75c-0.07,0-0.14-0.01-0.21-0.02c-0.58-0.12-0.96-0.68-0.84-1.26
				c0.36-1.78,0.75-3.56,1.18-5.27c0.14-0.57,0.73-0.92,1.3-0.78c0.57,0.14,0.92,0.72,0.78,1.3c-0.42,1.68-0.81,3.42-1.16,5.17
				C173.12,341.4,172.67,341.75,172.17,341.75z M174.78,331.38c-0.1,0-0.21-0.02-0.32-0.05c-0.56-0.17-0.88-0.77-0.71-1.34
				c0.54-1.76,1.14-3.48,1.76-5.12c0.21-0.55,0.83-0.83,1.38-0.62c0.55,0.21,0.83,0.83,0.62,1.38c-0.61,1.6-1.18,3.28-1.72,5
				C175.66,331.08,175.24,331.38,174.78,331.38z M178.59,321.38c-0.15,0-0.3-0.03-0.45-0.1c-0.54-0.25-0.77-0.89-0.52-1.42
				c0.77-1.67,1.61-3.3,2.48-4.84c0.29-0.52,0.94-0.7,1.46-0.41c0.52,0.29,0.7,0.94,0.41,1.46c-0.84,1.49-1.65,3.07-2.4,4.69
				C179.38,321.15,178.99,321.38,178.59,321.38z M183.86,312.08c-0.21,0-0.42-0.06-0.61-0.19c-0.49-0.34-0.61-1-0.27-1.49
				c1.04-1.51,2.16-2.97,3.31-4.34c0.38-0.45,1.06-0.51,1.51-0.13c0.45,0.38,0.51,1.06,0.13,1.51c-1.11,1.31-2.18,2.71-3.18,4.17
				C184.53,311.92,184.2,312.08,183.86,312.08z M190.76,303.93c-0.28,0-0.56-0.11-0.77-0.33c-0.41-0.43-0.4-1.1,0.03-1.51
				c1.31-1.26,2.71-2.46,4.14-3.56c0.47-0.36,1.14-0.27,1.5,0.2c0.36,0.47,0.27,1.14-0.2,1.5c-1.37,1.06-2.71,2.2-3.97,3.41
				C191.3,303.84,191.03,303.93,190.76,303.93z M199.23,297.43c-0.36,0-0.71-0.18-0.92-0.51c-0.31-0.51-0.15-1.16,0.36-1.47
				c1.54-0.93,3.15-1.8,4.81-2.58c0.54-0.26,1.17-0.02,1.42,0.51c0.25,0.53,0.02,1.17-0.51,1.42c-1.59,0.75-3.14,1.58-4.61,2.47
				C199.61,297.38,199.42,297.43,199.23,297.43z M208.89,292.87c-0.44,0-0.85-0.27-1.01-0.71c-0.2-0.56,0.09-1.17,0.65-1.37
				c0.71-0.25,1.43-0.49,2.16-0.72c0.57-0.17,1.16,0.14,1.34,0.7c0.18,0.56-0.14,1.16-0.7,1.34c-0.7,0.22-1.39,0.45-2.08,0.69
				C209.13,292.85,209.01,292.87,208.89,292.87z"/>
		</g>
		<g>
			<linearGradient id="SVGID_35_" gradientUnits="userSpaceOnUse" x1="286.9632" y1="321.1753" x2="329.5841" y2="321.1753">
				<stop  offset="0" style="stop-color:#F7B502"/>
				<stop  offset="0.0833" style="stop-color:#F8BA0E"/>
				<stop  offset="0.3027" style="stop-color:#FAC62A"/>
				<stop  offset="0.5249" style="stop-color:#FCCE3D"/>
				<stop  offset="0.7492" style="stop-color:#FDD349"/>
				<stop  offset="0.9793" style="stop-color:#FDD54D"/>
			</linearGradient>
			<path class="st44" d="M328.51,352.33c-0.54,0-1-0.4-1.06-0.95c-0.21-1.78-0.45-3.55-0.71-5.26c-0.09-0.58,0.31-1.13,0.89-1.22
				c0.58-0.09,1.13,0.31,1.22,0.89c0.27,1.74,0.51,3.54,0.72,5.34c0.07,0.59-0.35,1.12-0.94,1.19
				C328.6,352.33,328.55,352.33,328.51,352.33z M326.87,341.75c-0.5,0-0.95-0.35-1.05-0.86c-0.35-1.75-0.74-3.49-1.16-5.17
				c-0.14-0.57,0.21-1.16,0.78-1.3c0.57-0.14,1.15,0.21,1.3,0.78c0.43,1.71,0.82,3.49,1.18,5.27c0.12,0.58-0.26,1.14-0.84,1.26
				C327.01,341.75,326.94,341.75,326.87,341.75z M324.26,331.38c-0.46,0-0.88-0.29-1.02-0.75c-0.53-1.72-1.11-3.4-1.72-5
				c-0.21-0.55,0.07-1.17,0.62-1.38c0.55-0.21,1.17,0.07,1.38,0.62c0.62,1.64,1.22,3.36,1.76,5.12c0.17,0.56-0.14,1.16-0.71,1.34
				C324.47,331.36,324.37,331.38,324.26,331.38z M320.45,321.38c-0.4,0-0.79-0.23-0.97-0.62c-0.75-1.62-1.56-3.19-2.4-4.69
				c-0.29-0.51-0.11-1.17,0.41-1.46c0.51-0.29,1.17-0.11,1.46,0.41c0.87,1.54,1.7,3.17,2.48,4.84c0.25,0.54,0.02,1.17-0.52,1.42
				C320.76,321.35,320.6,321.38,320.45,321.38z M315.18,312.08c-0.34,0-0.67-0.16-0.88-0.46c-1-1.46-2.07-2.86-3.18-4.17
				c-0.38-0.45-0.33-1.13,0.13-1.51c0.45-0.38,1.13-0.32,1.51,0.13c1.15,1.36,2.26,2.82,3.31,4.34c0.34,0.49,0.21,1.15-0.27,1.49
				C315.61,312.02,315.39,312.08,315.18,312.08z M308.28,303.93c-0.27,0-0.53-0.1-0.74-0.3c-1.26-1.2-2.59-2.35-3.97-3.41
				c-0.47-0.36-0.56-1.03-0.2-1.5c0.36-0.47,1.03-0.56,1.5-0.2c1.44,1.1,2.83,2.3,4.14,3.56c0.43,0.41,0.44,1.09,0.03,1.51
				C308.84,303.82,308.56,303.93,308.28,303.93z M299.81,297.43c-0.19,0-0.38-0.05-0.56-0.16c-1.47-0.89-3.02-1.73-4.61-2.47
				c-0.54-0.25-0.76-0.89-0.51-1.42c0.25-0.54,0.89-0.77,1.42-0.51c1.66,0.78,3.28,1.65,4.81,2.58c0.51,0.31,0.67,0.96,0.36,1.47
				C300.52,297.24,300.17,297.43,299.81,297.43z M290.15,292.87c-0.12,0-0.24-0.02-0.36-0.06c-0.68-0.24-1.38-0.47-2.08-0.69
				c-0.56-0.18-0.88-0.78-0.7-1.34c0.18-0.56,0.77-0.88,1.34-0.7c0.73,0.23,1.45,0.47,2.16,0.72c0.56,0.2,0.85,0.81,0.65,1.37
				C291.01,292.6,290.59,292.87,290.15,292.87z"/>
		</g>
		<g>
			<linearGradient id="SVGID_36_" gradientUnits="userSpaceOnUse" x1="248.8418" y1="324.2408" x2="250.9829" y2="324.2408">
				<stop  offset="0" style="stop-color:#F7B502"/>
				<stop  offset="0.0833" style="stop-color:#F8BA0E"/>
				<stop  offset="0.3027" style="stop-color:#FAC62A"/>
				<stop  offset="0.5249" style="stop-color:#FCCE3D"/>
				<stop  offset="0.7492" style="stop-color:#FDD349"/>
				<stop  offset="0.9793" style="stop-color:#FDD54D"/>
			</linearGradient>
			<path class="st45" d="M249.91,354.75c-0.59,0-1.07-0.48-1.07-1.07v-5.35c0-0.59,0.48-1.07,1.07-1.07c0.59,0,1.07,0.48,1.07,1.07
				v5.35C250.98,354.27,250.5,354.75,249.91,354.75z M249.91,344.05c-0.59,0-1.07-0.48-1.07-1.07v-5.35c0-0.59,0.48-1.07,1.07-1.07
				c0.59,0,1.07,0.48,1.07,1.07v5.35C250.98,343.57,250.5,344.05,249.91,344.05z M249.91,333.34c-0.59,0-1.07-0.48-1.07-1.07v-5.35
				c0-0.59,0.48-1.07,1.07-1.07c0.59,0,1.07,0.48,1.07,1.07v5.35C250.98,332.86,250.5,333.34,249.91,333.34z M249.91,322.64
				c-0.59,0-1.07-0.48-1.07-1.07v-5.35c0-0.59,0.48-1.07,1.07-1.07c0.59,0,1.07,0.48,1.07,1.07v5.35
				C250.98,322.16,250.5,322.64,249.91,322.64z M249.91,311.93c-0.59,0-1.07-0.48-1.07-1.07v-5.35c0-0.59,0.48-1.07,1.07-1.07
				c0.59,0,1.07,0.48,1.07,1.07v5.35C250.98,311.45,250.5,311.93,249.91,311.93z M249.91,301.22c-0.59,0-1.07-0.48-1.07-1.07v-5.35
				c0-0.59,0.48-1.07,1.07-1.07c0.59,0,1.07,0.48,1.07,1.07v5.35C250.98,300.74,250.5,301.22,249.91,301.22z"/>
		</g>
	</g>
	<g>
		<ellipse class="st5" cx="399.92" cy="443.11" rx="50.58" ry="4.59"/>
		<g>
			<g>
				<g>
					<path class="st46" d="M364.43,349.03c0,0-6.32,1.59-9.46-0.88c0,0-0.11-9.95-9.83-15.52c-2.31-1.33-4.74-1.82-6.54-1.15
						c-4.25,1.59-9.1,5.23-3.64,15.79c0,0.01-2.46,4.91,1.55,3.25c2.29,4.08,7.19,6.79,11.56,5.58c0.9-0.25,1.71-0.78,2.42-1.49
						c3.11,2.05,8.4,4.63,8.4,4.63L364.43,349.03z"/>
					<path class="st1" d="M338.37,344.4c0.34,0.82,0.27,1.64-0.15,1.81c-0.43,0.18-1.05-0.35-1.39-1.17
						c-0.34-0.82-0.27-1.64,0.15-1.81C337.4,343.05,338.02,343.57,338.37,344.4z"/>
					<g>
						<path class="st1" d="M339.07,341.26c-0.12,0.06-0.27,0.04-0.38-0.05c-1.71-1.44-3.09,0-3.15,0.06
							c-0.13,0.14-0.35,0.15-0.5,0.02c-0.14-0.13-0.15-0.36-0.02-0.5c0.65-0.69,2.34-1.61,4.11-0.12c0.15,0.12,0.17,0.35,0.04,0.5
							C339.15,341.21,339.11,341.24,339.07,341.26z"/>
					</g>
					<g>
						<path class="st1" d="M339.3,352.31c0-0.13,0.08-0.26,0.21-0.32c2.03-0.92,1.33-2.79,1.3-2.86c-0.07-0.18,0.02-0.38,0.2-0.46
							c0.18-0.07,0.38,0.02,0.46,0.2c0.35,0.88,0.44,2.81-1.66,3.76c-0.18,0.08-0.39,0-0.46-0.18
							C339.31,352.41,339.3,352.36,339.3,352.31z"/>
					</g>
				</g>
				<g>
					<linearGradient id="SVGID_37_" gradientUnits="userSpaceOnUse" x1="380.86" y1="367.5992" x2="324.6887" y2="320.6796">
						<stop  offset="3.886220e-03" style="stop-color:#410784"/>
						<stop  offset="0.2248" style="stop-color:#450C85"/>
						<stop  offset="0.4908" style="stop-color:#521B8A"/>
						<stop  offset="0.7789" style="stop-color:#683390"/>
						<stop  offset="0.9942" style="stop-color:#7C4A97"/>
					</linearGradient>
					<path class="st47" d="M361.3,344.24c1.04-1.15,3.1-5.39-0.01-2.99c-0.39,0.3-0.86,0.69-1.37,1.01c0.3-1.53,0.1-3.07,0.2-4.54
						c0.73-10.43-6.53-16.23-14.46-16.53c-5.97-0.23-13.15,5.55-14.97,8.78c-0.39,0.17-0.79,0.33-1.19,0.45
						c-1.42,0.43-2.66,0.47-3.92,1.25c-0.78,0.48-2.74,1.68-2.71,2.65c0.04,1.38,2.13,1.46,3.12,1.16
						c-1.82,1.35-3.21,6.91,0.18,7.31c1.5,0.18,3.29-0.84,4.92-2.21c1.34-1.12,2.95-1.93,4.68-2.12c1.06-0.12,2.05-0.03,2.86,0.49
						c1.02,0.66,2.03,1.29,2.97,1.85c0.08,0.21,0.15,0.42,0.19,0.63c0.36,1.63,0.95,3.67,2.84,4.08c3.97,0.88,0.72-4.55,0.64-7.16
						c1.01-1.44,2.94-1.93,5.29,0.93c1.59,1.94,1.64,4.39,1.8,6.73c0.07,0.97-0.09,1.93,0.24,2.86c1.67,4.64,7.31,1.39,9.12-0.03
						c1.1-0.87,2.21-2.25,2.16-3.76C363.79,342.94,362.68,344.01,361.3,344.24z"/>
				</g>
			</g>
			<g>
				<linearGradient id="SVGID_38_" gradientUnits="userSpaceOnUse" x1="386.2069" y1="417.7699" x2="434.7132" y2="417.7699">
					<stop  offset="3.886220e-03" style="stop-color:#410784"/>
					<stop  offset="0.0367" style="stop-color:#450B85"/>
					<stop  offset="0.2712" style="stop-color:#5D278D"/>
					<stop  offset="0.5085" style="stop-color:#6E3A93"/>
					<stop  offset="0.7483" style="stop-color:#794696"/>
					<stop  offset="0.9942" style="stop-color:#7C4A97"/>
				</linearGradient>
				<path class="st48" d="M407.5,394.82c0,0-6.62,30.49-5.97,31.77c0,0,10.18,7.51,33.12,0.94l0.07,5.29
					c-53.14,18.28-51.74,4.5-45.47-38L407.5,394.82z"/>
				<path class="st1" d="M437.61,443.44l4.42,0c3.62-0.26,1.09-6.02,0.67-7.02c-0.72-1.74-0.93-6.12-0.72-7.95
					c0.03-0.26,0.02-0.51-0.02-0.75c-0.3-1.64-2.23-2.42-3.69-1.63c-0.95,0.52-2.25,0.75-3.62,1.44l0.07,5.29l2.01,2.85
					c0.79,1.11,0.89,2.52,0.27,3.68l-0.56,1.05C435.83,441.52,436.38,442.93,437.61,443.44z"/>
				<linearGradient id="SVGID_39_" gradientUnits="userSpaceOnUse" x1="360.2472" y1="407.9171" x2="410.3721" y2="407.9171">
					<stop  offset="3.886220e-03" style="stop-color:#410784"/>
					<stop  offset="0.0367" style="stop-color:#450B85"/>
					<stop  offset="0.2712" style="stop-color:#5D278D"/>
					<stop  offset="0.5085" style="stop-color:#6E3A93"/>
					<stop  offset="0.7483" style="stop-color:#794696"/>
					<stop  offset="0.9942" style="stop-color:#7C4A97"/>
				</linearGradient>
				<path class="st49" d="M405.53,377.98c0,0,13.1,24.14-3.79,26.24c-2.48,0.31-5,0.09-7.43-0.48c-10.41-2.43-19.08-5.56-20.09-3.63
					c-1.19,2.28-4.78,14.3-0.37,37.75l-5.03,0c-12.97-39.23-14.03-64.09,16.86-54.29l0.09-5.34L405.53,377.98z"/>
				<path class="st1" d="M359.69,443.03c0.11,0.03,0.23,0.06,0.34,0.09c2.12,0.46,7.08-0.26,9.78,0.19l2.12-0.02
					c2.48,0,2.54-2.16,1.99-4.46c0,0,0.03-0.49,0.06-0.98c-1.51,0-3.32,0.01-4.89,0.02l-9.75,3.26
					C358.59,441.65,358.79,442.78,359.69,443.03z"/>
			</g>
			<linearGradient id="SVGID_40_" gradientUnits="userSpaceOnUse" x1="429.0755" y1="354.3071" x2="353.8328" y2="375.9523">
				<stop  offset="0" style="stop-color:#F6ABB0"/>
				<stop  offset="0.6541" style="stop-color:#DF5591"/>
				<stop  offset="0.9961" style="stop-color:#D22780"/>
			</linearGradient>
			<path class="st50" d="M385.67,384.63c0,0,15.6,3.03,23.62,1.17c0,0-10.44-31.04-26.8-38.63c-6.24-2.9-13.65-2.64-19.32,1.26
				c-3.42,2.35-5.66,5.56-6.71,9.66c-2.13,8.24,13.68,11.89,19.43,18.17C379.51,380.22,380.34,383.94,385.67,384.63z"/>
			<path class="st46" d="M332.14,428.13l4.86-2.62l18.9-31.23l1.09-1.8c0,0,1.89-16.18,1.89-27.79c0-3.24,0.51-5.46,3.31-7.12
				c3.38-1.99,6.12-1.15,8.21,2.59c1.97,3.54,2.34,7.75,1.32,11.66l-2.02,18.14c-0.41,3.62-1.58,7.08-3.44,10.17
				c-0.9,1.51-1.97,2.94-3.19,4.24l-22.19,23.81l-3.65,5.66c-0.7,1.1-4.22,4.71-6.52,4.71c-2.13,0-3.87-1.71-3.87-3.84v-0.26
				C326.84,433.05,330.88,428.81,332.14,428.13z"/>
		</g>
	</g>
</g>
<g id="DESIGNED_BY_FREEPIK">
</g>
</svg>
