<svg width="49" height="49" viewBox="0 0 49 49" fill="none" xmlns="http://www.w3.org/2000/svg">
<path d="M25.5778 0.48262L16.4213 9.63905V11.7659L27.7046 0.48262H25.5778ZM30.0388 0.883089L16.8218 14.1001L34.8999 32.1781L48.1169 18.9613L30.0387 0.883304L30.0388 0.883089ZM48.5175 21.2954L37.234 32.5787H39.3609L48.5173 23.4222V21.2954H48.5175ZM22.7467 22.7592L21.6832 23.8227L25.1773 27.3169L26.2408 26.2535L22.7467 22.7592ZM20.316 25.1899L17.7886 27.7172H22.8433L20.316 25.1899ZM15.855 29.6508L12.9272 32.5787H19.9155L22.8433 29.6508H15.855ZM10.9936 34.5123L8.06596 37.4399H15.0542L17.9819 34.5123H10.9936ZM8.06596 39.3735L10.5933 41.9008L13.1206 39.3735H8.06596ZM5.73179 39.774L4.66853 40.8374L8.16264 44.3315L9.22591 43.2682L5.73179 39.774ZM1.56737 41.8042L0.761276 44.2224L4.77757 48.2387L7.19585 47.4326V46.0991L2.90069 41.8042H1.56737Z" fill="white"/>
</svg>
